<?xml version="1.0" standalone="no"?>
<!DOCTYPE svg PUBLIC "-//W3C//DTD SVG 20010904//EN"
 "http://www.w3.org/TR/2001/REC-SVG-20010904/DTD/svg10.dtd">
<svg version="1.0" xmlns="http://www.w3.org/2000/svg"
 width="800.000000pt" height="600.000000pt" viewBox="0 0 800.000000 600.000000"
 preserveAspectRatio="xMidYMid meet">

<g transform="translate(0.000000,600.000000) scale(0.100000,-0.100000)"
fill="#000000" stroke="none">
<path d="M0 3000 l0 -3000 4000 0 4000 0 0 3000 0 3000 -2048 0 c-1461 0
-2051 -3 -2059 -11 -8 -8 -13 -8 -17 0 -11 17 -332 15 -340 -1 -5 -10 -7 -10
-12 0 -3 6 -19 12 -36 12 -23 0 -29 -4 -24 -16 3 -9 6 -20 6 -25 0 -5 8 -9 18
-9 10 0 23 -5 30 -12 16 -16 15 -49 0 -47 -29 4 -38 -2 -38 -26 0 -14 -4 -25
-9 -25 -27 0 -42 16 -47 51 -8 49 -21 58 -34 24 -10 -26 -30 -26 -30 1 0 8
-10 14 -25 14 -29 0 -31 11 -9 45 l16 25 -512 0 c-477 0 -514 -1 -526 -17 -13
-17 -15 -17 -25 0 -9 15 -30 17 -216 17 -153 0 -204 -3 -196 -11 23 -23 4 -38
-33 -26 -39 12 -44 24 -11 30 16 3 14 5 -9 6 -25 1 -31 -3 -30 -16 2 -26 -38
-28 -78 -4 -32 20 -48 21 -310 21 -182 0 -275 -3 -271 -10 3 -5 1 -10 -4 -10
-6 0 -11 5 -11 10 0 7 -192 10 -555 10 l-555 0 0 -3000z m4040 2968 c0 -16 -3
-19 -11 -11 -6 6 -8 16 -5 22 11 17 16 13 16 -11z m190 6 c0 -8 -5 -12 -10 -9
-6 4 -8 11 -5 16 9 14 15 11 15 -7z m-3060 -14 c0 -5 -4 -10 -10 -10 -5 0 -10
5 -10 10 0 6 5 10 10 10 6 0 10 -4 10 -10z m1630 -10 c0 -5 -7 -10 -16 -10 -8
0 -12 5 -9 10 3 6 10 10 16 10 5 0 9 -4 9 -10z m1998 -38 c16 2 34 -4 44 -14
10 -10 24 -15 33 -12 8 4 15 1 15 -6 0 -9 10 -10 34 -6 28 5 37 3 45 -13 17
-32 13 -41 -18 -41 -17 0 -33 -5 -36 -10 -8 -13 -43 -3 -63 16 -7 8 -20 14
-28 14 -21 0 -63 29 -75 52 -8 14 -7 24 3 35 12 15 13 15 16 -1 3 -12 12 -16
30 -14z m-1720 -5 c2 -12 -3 -17 -17 -17 -15 0 -21 6 -21 21 0 25 33 22 38 -4z
m1432 -17 c0 -5 -5 -10 -11 -10 -5 0 -7 5 -4 10 3 6 8 10 11 10 2 0 4 -4 4
-10z m-2863 -38 c26 -16 22 -32 -9 -32 -22 0 -78 36 -78 50 0 13 60 0 87 -18z
m70 -6 c-4 -9 -13 -16 -22 -16 -18 0 -19 5 -4 32 13 24 35 9 26 -16z m2723 15
c0 -11 -5 -23 -11 -27 -15 -9 -33 12 -26 30 9 23 37 20 37 -3z m-1277 -30 c7
-26 -24 -56 -41 -39 -16 16 -15 45 1 51 24 10 35 7 40 -12z m1498 -2 c8 -15
18 -20 35 -16 19 3 22 2 13 -9 -6 -7 -21 -16 -32 -20 -12 -3 -32 -15 -44 -26
-22 -20 -49 -16 -36 5 4 6 6 24 5 39 -1 17 4 31 15 37 26 15 31 14 44 -10z
m-1829 -11 c-7 -7 -12 -20 -12 -30 0 -10 -7 -18 -16 -18 -14 0 -15 3 -2 23 8
12 18 28 22 35 5 7 11 11 14 7 3 -3 0 -11 -6 -17z m-151 -31 c-8 -8 -11 -7
-11 4 0 20 13 34 18 19 3 -7 -1 -17 -7 -23z m2097 11 c18 -18 15 -25 -18 -36
-37 -13 -49 1 -24 29 20 22 26 23 42 7z m-1318 -44 c0 -13 -4 -24 -10 -24 -5
0 -10 9 -10 19 0 11 -3 28 -7 38 -6 16 -5 16 10 4 9 -7 17 -24 17 -37z m-1980
26 c0 -5 -2 -10 -4 -10 -3 0 -8 5 -11 10 -3 6 -1 10 4 10 6 0 11 -4 11 -10z
m2060 -14 c0 -3 -4 -8 -10 -11 -5 -3 -10 -1 -10 4 0 6 5 11 10 11 6 0 10 -2
10 -4z m99 -25 c-3 -6 -10 -7 -18 -2 -7 5 -10 14 -6 21 9 14 29 -2 24 -19z
m1065 2 c4 -9 1 -20 -6 -25 -21 -13 -28 -9 -28 17 0 28 24 34 34 8z m201 -13
c4 -6 -5 -10 -19 -10 -14 0 -26 5 -26 10 0 6 9 10 19 10 11 0 23 -4 26 -10z
m-86 -9 c9 -6 10 -10 2 -16 -16 -9 -44 2 -36 15 8 12 16 12 34 1z m-2965 -97
c16 -16 23 -49 8 -40 -5 3 -20 -1 -35 -9 -15 -8 -27 -9 -27 -4 0 5 7 12 15 15
8 4 12 10 9 16 -6 9 2 38 10 38 3 0 12 -7 20 -16z m307 -17 c-1 -12 -15 -9
-19 4 -3 6 1 10 8 8 6 -3 11 -8 11 -12z m3109 -37 c0 -5 -4 -10 -10 -10 -5 0
-10 5 -10 10 0 6 5 10 10 10 6 0 10 -4 10 -10z m-3348 -32 c-7 -7 -12 -8 -12
-2 0 14 12 26 19 19 2 -3 -1 -11 -7 -17z m98 -4 c0 -8 -7 -14 -15 -14 -15 0
-21 21 -9 33 10 9 24 -2 24 -19z m86 -41 c-10 -10 -19 5 -10 18 6 11 8 11 12
0 2 -7 1 -15 -2 -18z m-376 8 c0 -5 -9 -12 -19 -16 -11 -3 -22 -12 -25 -20 -9
-24 -26 -17 -26 10 0 17 4 23 14 19 8 -3 17 -1 21 5 8 13 35 15 35 2z m1444
-10 c4 -5 3 -17 0 -26 -5 -13 -8 -14 -15 -3 -5 7 -9 19 -9 26 0 14 16 16 24 3z
m366 -12 c0 -5 -7 -9 -15 -9 -15 0 -20 12 -9 23 8 8 24 -1 24 -14z m-1335 1
c4 -6 -7 -10 -25 -10 -18 0 -29 4 -25 10 3 6 15 10 25 10 10 0 22 -4 25 -10z
m243 -8 c6 -18 -15 -14 -22 4 -4 10 -1 14 6 12 6 -2 14 -10 16 -16z m-118 -7
c0 -8 -4 -15 -9 -15 -5 0 -11 7 -15 15 -3 9 0 15 9 15 8 0 15 -7 15 -15z m710
-18 c0 -7 -7 -22 -15 -33 -8 -12 -12 -24 -9 -26 3 -3 -2 -8 -11 -11 -18 -8
-18 -5 -3 44 10 36 38 55 38 26z m-593 -43 c19 -25 5 -45 -28 -40 -15 2 -33 7
-38 11 -6 3 -11 -1 -11 -9 0 -20 -9 -20 -32 1 -23 21 -23 50 0 57 30 8 96 -4
109 -20z m1179 0 c4 -17 2 -29 -7 -35 -23 -14 -29 -10 -29 19 0 48 25 59 36
16z m-266 -60 c0 -18 -14 -18 -30 1 -16 19 -3 40 16 24 8 -6 14 -18 14 -25z
m-209 1 c0 -6 -10 -12 -23 -13 -19 -4 -20 -2 -9 12 15 17 33 18 32 1z m-391
-5 c0 -5 -7 -10 -16 -10 -8 0 -12 5 -9 10 3 6 10 10 16 10 5 0 9 -4 9 -10z
m220 0 c0 -5 -5 -10 -11 -10 -5 0 -7 5 -4 10 3 6 8 10 11 10 2 0 4 -4 4 -10z
m-1017 -43 c26 -32 28 -38 16 -53 -11 -14 -11 -18 -1 -22 7 -2 22 -14 33 -26
17 -18 18 -21 5 -24 -9 -2 -16 -9 -16 -15 0 -20 -49 66 -50 87 0 11 -5 16 -14
13 -8 -3 -23 8 -36 25 -22 30 -22 32 -4 45 24 17 32 14 67 -30z m1677 24 c0
-14 -6 -19 -22 -18 -44 2 -46 37 -2 37 17 0 24 -5 24 -19z m-690 -1 c0 -5 -6
-10 -14 -10 -8 0 -18 5 -21 10 -3 6 3 10 14 10 12 0 21 -4 21 -10z m370 -6 c0
-17 -22 -14 -28 4 -2 7 3 12 12 12 9 0 16 -7 16 -16z m-692 -17 c2 -10 -3 -17
-12 -17 -10 0 -16 9 -16 21 0 24 23 21 28 -4z m-175 -7 c-3 -11 -9 -20 -14
-20 -5 0 -9 9 -9 20 0 11 6 20 14 20 9 0 12 -7 9 -20z m1507 10 c0 -5 -2 -10
-4 -10 -3 0 -8 5 -11 10 -3 6 -1 10 4 10 6 0 11 -4 11 -10z m-435 -10 c3 -5 1
-10 -4 -10 -6 0 -11 5 -11 10 0 6 2 10 4 10 3 0 8 -4 11 -10z m-1725 -10 c0
-5 -2 -10 -4 -10 -3 0 -8 5 -11 10 -3 6 -1 10 4 10 6 0 11 -4 11 -10z m1824
-26 c3 -8 2 -14 -2 -14 -10 0 -32 22 -32 32 0 12 28 -2 34 -18z m-484 7 c0 -5
-7 -12 -16 -15 -14 -5 -15 -4 -4 9 14 17 20 19 20 6z m540 -3 c0 -13 -29 -48
-41 -48 -4 0 -1 14 7 30 16 30 34 40 34 18z m-1200 -18 c0 -5 -5 -10 -11 -10
-5 0 -7 5 -4 10 3 6 8 10 11 10 2 0 4 -4 4 -10z m170 2 c0 -10 -22 -32 -32
-32 -13 0 -9 28 5 33 19 8 27 8 27 -1z m-606 -18 c9 -8 16 -21 16 -27 0 -9 -3
-8 -8 1 -5 6 -17 19 -28 27 -10 8 -14 15 -7 15 6 0 19 -7 27 -16z m-124 -19
c0 -7 -7 -16 -16 -19 -12 -5 -15 -2 -10 10 3 8 6 20 6 25 0 6 5 7 10 4 6 -3
10 -12 10 -20z m1234 6 c17 -19 17 -19 -3 -14 -12 3 -21 12 -21 19 0 18 4 18
24 -5z m1006 9 c0 -5 -4 -10 -10 -10 -5 0 -10 5 -10 10 0 6 5 10 10 10 6 0 10
-4 10 -10z m-1235 -10 c-3 -5 -12 -10 -18 -10 -7 0 -6 4 3 10 19 12 23 12 15
0z m-109 -27 c-10 -10 -19 5 -10 18 6 11 8 11 12 0 2 -7 1 -15 -2 -18z m709
17 c3 -5 -1 -10 -9 -10 -8 0 -18 5 -21 10 -3 6 1 10 9 10 8 0 18 -4 21 -10z
m-1990 -9 c3 -6 -4 -15 -15 -21 -22 -12 -23 -10 -14 14 7 18 20 21 29 7z
m1570 -11 c3 -5 1 -10 -4 -10 -6 0 -11 5 -11 10 0 6 2 10 4 10 3 0 8 -4 11
-10z m-445 -20 c0 -11 -7 -23 -15 -27 -21 -8 -24 -2 -14 25 10 28 29 29 29 2z
m-1044 -12 c-3 -13 -6 -32 -6 -42 0 -11 -3 -16 -7 -13 -3 4 -13 1 -22 -5 -10
-8 -9 -4 3 9 17 20 17 23 2 29 -9 3 -23 3 -32 0 -14 -5 -15 -4 -4 9 7 8 21 15
31 15 11 0 19 5 19 10 0 6 5 10 11 10 7 0 9 -9 5 -22z m1594 12 c0 -5 -8 -10
-17 -10 -15 0 -16 2 -3 10 19 12 20 12 20 0z m134 1 c3 -5 0 -14 -8 -20 -10
-9 -15 -8 -19 3 -9 22 15 37 27 17z m729 -5 c3 -8 0 -17 -8 -19 -15 -7 -25 1
-25 20 0 17 26 17 33 -1z m1807 10 c0 -3 -4 -8 -10 -11 -5 -3 -10 -1 -10 4 0
6 5 11 10 11 6 0 10 -2 10 -4z m-3750 -21 c16 -19 3 -40 -16 -24 -15 13 -19
39 -5 39 5 0 14 -7 21 -15z m1190 -36 c0 -9 -39 1 -46 12 -3 5 -2 14 1 20 7
10 45 -16 45 -32z m-493 9 c-3 -8 -6 -5 -6 6 -1 11 2 17 5 13 3 -3 4 -12 1
-19z m206 6 c11 -11 -3 -24 -18 -18 -8 4 -12 10 -9 15 6 11 18 12 27 3z m169
-8 c7 4 8 2 4 -4 -4 -6 -13 -9 -21 -6 -8 4 -12 11 -8 17 5 8 8 7 11 -1 2 -7 9
-9 14 -6z m433 4 c3 -5 -1 -10 -10 -10 -9 0 -13 5 -10 10 3 6 8 10 10 10 2 0
7 -4 10 -10z m1065 -10 c-6 -11 -13 -20 -15 -20 -3 0 -5 9 -5 20 0 11 7 20 15
20 13 0 14 -4 5 -20z m-2450 0 c0 -5 -5 -10 -11 -10 -5 0 -7 5 -4 10 3 6 8 10
11 10 2 0 4 -4 4 -10z m550 -51 c5 -17 5 -29 0 -29 -14 0 -30 36 -30 67 1 25
2 26 11 10 6 -10 15 -32 19 -48z m-1120 27 c0 -14 -4 -28 -10 -31 -6 -4 -10 7
-10 24 0 17 5 31 10 31 6 0 10 -11 10 -24z m1250 8 c0 -14 -3 -14 -15 -4 -8 7
-15 14 -15 16 0 2 7 4 15 4 8 0 15 -7 15 -16z m630 3 c0 -8 -3 -17 -7 -20 -9
-9 -34 13 -27 24 8 14 34 11 34 -4z m-440 -1 c0 -2 3 -13 6 -23 5 -17 5 -17
-6 0 -11 17 -36 25 -25 7 3 -6 -1 -7 -9 -4 -25 9 -19 24 9 24 14 0 25 -2 25
-4z m-1030 -42 c0 -13 -4 -24 -10 -24 -5 0 -10 14 -10 31 0 17 4 28 10 24 6
-3 10 -17 10 -31z m38 -11 c-11 -15 -11 -16 4 -10 9 3 19 1 22 -6 3 -9 7 -8
14 2 13 18 35 3 29 -20 -3 -11 -1 -19 4 -19 5 0 9 -4 9 -8 0 -5 -7 -9 -15 -9
-8 0 -12 4 -9 8 7 13 -36 37 -57 32 -16 -4 -19 0 -19 25 0 17 6 32 13 35 18 6
21 -11 5 -30z m1713 10 c13 -16 17 -22 9 -15 -8 6 -22 12 -32 12 -18 0 -24 11
-11 23 9 9 6 11 34 -20z m1009 12 c0 -8 -4 -15 -10 -15 -5 0 -10 7 -10 15 0 8
5 15 10 15 6 0 10 -7 10 -15z m-2800 -29 c0 -5 -7 -3 -15 4 -8 7 -12 17 -9 22
7 10 24 -9 24 -26z m978 23 c-2 -6 -8 -10 -13 -10 -5 0 -11 4 -13 10 -2 6 4
11 13 11 9 0 15 -5 13 -11z m254 -9 c-13 -10 -23 -21 -22 -24 0 -10 -14 -8
-18 2 -3 11 36 42 53 42 5 -1 0 -9 -13 -20z m128 5 c0 -12 -19 -12 -23 0 -4 9
-1 12 9 8 7 -3 14 -7 14 -8z m497 -2 c-14 -14 -19 -15 -29 -4 -11 10 -10 11 3
6 10 -4 20 -2 24 4 3 6 9 11 13 11 3 0 -1 -8 -11 -17z m-1888 -7 c10 -12 8
-17 -7 -25 -15 -8 -23 -7 -32 4 -13 16 -6 35 14 35 8 0 19 -6 25 -14z m221 -1
c0 -8 -2 -15 -4 -15 -2 0 -6 7 -10 15 -3 8 -1 15 4 15 6 0 10 -7 10 -15z m39
-26 c1 -3 -10 -11 -24 -17 -15 -7 -25 -8 -25 -2 0 6 5 10 10 10 6 0 10 8 10
18 0 38 25 30 29 -9z m2345 26 c-4 -8 -8 -15 -10 -15 -2 0 -4 7 -4 15 0 8 4
15 10 15 5 0 7 -7 4 -15z m-2964 -15 c0 -4 -9 -6 -21 -3 -15 4 -17 8 -8 14 14
8 29 3 29 -11z m70 5 c11 -13 10 -14 -4 -9 -9 3 -16 10 -16 15 0 13 6 11 20
-6z m160 -11 c0 -14 -3 -14 -15 -4 -8 7 -15 14 -15 16 0 2 7 4 15 4 8 0 15 -7
15 -16z m625 6 c3 -5 1 -10 -4 -10 -6 0 -11 5 -11 10 0 6 2 10 4 10 3 0 8 -4
11 -10z m657 -21 c-2 -13 -11 -28 -20 -35 -11 -8 -13 -20 -9 -42 l6 -31 -21
21 c-14 14 -18 23 -10 26 7 2 12 10 12 17 0 7 4 15 10 17 5 2 11 15 12 31 1
15 7 26 13 24 5 -2 8 -15 7 -28z m778 17 c0 -3 -4 -8 -10 -11 -5 -3 -10 -1
-10 4 0 6 5 11 10 11 6 0 10 -2 10 -4z m-3076 -36 c-6 -6 -10 -2 -11 12 -2 16
1 18 10 9 7 -7 8 -14 1 -21z m1206 20 c0 -5 -2 -10 -4 -10 -3 0 -8 5 -11 10
-3 6 -1 10 4 10 6 0 11 -4 11 -10z m450 -5 c-7 -8 -17 -15 -23 -15 -6 0 -2 7
9 15 25 19 30 19 14 0z m1003 1 c4 -10 0 -14 -14 -13 -20 1 -24 9 -12 20 10
11 20 8 26 -7z m62 4 c3 -5 1 -10 -4 -10 -6 0 -11 5 -11 10 0 6 2 10 4 10 3 0
8 -4 11 -10z m772 4 c-3 -3 -12 -4 -19 -1 -8 3 -5 6 6 6 11 1 17 -2 13 -5z
m293 -2 c0 -13 -12 -22 -22 -16 -10 6 -1 24 13 24 5 0 9 -4 9 -8z m-2944 -27
c2 -27 -9 -32 -30 -13 -11 10 -9 15 8 24 12 7 21 12 21 13 0 1 1 -10 1 -24z
m1364 10 c7 -8 10 -21 7 -30 -4 -8 -2 -17 3 -20 16 -10 11 -22 -11 -28 -17 -5
-18 -3 -8 9 10 12 8 18 -8 29 -14 10 -19 22 -16 35 6 24 16 25 33 5z m-1137
-1 c-6 -3 -9 -16 -7 -30 4 -20 1 -25 -13 -22 -25 4 -29 45 -6 51 24 6 41 7 26
1z m1257 -26 c-26 -21 -45 -24 -34 -5 16 28 26 35 41 30 14 -5 13 -9 -7 -25z
m-1346 7 c-4 -8 -10 -15 -15 -15 -4 0 -6 7 -3 15 4 8 10 15 15 15 4 0 6 -7 3
-15z m161 5 c3 -5 1 -10 -4 -10 -6 0 -11 5 -11 10 0 6 2 10 4 10 3 0 8 -4 11
-10z m905 6 c0 -2 -7 -7 -16 -10 -8 -3 -12 -2 -9 4 6 10 25 14 25 6z m-340
-10 c0 -2 -7 -9 -15 -16 -13 -11 -14 -10 -9 4 5 14 24 23 24 12z m408 -31 c-1
-21 -5 -32 -10 -27 -8 8 -1 62 8 62 2 0 3 -16 2 -35z m717 18 c-4 -10 -8 -24
-8 -30 0 -7 -4 -13 -8 -13 -3 0 -10 -10 -14 -22 -6 -20 -8 -21 -12 -5 -3 10 4
28 14 39 10 11 17 22 16 24 -7 10 -2 24 8 24 7 0 8 -7 4 -17z m315 8 c0 -6 -4
-13 -10 -16 -5 -3 -10 1 -10 9 0 9 5 16 10 16 6 0 10 -4 10 -9z m-1874 -37 c8
-20 13 -38 11 -40 -2 -3 -10 9 -17 26 -7 16 -16 28 -19 25 -4 -2 -8 2 -8 10 0
27 18 16 33 -21z m1481 19 c4 -10 10 -21 15 -24 4 -3 2 -13 -5 -24 -11 -14
-16 -15 -22 -5 -5 9 -4 11 3 6 22 -13 12 11 -10 26 -12 8 -18 19 -14 26 10 17
26 15 33 -5z m-1097 -23 c-18 -11 -22 -7 -14 14 5 13 10 14 18 6 8 -8 7 -13
-4 -20z m420 20 c0 -5 -4 -10 -10 -10 -5 0 -10 5 -10 10 0 6 5 10 10 10 6 0
10 -4 10 -10z m493 -14 c14 -21 14 -26 2 -36 -12 -10 -15 -9 -15 9 0 11 -4 21
-10 21 -5 0 -10 7 -10 15 0 22 16 18 33 -9z m-576 8 c-3 -3 -12 -4 -19 -1 -8
3 -5 6 6 6 11 1 17 -2 13 -5z m423 -4 c0 -5 -2 -10 -4 -10 -3 0 -8 5 -11 10
-3 6 -1 10 4 10 6 0 11 -4 11 -10z m1159 -16 c-14 -18 -24 -11 -15 11 3 9 11
13 16 10 8 -5 7 -11 -1 -21z m-3444 6 c3 -5 2 -10 -4 -10 -5 0 -13 5 -16 10
-3 6 -2 10 4 10 5 0 13 -4 16 -10z m765 -59 c0 -5 -11 -6 -25 -3 -14 2 -23 8
-20 12 3 5 -2 15 -11 24 -8 9 -13 20 -10 25 6 9 66 -44 66 -58z m787 47 c-3
-8 -6 -5 -6 6 -1 11 2 17 5 13 3 -3 4 -12 1 -19z m1323 7 c0 -2 -7 -5 -15 -9
-9 -3 -15 0 -15 9 0 9 6 12 15 9 8 -4 15 -7 15 -9z m-1665 -16 c4 -10 4 -23 1
-28 -7 -11 -46 -21 -47 -13 0 4 -2 19 -4 33 -3 22 1 27 21 27 14 0 26 -8 29
-19z m73 -4 c-3 -3 -9 2 -12 12 -6 14 -5 15 5 6 7 -7 10 -15 7 -18z m388 -12
c-14 -14 -28 -24 -31 -21 -8 8 26 48 42 48 12 0 9 -7 -11 -27z m84 17 c0 -5
-5 -10 -11 -10 -5 0 -7 5 -4 10 3 6 8 10 11 10 2 0 4 -4 4 -10z m70 0 c0 -5
-4 -10 -10 -10 -5 0 -10 5 -10 10 0 6 5 10 10 10 6 0 10 -4 10 -10z m30 0 c0
-5 -4 -10 -10 -10 -5 0 -10 5 -10 10 0 6 5 10 10 10 6 0 10 -4 10 -10z m540
-27 c-11 -17 -11 -17 -6 0 3 10 6 24 7 30 0 9 2 9 5 0 3 -7 0 -20 -6 -30z
m1190 33 c0 -3 -4 -8 -10 -11 -5 -3 -10 -1 -10 4 0 6 5 11 10 11 6 0 10 -2 10
-4z m-4299 -29 c-10 -9 -11 -8 -5 6 3 10 9 15 12 12 3 -3 0 -11 -7 -18z m2135
-4 c-10 -10 -19 5 -10 18 6 11 8 11 12 0 2 -7 1 -15 -2 -18z m883 -4 c-19 -12
-29 -11 -29 1 0 6 7 10 15 10 8 0 15 6 16 13 0 8 2 8 6 -2 3 -7 -1 -17 -8 -22z
m-1292 -4 c-15 -16 -22 -11 -13 10 3 9 10 13 16 10 6 -4 5 -11 -3 -20z m2453
15 c0 -5 -2 -10 -4 -10 -3 0 -8 5 -11 10 -3 6 -1 10 4 10 6 0 11 -4 11 -10z
m-1245 -10 c3 -5 1 -10 -4 -10 -6 0 -11 5 -11 10 0 6 2 10 4 10 3 0 8 -4 11
-10z m4165 6 c0 -3 -4 -8 -10 -11 -5 -3 -10 -1 -10 4 0 6 5 11 10 11 6 0 10
-2 10 -4z m-5240 -14 c0 -12 -23 -32 -37 -32 -7 0 -13 5 -13 11 0 5 5 7 10 4
6 -3 10 1 10 9 0 9 7 16 15 16 8 0 15 -4 15 -8z m1822 -19 c-2 -12 -8 -20 -13
-18 -12 8 -7 42 6 42 7 0 10 -10 7 -24z m471 12 c8 -18 -11 -31 -25 -17 -11
11 -3 32 12 32 4 0 10 -7 13 -15z m-2033 1 c0 -3 -4 -8 -10 -11 -5 -3 -10 -1
-10 4 0 6 5 11 10 11 6 0 10 -2 10 -4z m-110 -24 c0 -4 -9 -13 -20 -20 -18
-11 -19 -10 -8 13 10 21 28 26 28 7z m2007 -7 c-7 -14 -15 -25 -19 -25 -11 0
-10 7 4 30 18 28 28 25 15 -5z m3653 21 c0 -2 -7 -7 -16 -10 -8 -3 -12 -2 -9
4 6 10 25 14 25 6z m-4845 -16 c-3 -5 -11 -10 -16 -10 -6 0 -7 5 -4 10 3 6 11
10 16 10 6 0 7 -4 4 -10z m2955 0 c0 -5 -7 -7 -15 -4 -8 4 -15 8 -15 10 0 2 7
4 15 4 8 0 15 -4 15 -10z m-3706 -22 c-5 -8 -1 -9 10 -5 12 5 16 3 13 -5 -2
-7 -10 -12 -16 -10 -6 1 -11 -2 -11 -7 0 -5 -10 -11 -22 -14 -23 -6 -23 -6 -3
9 12 9 19 24 17 36 -2 13 0 18 7 13 6 -3 8 -11 5 -17z m62 3 c0 -11 -6 -17
-13 -14 -6 3 -9 11 -6 19 7 20 19 17 19 -5z m1064 10 c0 -12 -20 -25 -27 -18
-7 7 6 27 18 27 5 0 9 -4 9 -9z m410 5 c0 -2 -9 -6 -20 -9 -11 -3 -20 -1 -20
4 0 5 9 9 20 9 11 0 20 -2 20 -4z m-2035 -16 c3 -5 2 -10 -4 -10 -5 0 -13 5
-16 10 -3 6 -2 10 4 10 5 0 13 -4 16 -10z m1140 -10 c3 -5 -1 -10 -10 -10 -10
0 -13 -5 -9 -12 4 -7 3 -8 -4 -4 -12 7 -5 36 8 36 5 0 12 -4 15 -10z m745 0
c0 -5 -4 -10 -10 -10 -5 0 -10 5 -10 10 0 6 5 10 10 10 6 0 10 -4 10 -10z
m-2075 -10 c9 8 14 6 19 -5 4 -11 -1 -15 -19 -15 -14 0 -25 -4 -25 -10 0 -5 5
-10 10 -10 6 0 10 -4 10 -10 0 -20 -20 -9 -26 14 -6 27 6 61 14 38 3 -9 8 -10
17 -2z m345 -14 c0 -6 -9 -12 -19 -12 -14 0 -17 4 -11 12 6 6 7 14 3 18 -4 4
0 4 10 0 9 -3 17 -11 17 -18z m296 9 c-11 -8 -22 -12 -25 -9 -6 6 19 24 34 24
6 -1 1 -7 -9 -15z m1509 5 c-3 -5 -12 -10 -18 -10 -7 0 -6 4 3 10 19 12 23 12
15 0z m2336 -7 c7 -10 10 -15 5 -11 -4 4 -17 -2 -28 -12 -11 -10 -27 -16 -35
-13 -8 3 -11 9 -6 12 5 3 12 14 16 24 3 9 13 17 20 17 8 0 21 -8 28 -17z
m1829 7 c0 -5 -4 -10 -10 -10 -5 0 -10 5 -10 10 0 6 5 10 10 10 6 0 10 -4 10
-10z m-6198 -18 c-7 -2 -10 -7 -7 -12 3 -4 -4 -6 -15 -3 -19 5 -19 6 -3 18 10
7 22 11 27 7 6 -3 5 -7 -2 -10z m65 -11 c10 -17 9 -17 -11 -8 -12 6 -23 16
-23 23 0 16 20 8 34 -15z m283 8 c0 -14 -17 -10 -23 5 -4 10 -1 13 9 9 7 -3
14 -9 14 -14z m105 4 c-2 -10 -4 -20 -4 -23 -1 -3 -5 2 -11 10 -6 9 -5 17 3
22 16 10 16 10 12 -9z m785 7 c0 -5 -5 -10 -11 -10 -5 0 -7 5 -4 10 3 6 8 10
11 10 2 0 4 -4 4 -10z m760 -15 c0 -7 6 -16 13 -18 6 -3 3 -6 -7 -6 -11 -1
-17 -4 -13 -7 3 -4 0 -13 -8 -20 -16 -16 -29 -19 -20 -4 3 6 0 10 -7 10 -9 1
-7 5 4 14 10 7 16 22 13 34 -2 15 0 19 11 15 8 -3 14 -11 14 -18z m450 10 c0
-8 -4 -15 -10 -15 -5 0 -7 7 -4 15 4 8 8 15 10 15 2 0 4 -7 4 -15z m44 7 c3
-5 -1 -9 -9 -9 -8 0 -12 4 -9 9 3 4 7 8 9 8 2 0 6 -4 9 -8z m-2662 -35 c-7 -8
-9 -17 -5 -20 3 -4 1 -7 -5 -7 -14 0 -16 16 -2 25 5 3 6 13 3 23 -5 14 -3 15
7 5 10 -9 10 -15 2 -26z m284 18 c-1 -8 -5 -17 -8 -21 -5 -4 -4 16 1 34 3 9 9
-1 7 -13z m2024 -22 c0 -1 -11 2 -25 9 -13 6 -22 15 -19 19 4 7 44 -19 44 -28z
m1790 33 c0 -2 -8 -10 -17 -17 -16 -13 -17 -12 -4 4 13 16 21 21 21 13z
m-2996 -46 c10 -13 9 -13 -6 -1 -10 7 -18 21 -17 30 0 13 1 14 6 1 3 -8 11
-22 17 -30z m326 36 c0 -10 -32 -36 -43 -36 -7 0 -6 4 3 10 8 5 11 10 5 11 -5
0 -1 4 10 9 25 11 25 11 25 6z m80 0 c0 -3 -4 -8 -10 -11 -5 -3 -10 -1 -10 4
0 6 5 11 10 11 6 0 10 -2 10 -4z m723 -9 c4 3 7 1 7 -5 0 -22 -19 -22 -31 0
-11 20 -10 21 3 11 8 -7 18 -10 21 -6z m112 3 c-3 -5 -12 -10 -18 -10 -7 0 -6
4 3 10 19 12 23 12 15 0z m1892 4 c-3 -3 -12 -4 -19 -1 -8 3 -5 6 6 6 11 1 17
-2 13 -5z m-4364 -17 c4 3 7 1 7 -5 0 -17 -16 -15 -31 6 -12 15 -12 16 2 5 9
-7 19 -10 22 -6z m2721 -3 c3 -8 2 -12 -4 -9 -6 3 -10 10 -10 16 0 14 7 11 14
-7z m-2677 0 c-3 -3 -12 -4 -19 -1 -8 3 -5 6 6 6 11 1 17 -2 13 -5z m238 -3
c10 -17 -15 -23 -31 -7 -14 15 -14 16 5 16 11 0 22 -4 26 -9z m272 -15 c-6 -8
-15 -12 -19 -9 -4 2 -2 10 5 17 6 8 15 12 19 9 4 -2 2 -10 -5 -17z m130 9 c0
-8 -4 -15 -9 -15 -10 0 -11 14 -1 23 9 10 10 9 10 -8z m457 6 c-9 -9 -45 -11
-39 -2 3 6 14 9 25 8 10 -1 17 -3 14 -6z m693 -25 c-4 -9 -13 -13 -22 -10 -8
3 -12 11 -9 16 4 6 10 5 16 -3 7 -10 8 -7 4 10 -3 17 -2 21 6 13 6 -6 8 -18 5
-26z m260 19 c0 -8 -4 -12 -9 -9 -5 3 -6 10 -3 15 9 13 12 11 12 -6z m853 5
c0 -5 -12 -10 -27 -10 -22 0 -25 2 -13 10 20 13 40 13 40 0z m895 -19 c-6 -5
-25 10 -25 20 0 5 6 4 14 -3 8 -7 12 -15 11 -17z m1069 19 c35 -13 38 -63 4
-58 -13 2 -22 -2 -21 -9 3 -15 -24 -25 -33 -12 -3 5 -3 16 0 24 8 22 -4 45
-23 46 -9 1 -6 4 9 9 35 11 36 11 64 0z m-4157 -21 c-1 -12 -6 -15 -17 -10 -8
5 -22 6 -30 3 -12 -4 -13 -2 -3 9 17 21 52 19 50 -2z m1848 11 c3 -6 -1 -7 -9
-4 -18 7 -21 14 -7 14 6 0 13 -4 16 -10z m2205 0 c0 -5 -2 -10 -4 -10 -3 0 -8
5 -11 10 -3 6 -1 10 4 10 6 0 11 -4 11 -10z m-3600 -10 c0 -5 -5 -10 -11 -10
-5 0 -7 5 -4 10 3 6 8 10 11 10 2 0 4 -4 4 -10z m840 4 c0 -8 -19 -13 -24 -6
-3 5 1 9 9 9 8 0 15 -2 15 -3z m-2000 -13 c0 -12 -20 -25 -27 -18 -7 7 6 27
18 27 5 0 9 -4 9 -9z m900 -16 c0 -3 -11 -5 -25 -5 -17 0 -23 4 -19 15 5 11
11 12 25 4 10 -5 19 -12 19 -14z m1420 15 c0 -5 -4 -10 -10 -10 -5 0 -10 5
-10 10 0 6 5 10 10 10 6 0 10 -4 10 -10z m-2050 -20 c0 -12 -59 -30 -65 -20
-8 12 10 21 29 14 11 -4 16 -1 16 11 0 9 5 13 10 10 6 -3 10 -10 10 -15z
m1438 -2 c-2 -12 -8 -23 -14 -25 -7 -2 -10 6 -7 22 6 30 26 34 21 3z m576 14
c7 -11 -6 -27 -26 -35 -13 -5 -18 -1 -18 12 0 10 3 21 7 24 9 9 31 9 37 -1z
m406 -2 c0 -5 -5 -10 -11 -10 -5 0 -7 5 -4 10 3 6 8 10 11 10 2 0 4 -4 4 -10z
m-2766 -12 c-3 -4 -9 -8 -15 -8 -5 0 -9 4 -9 8 0 5 7 9 15 9 8 0 12 -4 9 -9z
m396 3 c0 -5 9 -7 20 -4 21 5 28 -11 10 -22 -6 -4 -7 -11 -4 -17 4 -6 -7 0
-25 13 -34 25 -40 39 -16 39 8 0 15 -4 15 -9z m379 -7 c3 -4 -2 -4 -11 -1 -10
3 -20 2 -23 -3 -4 -6 -1 -10 6 -10 7 0 10 -3 7 -6 -10 -9 -49 16 -43 27 7 10
53 5 64 -7z m-615 -2 c3 -5 -1 -9 -9 -9 -8 0 -12 4 -9 9 3 4 7 8 9 8 2 0 6 -4
9 -8z m96 -2 c0 -5 -4 -10 -10 -10 -5 0 -10 5 -10 10 0 6 5 10 10 10 6 0 10
-4 10 -10z m878 -2 c-2 -6 -13 -12 -24 -14 -19 -3 -19 -3 0 12 24 17 29 18 24
2z m1279 -5 c14 -17 14 -17 9 0 -5 15 -2 16 14 7 23 -12 35 -30 21 -30 -6 0
-11 6 -11 13 0 9 -2 9 -8 0 -4 -7 -16 -10 -27 -9 -11 2 -27 -5 -37 -17 -25
-32 -30 -16 -6 21 23 37 26 38 45 15z m-2340 -15 c-3 -8 -6 -5 -6 6 -1 11 2
17 5 13 3 -3 4 -12 1 -19z m1123 18 c0 -3 -4 -8 -10 -11 -5 -3 -10 -1 -10 4 0
6 5 11 10 11 6 0 10 -2 10 -4z m1575 -13 c18 -14 18 -15 2 -9 -10 3 -23 6 -28
6 -5 0 -9 5 -9 10 0 14 12 12 35 -7z m-2115 0 c0 -5 -11 -9 -25 -9 -14 -1 -25
2 -25 7 0 5 11 9 25 9 14 0 25 -3 25 -7z m55 -3 c9 -15 -19 -40 -35 -30 -11 7
-11 11 -1 24 15 18 27 20 36 6z m202 4 c-3 -3 -12 -4 -19 -1 -8 3 -5 6 6 6 11
1 17 -2 13 -5z m4373 -9 c0 -8 -4 -15 -10 -15 -5 0 -10 7 -10 15 0 8 5 15 10
15 6 0 10 -7 10 -15z m-4920 1 c0 -2 -7 -9 -15 -16 -12 -10 -15 -10 -15 4 0 9
7 16 15 16 8 0 15 -2 15 -4z m202 -3 c-6 -3 -10 -8 -7 -12 2 -5 -5 -8 -17 -7
-37 2 -33 25 4 24 18 -1 27 -3 20 -5z m1728 -3 c0 -5 -7 -10 -15 -10 -8 0 -15
5 -15 10 0 6 7 10 15 10 8 0 15 -4 15 -10z m-1820 -13 c0 -8 -7 -14 -15 -14
-11 0 -12 4 -4 14 6 7 13 13 15 13 2 0 4 -6 4 -13z m510 3 c0 -5 -4 -10 -10
-10 -5 0 -10 5 -10 10 0 6 5 10 10 10 6 0 10 -4 10 -10z m780 0 c0 -5 -4 -10
-10 -10 -5 0 -10 5 -10 10 0 6 5 10 10 10 6 0 10 -4 10 -10z m70 -9 c-16 -31
-32 -36 -18 -7 6 14 15 26 20 26 5 0 4 -9 -2 -19z m177 -3 c-3 -8 -6 -5 -6 6
-1 11 2 17 5 13 3 -3 4 -12 1 -19z m87 7 c-4 -8 -11 -12 -16 -9 -6 4 -5 10 3
15 19 12 19 11 13 -6z m-237 -32 c-3 -10 -5 -4 -5 12 0 17 2 24 5 18 2 -7 2
-21 0 -30z m2993 6 c0 -15 7 -29 15 -33 20 -7 19 -28 -2 -24 -16 3 -51 52 -52
75 -1 6 8 11 19 10 15 -1 20 -8 20 -28z m-4090 5 c0 -8 -4 -12 -10 -9 -5 3
-11 -4 -11 -17 -1 -18 -2 -19 -6 -5 -3 10 1 24 7 32 16 19 20 19 20 -1z m490
6 c0 -5 -4 -10 -10 -10 -5 0 -10 5 -10 10 0 6 5 10 10 10 6 0 10 -4 10 -10z
m1030 -7 c0 -10 -4 -14 -8 -8 -4 6 -11 13 -16 18 -5 4 -2 7 7 7 10 0 17 -8 17
-17z m-1780 -9 c0 -8 -5 -12 -10 -9 -6 4 -8 11 -5 16 9 14 15 11 15 -7z m4600
-5 c0 -6 -4 -7 -10 -4 -5 3 -10 11 -10 16 0 6 5 7 10 4 6 -3 10 -11 10 -16z
m223 -4 c-7 -19 -19 -19 -26 -1 -3 8 -1 17 6 19 18 6 27 -2 20 -18z m-6138 -5
c-3 -5 -12 -10 -18 -10 -7 0 -6 4 3 10 19 12 23 12 15 0z m574 -28 c13 -25 16
-43 11 -53 -7 -10 -11 -6 -16 19 -5 25 -9 30 -16 20 -6 -9 -7 -6 -3 9 4 15 0
25 -12 32 -17 10 -17 10 -1 11 10 0 26 -16 37 -38z m765 23 c-4 -8 -10 -15
-15 -15 -5 0 -8 -5 -6 -11 1 -6 -6 -13 -16 -14 -15 -3 -15 0 4 26 21 31 42 40
33 14z m836 -10 c-11 -13 -11 -16 1 -13 8 2 15 -6 17 -19 2 -17 -1 -20 -15
-17 -12 3 -19 14 -18 27 0 25 14 51 22 43 3 -3 0 -13 -7 -21z m3180 16 c0 -6
-4 -13 -10 -16 -5 -3 -10 1 -10 9 0 9 5 16 10 16 6 0 10 -4 10 -9z m-4065 -11
c3 -5 1 -10 -4 -10 -6 0 -11 5 -11 10 0 6 2 10 4 10 3 0 8 -4 11 -10z m2692
-16 c2 -6 -3 -14 -11 -17 -11 -4 -13 -1 -10 11 5 15 4 15 -8 2 -7 -8 -20 -16
-28 -18 -11 -3 -9 2 5 17 21 21 46 24 52 5z m2053 6 c0 -5 -5 -10 -11 -10 -5
0 -7 5 -4 10 3 6 8 10 11 10 2 0 4 -4 4 -10z m-5533 -22 c-3 -8 -6 -5 -6 6 -1
11 2 17 5 13 3 -3 4 -12 1 -19z m193 -15 c0 -8 5 -11 10 -8 6 4 7 11 4 17 -4
6 -1 9 6 6 21 -7 23 -25 3 -32 -11 -5 -23 0 -35 16 -22 28 -23 45 -3 28 8 -7
15 -19 15 -27z m3115 26 c11 -16 1 -19 -13 -3 -7 8 -8 14 -3 14 5 0 13 -5 16
-11z m1793 -7 c6 -18 -15 -14 -22 4 -4 10 -1 14 6 12 6 -2 14 -10 16 -16z
m-5171 -7 c0 -8 -4 -12 -9 -9 -4 3 -8 9 -8 15 0 5 4 9 8 9 5 0 9 -7 9 -15z
m227 -1 c3 -8 2 -12 -4 -9 -6 3 -10 10 -10 16 0 14 7 11 14 -7z m2161 -4 c4
-6 20 -9 36 -6 21 3 29 0 29 -10 0 -8 6 -17 13 -20 15 -5 20 -41 7 -49 -10 -6
-43 43 -35 55 3 5 1 11 -4 14 -5 4 -12 2 -16 -4 -9 -15 -19 -12 -45 10 -18 15
-19 20 -7 20 9 0 19 -5 22 -10z m3031 -5 c4 -8 10 -12 15 -9 5 3 9 -1 9 -9 0
-8 -7 -17 -15 -21 -9 -3 -15 0 -15 10 0 8 -7 17 -15 20 -8 4 -12 10 -9 15 8
14 24 11 30 -6z m-1313 -5 c8 0 8 -3 0 -11 -13 -13 -43 -5 -43 12 0 6 7 8 16
5 9 -3 21 -6 27 -6z m-1770 -21 c-7 -7 -19 -8 -30 -4 -16 7 -15 9 7 15 30 8
38 4 23 -11z m1067 11 c0 -5 -5 -10 -11 -10 -5 0 -7 5 -4 10 3 6 8 10 11 10 2
0 4 -4 4 -10z m-2920 -20 c-6 -11 -13 -20 -16 -20 -2 0 0 9 6 20 6 11 13 20
16 20 2 0 0 -9 -6 -20z m2710 -11 c0 -14 -17 -10 -23 5 -4 10 -1 13 9 9 7 -3
14 -9 14 -14z m260 17 c0 -2 -7 -7 -16 -10 -8 -3 -12 -2 -9 4 6 10 25 14 25 6z
m48 -13 c-2 -10 -11 -19 -21 -21 -16 -3 -17 -1 -5 17 16 25 31 27 26 4z m2606
9 c3 -5 -1 -9 -9 -9 -8 0 -15 4 -15 9 0 4 4 8 9 8 6 0 12 -4 15 -8z m-5924
-12 c0 -5 -5 -10 -11 -10 -5 0 -7 5 -4 10 3 6 8 10 11 10 2 0 4 -4 4 -10z
m382 -22 c-7 -7 -12 -8 -12 -2 0 14 12 26 19 19 2 -3 -1 -11 -7 -17z m908 18
c0 -2 -8 -10 -17 -17 -16 -13 -17 -12 -4 4 13 16 21 21 21 13z m1295 -6 c-3
-5 -13 -10 -21 -10 -8 0 -14 5 -14 10 0 6 9 10 21 10 11 0 17 -4 14 -10z m395
-10 c0 -13 -5 -18 -14 -14 -8 3 -12 12 -9 20 8 21 23 17 23 -6z m227 8 c-2 -7
0 -21 5 -30 5 -12 5 -18 -1 -18 -14 0 -29 32 -24 48 3 6 9 12 15 12 5 0 8 -6
5 -12z m63 3 c0 -13 -39 -40 -45 -31 -4 6 -1 10 6 10 8 0 8 4 1 13 -8 9 -4 12
14 13 13 1 24 -1 24 -5z m-3296 -9 c3 -5 -1 -9 -9 -9 -8 0 -15 4 -15 9 0 4 4
8 9 8 6 0 12 -4 15 -8z m456 -12 c6 -11 8 -20 6 -20 -3 0 -10 9 -16 20 -6 11
-8 20 -6 20 3 0 10 -9 16 -20z m3175 11 c3 -5 2 -12 -3 -15 -5 -3 -9 1 -9 9 0
17 3 19 12 6z m-3318 -26 c-9 -19 -13 -21 -15 -9 -3 13 12 33 25 34 0 0 -4
-11 -10 -25z m2093 15 c0 -5 -2 -10 -4 -10 -3 0 -8 5 -11 10 -3 6 -1 10 4 10
6 0 11 -4 11 -10z m2388 -12 c0 -13 3 -32 6 -43 8 -24 -7 -50 -23 -41 -15 10
-14 93 2 99 6 3 13 6 13 6 1 1 2 -9 2 -21z m112 2 c0 -11 -4 -20 -10 -20 -5 0
-10 9 -10 20 0 11 5 20 10 20 6 0 10 -9 10 -20z m140 16 c0 -11 -19 -15 -25
-6 -3 5 1 10 9 10 9 0 16 -2 16 -4z m291 -10 c5 3 9 0 9 -5 0 -6 -9 -11 -20
-11 -14 0 -18 5 -13 17 4 11 8 13 11 5 2 -7 8 -10 13 -6z m-4151 -6 c0 -5 -2
-10 -4 -10 -3 0 -8 5 -11 10 -3 6 -1 10 4 10 6 0 11 -4 11 -10z m357 -21 c-11
-20 -37 -38 -37 -25 0 7 44 55 48 52 1 -2 -4 -14 -11 -27z m565 4 c15 -15 28
-22 28 -15 0 6 -4 14 -10 17 -5 3 -10 11 -10 18 0 6 10 2 22 -11 22 -21 22
-22 3 -35 -16 -13 -22 -11 -47 11 -27 24 -36 42 -21 42 4 0 20 -12 35 -27z
m544 12 c-21 -16 -32 -13 -21 4 3 6 14 11 23 11 15 -1 15 -2 -2 -15z m154 0
c0 -8 -4 -15 -10 -15 -5 0 -10 7 -10 15 0 8 5 15 10 15 6 0 10 -7 10 -15z
m-2313 -31 c-8 -26 -8 -37 1 -42 6 -5 8 -13 3 -21 -14 -22 -24 41 -12 72 15
39 21 33 8 -9z m878 26 c3 -5 -1 -10 -10 -10 -9 0 -13 5 -10 10 3 6 8 10 10
10 2 0 7 -4 10 -10z m46 -7 c13 -15 12 -15 -8 -4 -24 12 -29 21 -14 21 5 0 15
-7 22 -17z m889 -8 c0 -19 -20 -29 -32 -17 -8 8 -7 16 2 26 14 17 30 12 30 -9z
m2450 10 c0 -9 -6 -12 -15 -9 -8 4 -15 10 -15 15 0 5 7 9 15 9 8 0 15 -7 15
-15z m668 4 c-2 -6 -8 -10 -13 -10 -5 0 -11 4 -13 10 -2 6 4 11 13 11 9 0 15
-5 13 -11z m-5405 -14 c-3 -9 -8 -14 -10 -11 -3 3 -2 9 2 15 9 16 15 13 8 -4z
m1197 5 c0 -5 -4 -10 -10 -10 -5 0 -10 5 -10 10 0 6 5 10 10 10 6 0 10 -4 10
-10z m602 -25 c8 -11 -9 -35 -26 -35 -6 0 -4 4 3 9 12 8 10 12 -12 22 -29 13
-34 25 -14 32 12 4 35 -9 49 -28z m778 25 c0 -5 -8 -10 -17 -10 -15 0 -16 2
-3 10 19 12 20 12 20 0z m274 -20 c-4 -19 -2 -30 5 -30 21 0 11 -16 -12 -18
-15 -1 -24 4 -24 13 0 8 4 12 9 9 4 -3 8 0 8 6 0 7 -9 14 -20 17 -11 3 -17 10
-14 15 3 5 12 7 20 4 7 -3 16 -1 19 4 11 18 15 10 9 -20z m206 20 c0 -5 -5
-10 -11 -10 -5 0 -7 5 -4 10 3 6 8 10 11 10 2 0 4 -4 4 -10z m2130 -21 c8 -14
7 -19 -2 -19 -24 0 -41 18 -35 35 8 19 22 13 37 -16z m560 15 c0 -8 -5 -12
-10 -9 -6 4 -8 11 -5 16 9 14 15 11 15 -7z m-5400 -10 c0 -8 -4 -12 -10 -9 -5
3 -10 10 -10 16 0 5 5 9 10 9 6 0 10 -7 10 -16z m974 0 c4 -10 1 -14 -6 -12
-15 5 -23 28 -10 28 5 0 13 -7 16 -16z m1196 -18 c0 -5 -7 -3 -15 4 -8 7 -12
17 -9 22 7 10 24 -9 24 -26z m380 14 c0 -17 -2 -19 -14 -8 -14 13 -12 28 5 28
5 0 9 -9 9 -20z m68 1 c3 -8 -1 -12 -9 -9 -7 2 -15 10 -17 17 -3 8 1 12 9 9 7
-2 15 -10 17 -17z m291 -2 c-16 -10 -23 -4 -14 10 3 6 11 8 17 5 6 -4 5 -9 -3
-15z m-3644 2 c3 -5 1 -12 -4 -15 -5 -3 -11 1 -15 9 -6 16 9 21 19 6z m1311
-28 c-5 -12 -10 -13 -18 -5 -8 8 -8 15 3 28 15 18 25 4 15 -23z m74 33 c0 -3
-4 -8 -10 -11 -5 -3 -10 -1 -10 4 0 6 5 11 10 11 6 0 10 -2 10 -4z m925 -6 c3
-5 1 -10 -4 -10 -6 0 -11 5 -11 10 0 6 2 10 4 10 3 0 8 -4 11 -10z m135 -16
c0 -8 -4 -14 -10 -14 -5 0 -10 9 -10 21 0 11 5 17 10 14 6 -3 10 -13 10 -21z
m280 16 c0 -5 -7 -10 -15 -10 -8 0 -15 5 -15 10 0 6 7 10 15 10 8 0 15 -4 15
-10z m-2085 -9 c3 -5 1 -12 -5 -16 -5 -3 -10 1 -10 9 0 18 6 21 15 7z m178 -6
c-3 -9 -8 -14 -10 -11 -3 3 -2 9 2 15 9 16 15 13 8 -4z m1727 -1 c0 -8 -5 -12
-10 -9 -6 4 -8 11 -5 16 9 14 15 11 15 -7z m70 1 c-14 -17 -45 -21 -35 -5 4 6
10 8 15 5 5 -3 11 -1 15 5 3 5 9 10 12 10 3 0 0 -7 -7 -15z m160 -7 c0 -19 -2
-20 -10 -8 -13 19 -13 30 0 30 6 0 10 -10 10 -22z m1260 -3 c25 -27 37 -65 20
-65 -6 0 -10 6 -10 13 0 8 -10 19 -23 26 -12 7 -23 21 -23 32 0 25 8 24 36 -6z
m-2198 -15 c-5 -13 -18 -24 -30 -25 -19 -1 -19 0 6 24 32 31 35 31 24 1z m404
-23 c1 -17 -1 -16 -24 6 -13 14 -21 30 -18 36 10 15 41 -16 42 -42z m1583 17
c29 -49 31 -76 6 -80 -16 -2 -24 7 -39 42 -30 72 -4 102 33 38z m966 17 c-3
-6 -11 -11 -16 -11 -5 0 -4 6 3 14 14 16 24 13 13 -3z m-2905 -1 c0 -5 -5 -10
-11 -10 -5 0 -7 5 -4 10 3 6 8 10 11 10 2 0 4 -4 4 -10z m-398 -17 c-23 -8
-43 -35 -38 -50 3 -8 1 -11 -4 -8 -19 12 -10 40 17 57 15 9 30 14 33 11 3 -3
-1 -8 -8 -10z m1353 -3 c3 -6 -1 -7 -9 -4 -18 7 -21 14 -7 14 6 0 13 -4 16
-10z m3815 -5 c0 -8 -4 -15 -10 -15 -5 0 -7 7 -4 15 4 8 8 15 10 15 2 0 4 -7
4 -15z m50 5 c0 -5 -8 -10 -17 -10 -15 0 -16 2 -3 10 19 12 20 12 20 0z
m-5165 -10 c8 7 12 5 12 -5 0 -9 -10 -15 -24 -15 -15 0 -23 6 -23 17 0 13 3
14 12 5 7 -7 16 -8 23 -2z m905 1 c0 -6 -4 -13 -10 -16 -5 -3 -10 1 -10 9 0 9
5 16 10 16 6 0 10 -4 10 -9z m360 1 c0 -5 -6 -9 -12 -9 -7 0 -22 -4 -33 -9
-18 -7 -18 -6 -6 9 14 17 51 24 51 9z m430 -34 c0 -9 -5 -20 -12 -24 -8 -5 -9
0 -6 14 4 15 3 20 -5 15 -22 -14 -39 -12 -33 4 3 8 6 18 6 23 0 4 11 3 25 -3
14 -7 25 -20 25 -29z m-1037 18 c4 -10 1 -13 -9 -9 -15 6 -19 23 -5 23 5 0 11
-7 14 -14z m2311 -1 c-4 -8 -12 -15 -20 -15 -17 0 -18 17 -1 23 22 9 27 7 21
-8z m546 -16 c0 -12 5 -19 13 -16 15 5 49 -32 40 -46 -3 -6 -1 -7 5 -3 8 5 12
-1 12 -14 0 -13 4 -19 11 -14 6 4 9 20 6 38 -4 24 -1 35 13 44 15 9 19 7 23
-16 3 -15 1 -29 -4 -30 -5 -2 -7 -7 -4 -12 3 -5 -5 -17 -18 -27 -13 -10 -23
-26 -21 -36 2 -14 -2 -16 -19 -11 -31 9 -67 33 -67 44 0 5 -12 20 -26 33 l-25
24 24 16 c19 12 24 22 20 38 -4 15 -3 20 5 15 7 -4 12 -16 12 -27z m90 15 c0
-8 -4 -12 -10 -9 -5 3 -10 10 -10 16 0 5 5 9 10 9 6 0 10 -7 10 -16z m-4670
-14 c0 -17 -3 -18 -25 -8 -27 12 -24 28 6 28 12 0 19 -7 19 -20z m1118 0 c-7
-11 -15 -15 -17 -9 -2 6 3 15 10 20 20 12 21 11 7 -11z m1012 10 c0 -5 -4 -10
-10 -10 -5 0 -10 5 -10 10 0 6 5 10 10 10 6 0 10 -4 10 -10z m240 -11 c0 -5
-4 -9 -10 -9 -5 0 -10 7 -10 16 0 8 5 12 10 9 6 -3 10 -10 10 -16z m660 11 c0
-5 -2 -10 -4 -10 -3 0 -8 5 -11 10 -3 6 -1 10 4 10 6 0 11 -4 11 -10z m-2510
-10 c0 -5 -2 -10 -4 -10 -3 0 -8 5 -11 10 -3 6 -1 10 4 10 6 0 11 -4 11 -10z
m866 -12 c2 -18 -16 -20 -28 -3 -13 17 -9 27 9 23 9 -2 17 -11 19 -20z m-926
-40 c0 -12 -7 -10 -29 8 -11 10 -17 23 -14 31 4 10 10 8 24 -8 11 -12 19 -26
19 -31z m1933 37 c-3 -9 -8 -14 -10 -11 -3 3 -2 9 2 15 9 16 15 13 8 -4z
m-1770 -47 c-2 -5 -10 -8 -18 -8 -14 0 -14 11 1 45 8 19 8 19 14 -5 4 -14 5
-28 3 -32z m1553 43 c8 13 43 -26 45 -51 0 -10 2 -11 6 -2 2 6 9 12 15 12 6 0
7 -7 4 -16 -5 -14 -4 -15 8 -5 9 8 16 8 20 2 4 -5 19 -8 34 -5 19 3 23 2 12
-5 -8 -5 -18 -7 -22 -5 -4 3 -8 -2 -8 -10 0 -9 -5 -16 -11 -16 -6 0 -9 7 -5
15 10 28 -9 15 -22 -15 -13 -28 -42 -42 -42 -19 0 5 5 7 12 3 8 -5 9 -2 5 10
-4 10 -7 23 -7 28 0 6 -3 8 -7 5 -3 -4 -13 -1 -21 6 -13 10 -15 9 -10 -4 4 -9
0 -28 -7 -43 -8 -15 -12 -33 -8 -41 3 -8 0 -15 -6 -15 -5 0 -15 19 -21 43 -6
23 -15 52 -20 64 -10 25 11 50 32 37 10 -5 11 -4 1 7 -18 18 -16 34 1 20 11
-9 16 -9 22 0z m1109 0 c3 -5 2 -12 -3 -15 -5 -3 -9 1 -9 9 0 17 3 19 12 6z
m845 5 c0 -3 -4 -8 -10 -11 -5 -3 -10 -1 -10 4 0 6 5 11 10 11 6 0 10 -2 10
-4z m1026 -17 c14 -16 15 -22 5 -28 -9 -6 -10 -11 -2 -15 21 -13 11 -28 -14
-24 -17 4 -29 0 -35 -11 -8 -12 -9 -9 -4 13 4 18 2 31 -6 36 -9 6 -9 12 -1 29
15 27 33 27 57 0z m-5696 7 c0 -3 -4 -8 -10 -11 -5 -3 -10 -1 -10 4 0 6 5 11
10 11 6 0 10 -2 10 -4z m1303 -13 c-7 -3 -11 -10 -9 -16 1 -7 1 -9 -1 -4 -3 4
-8 5 -13 2 -4 -3 -6 4 -3 14 3 13 10 18 21 13 10 -3 11 -7 5 -9z m1096 -20 c9
-6 19 -9 23 -7 10 7 10 24 1 23 -17 -3 -24 2 -18 12 5 7 13 4 26 -7 14 -13 16
-21 8 -36 -10 -18 -12 -19 -29 -3 -14 13 -19 13 -23 3 -4 -8 -6 -7 -6 5 -1 9
-8 17 -16 17 -8 0 -15 4 -15 9 0 14 24 20 29 7 2 -6 11 -16 20 -23z m658 -13
c-15 -21 -15 -21 -15 15 0 33 2 36 15 22 14 -14 14 -17 0 -37z m960 20 c13
-25 0 -55 -18 -44 -5 3 -8 0 -7 -7 2 -6 -3 -14 -9 -16 -7 -3 -13 0 -13 7 0 6
-4 8 -10 5 -5 -3 -10 0 -11 7 0 7 -2 22 -4 34 -3 14 3 25 18 32 29 14 40 10
54 -18z m1283 26 c0 -3 -4 -8 -10 -11 -5 -3 -10 -1 -10 4 0 6 5 11 10 11 6 0
10 -2 10 -4z m-4900 -16 c0 -5 -2 -10 -4 -10 -3 0 -8 5 -11 10 -3 6 -1 10 4
10 6 0 11 -4 11 -10z m1460 6 c0 -11 -19 -15 -25 -6 -3 5 1 10 9 10 9 0 16 -2
16 -4z m280 -29 c0 -8 -2 -9 -8 -1 -4 6 -15 10 -24 9 -11 -2 -15 2 -11 11 6
17 43 1 43 -19z m192 3 c3 -16 -1 -31 -7 -34 -7 -2 -11 8 -11 30 1 42 12 45
18 4z m258 20 c0 -5 -7 -10 -16 -10 -8 0 -12 5 -9 10 3 6 10 10 16 10 5 0 9
-4 9 -10z m3985 0 c3 -5 1 -10 -4 -10 -6 0 -11 5 -11 10 0 6 2 10 4 10 3 0 8
-4 11 -10z m290 0 c-3 -5 -12 -10 -18 -10 -7 0 -6 4 3 10 19 12 23 12 15 0z
m-5352 -53 c-3 -4 -11 0 -17 9 -9 12 -15 14 -20 6 -4 -7 -12 -12 -19 -12 -6 0
-3 6 8 13 12 9 15 19 10 28 -5 8 3 3 17 -11 15 -13 24 -28 21 -33z m62 43 c-3
-5 -12 -10 -18 -10 -7 0 -6 4 3 10 19 12 23 12 15 0z m209 2 c3 -5 -1 -9 -9
-9 -8 0 -15 4 -15 9 0 4 4 8 9 8 6 0 12 -4 15 -8z m486 -36 c0 -8 -3 -8 -8 0
-4 6 -16 14 -27 18 -16 6 -17 9 -5 16 15 10 40 -12 40 -34z m1945 34 c3 -6 -1
-7 -9 -4 -18 7 -21 14 -7 14 6 0 13 -4 16 -10z m2954 -11 c-16 -10 -23 -4 -14
10 3 6 11 8 17 5 6 -4 5 -9 -3 -15z m-7671 -14 c-3 -3 -9 2 -12 12 -6 14 -5
15 5 6 7 -7 10 -15 7 -18z m975 0 c-3 -8 0 -15 6 -15 6 0 11 -5 11 -11 0 -8
-5 -8 -15 1 -16 13 -21 55 -5 45 5 -3 7 -12 3 -20z m877 16 c0 -5 -9 -7 -20
-4 -11 3 -20 7 -20 9 0 2 9 4 20 4 11 0 20 -4 20 -9z m1112 -13 c-7 -7 -12 -8
-12 -2 0 6 3 14 7 17 3 4 9 5 12 2 2 -3 -1 -11 -7 -17z m791 -3 c-7 -19 -33
-20 -33 -1 0 15 20 26 32 19 4 -2 5 -10 1 -18z m2237 15 c0 -5 -5 -10 -11 -10
-5 0 -7 5 -4 10 3 6 8 10 11 10 2 0 4 -4 4 -10z m-3812 -25 c-3 -3 -13 -2 -22
1 -14 5 -15 9 -4 15 13 8 36 -6 26 -16z m362 -1 c0 -8 -7 -14 -15 -14 -15 0
-21 21 -9 33 10 9 24 -2 24 -19z m495 16 c3 -6 -1 -7 -9 -4 -18 7 -21 14 -7
14 6 0 13 -4 16 -10z m97 -12 c-6 -6 -16 -7 -22 -3 -9 6 -9 9 1 16 17 10 34 0
21 -13z m3629 -1 c14 4 19 0 19 -14 0 -11 -3 -22 -6 -26 -9 -9 -53 46 -46 58
4 6 8 3 10 -6 2 -11 10 -15 23 -12z m329 19 c0 -3 -4 -8 -10 -11 -5 -3 -10 -1
-10 4 0 6 5 11 10 11 6 0 10 -2 10 -4z m396 -31 c-15 -15 -16 -15 -16 3 0 10
3 22 7 26 4 3 11 2 16 -3 6 -6 4 -16 -7 -26z m110 19 c-3 -9 -6 -19 -6 -23 0
-4 -9 -7 -21 -7 l-21 0 21 17 c11 9 17 19 14 23 -4 3 -1 6 6 6 8 0 11 -6 7
-16z m31 -16 c-15 -9 -19 -4 -11 16 5 14 9 15 15 5 5 -8 3 -17 -4 -21z m-7651
10 c4 -7 4 -10 -1 -6 -4 4 -14 3 -21 -3 -8 -7 -14 -6 -20 2 -4 7 -3 9 4 5 6
-3 13 -2 17 4 8 13 12 13 21 -2z m429 2 c3 -5 1 -10 -4 -10 -6 0 -11 5 -11 10
0 6 2 10 4 10 3 0 8 -4 11 -10z m1682 -12 c-3 -8 -6 -5 -6 6 -1 11 2 17 5 13
3 -3 4 -12 1 -19z m598 13 c10 -17 -12 -21 -25 -6 -10 12 -10 15 3 15 9 0 18
-4 22 -9z m390 -41 c3 -5 -1 -10 -10 -10 -12 0 -14 -4 -6 -19 9 -16 8 -18 -9
-14 -22 6 -26 -7 -8 -25 8 -8 17 -8 32 0 12 6 18 7 14 3 -4 -4 0 -13 8 -20 14
-10 11 -11 -19 -11 -26 1 -39 7 -48 23 -6 12 -20 24 -30 26 -19 5 -24 32 -13
73 6 21 6 21 44 3 21 -10 42 -23 45 -29z m719 29 c-3 -5 -10 -7 -15 -3 -5 3
-7 10 -3 15 3 5 10 7 15 3 5 -3 7 -10 3 -15z m266 12 c0 -5 -6 -13 -13 -19
-10 -8 -13 -6 -14 9 -1 10 5 19 13 19 8 0 14 -4 14 -9z m1356 -18 c-9 -38 -44
-67 -62 -52 -8 6 -14 16 -14 22 0 18 43 57 63 57 16 0 18 -5 13 -27z m-4273
10 c-7 -2 -19 -2 -25 0 -7 3 -2 5 12 5 14 0 19 -2 13 -5z m41 -2 c3 -5 -1 -11
-9 -15 -9 -3 -15 0 -15 9 0 16 16 20 24 6z m1296 -1 c0 -5 -4 -10 -10 -10 -5
0 -10 5 -10 10 0 6 5 10 10 10 6 0 10 -4 10 -10z m105 0 c-3 -5 -12 -7 -20 -3
-21 7 -19 13 6 13 11 0 18 -4 14 -10z m502 -4 c0 -11 -5 -13 -19 -5 -10 5 -18
12 -18 14 0 3 8 5 18 5 10 0 19 -7 19 -14z m336 -1 c-3 -9 -8 -14 -10 -11 -3
3 -2 9 2 15 9 16 15 13 8 -4z m2422 5 c3 -5 1 -10 -4 -10 -6 0 -11 5 -11 10 0
6 2 10 4 10 3 0 8 -4 11 -10z m1672 -12 c-3 -8 -6 -5 -6 6 -1 11 2 17 5 13 3
-3 4 -12 1 -19z m-7162 2 c3 -5 1 -10 -4 -10 -6 0 -11 5 -11 10 0 6 2 10 4 10
3 0 8 -4 11 -10z m1569 -5 c-4 -8 -8 -15 -10 -15 -2 0 -4 7 -4 15 0 8 4 15 10
15 5 0 7 -7 4 -15z m316 5 c0 -5 -2 -10 -4 -10 -3 0 -8 5 -11 10 -3 6 -1 10 4
10 6 0 11 -4 11 -10z m-2514 -28 c-17 -16 -18 -16 -5 5 7 12 15 20 18 17 3 -2
-3 -12 -13 -22z m2461 22 c-3 -3 -12 -4 -19 -1 -8 3 -5 6 6 6 11 1 17 -2 13
-5z m180 -16 c-3 -8 -6 -5 -6 6 -1 11 2 17 5 13 3 -3 4 -12 1 -19z m528 12
c-2 -3 0 -12 5 -19 11 -19 41 -6 34 14 -4 11 0 15 15 15 19 0 20 -2 10 -22 -7
-13 -25 -35 -41 -50 -25 -23 -28 -24 -28 -7 0 10 5 19 11 19 5 0 7 5 4 10 -5
8 -11 8 -20 0 -9 -7 -16 -6 -24 3 -6 8 -8 17 -4 20 3 4 1 7 -6 7 -7 0 -10 4
-7 9 3 5 17 8 30 7 13 0 23 -3 21 -6z m265 -34 c6 -27 5 -36 -5 -36 -18 0 -32
23 -17 28 8 2 10 14 6 30 -4 15 -4 24 0 20 4 -3 11 -23 16 -42z m3940 39 c0
-7 -30 -13 -34 -7 -3 4 4 9 15 9 10 1 19 0 19 -2z m-6646 -26 c-3 -5 -10 -7
-15 -3 -5 3 -7 10 -3 15 3 5 10 7 15 3 5 -3 7 -10 3 -15z m2256 10 c0 -5 -7
-9 -15 -9 -18 0 -37 -34 -29 -54 8 -22 -6 -42 -17 -25 -7 12 -9 11 -9 -1 -1
-8 -6 -4 -11 10 -8 20 -12 22 -19 10 -7 -12 -10 -11 -16 4 -9 23 17 42 29 20
7 -12 12 -13 23 -3 11 9 12 15 2 26 -8 10 -9 16 -1 21 17 11 63 11 63 1z
m-981 -32 c0 -21 -1 -21 -9 -2 -12 28 -12 37 0 30 6 -3 10 -16 9 -28z m1634
18 c-3 -9 -8 -14 -10 -11 -3 3 -2 9 2 15 9 16 15 13 8 -4z m2941 -6 c-3 -5
-10 -7 -15 -3 -5 3 -7 10 -3 15 3 5 10 7 15 3 5 -3 7 -10 3 -15z m98 -1 c-7
-7 -12 -8 -12 -2 0 14 12 26 19 19 2 -3 -1 -11 -7 -17z m76 10 c7 -7 12 -20
12 -31 0 -16 -5 -18 -32 -12 -39 8 -54 20 -39 29 6 4 11 2 11 -5 0 -8 4 -8 15
1 8 7 12 16 9 21 -8 13 10 11 24 -3z m1082 8 c0 -2 -7 -7 -16 -10 -8 -3 -12
-2 -9 4 6 10 25 14 25 6z m111 -19 c-10 -9 -11 -8 -5 6 3 10 9 15 12 12 3 -3
0 -11 -7 -18z m-6996 -5 c-3 -3 -11 0 -18 7 -9 10 -8 11 6 5 10 -3 15 -9 12
-12z m2148 -37 c-27 -20 -34 -8 -15 25 16 28 17 28 25 8 5 -15 2 -24 -10 -33z
m-88 24 c-4 -5 -2 -9 3 -9 6 0 12 7 16 15 3 8 12 15 21 15 20 0 19 -5 -8 -34
-18 -19 -26 -23 -35 -14 -15 15 -16 52 -2 43 6 -4 8 -11 5 -16z m3524 12 c11
-7 10 -11 -7 -20 -28 -15 -32 -14 -32 9 0 21 16 26 39 11z m-4214 -10 c3 -5 1
-12 -5 -16 -5 -3 -10 1 -10 9 0 18 6 21 15 7z m1070 -1 c3 -5 2 -10 -4 -10 -5
0 -13 5 -16 10 -3 6 -2 10 4 10 5 0 13 -4 16 -10z m1285 6 c0 -2 -7 -7 -16
-10 -8 -3 -12 -2 -9 4 6 10 25 14 25 6z m944 -11 c-4 -8 -8 -15 -10 -15 -2 0
-4 7 -4 15 0 8 4 15 10 15 5 0 7 -7 4 -15z m418 -20 c14 -19 8 -65 -11 -81
-11 -10 -16 -24 -14 -35 6 -23 -13 -25 -36 -5 -62 56 -72 68 -69 84 2 10 13
17 25 17 12 0 32 12 45 26 23 26 38 25 60 -6z m-4542 9 c0 -8 -5 -12 -10 -9
-6 4 -8 11 -5 16 9 14 15 11 15 -7z m1473 2 c4 -10 1 -13 -8 -9 -8 3 -12 9 -9
14 7 12 11 11 17 -5z m1808 1 c-1 -12 -15 -9 -19 4 -3 6 1 10 8 8 6 -3 11 -8
11 -12z m-3721 -7 c0 -5 -4 -10 -10 -10 -5 0 -10 5 -10 10 0 6 5 10 10 10 6 0
10 -4 10 -10z m1290 -6 c0 -8 -5 -12 -10 -9 -6 4 -8 11 -5 16 9 14 15 11 15
-7z m214 1 c-4 -8 -11 -15 -16 -15 -6 0 -5 6 2 15 7 8 14 15 16 15 2 0 1 -7
-2 -15z m1002 0 c-1 -9 -6 -15 -9 -15 -4 0 -15 -6 -23 -15 -18 -18 -34 -11
-34 13 0 14 2 14 9 3 7 -11 11 -9 20 8 13 24 40 29 37 6z m442 -10 c12 -26 4
-33 -16 -13 -9 9 -12 9 -12 -2 -1 -11 -3 -10 -11 3 -5 9 -7 22 -4 27 11 18 32
11 43 -15z m-3188 5 c0 -5 -5 -10 -11 -10 -5 0 -7 5 -4 10 3 6 8 10 11 10 2 0
4 -4 4 -10z m724 4 c24 -9 19 -24 -8 -22 -15 1 -22 7 -19 15 6 15 6 15 27 7z
m414 -18 c3 -12 -2 -16 -14 -14 -11 2 -23 -7 -31 -22 -12 -24 -13 -24 -13 -3
0 12 -8 27 -17 32 -17 10 -16 11 2 12 11 1 26 2 33 2 6 -1 12 4 12 9 0 16 25
2 28 -16z m1706 -16 c-6 -5 -24 21 -24 34 0 6 6 1 14 -10 8 -10 12 -21 10 -24z
m186 31 c0 -6 -4 -13 -10 -16 -5 -3 -10 1 -10 9 0 9 5 16 10 16 6 0 10 -4 10
-9z m77 -6 c8 -22 -6 -33 -17 -15 -13 20 -12 30 0 30 6 0 13 -7 17 -15z m2288
4 c11 -17 -1 -21 -15 -4 -8 9 -8 15 -2 15 6 0 14 -5 17 -11z m735 1 c0 -5 -4
-10 -9 -10 -6 0 -13 5 -16 10 -3 6 1 10 9 10 9 0 16 -4 16 -10z m-4084 -16
c-3 -9 -6 -18 -6 -20 0 -2 -4 -4 -9 -4 -5 0 -7 9 -4 20 3 11 10 20 15 20 6 0
7 -7 4 -16z m194 1 c0 -8 -4 -15 -10 -15 -5 0 -10 7 -10 15 0 8 5 15 10 15 6
0 10 -7 10 -15z m-2937 -2 c-7 -2 -19 -2 -25 0 -7 3 -2 5 12 5 14 0 19 -2 13
-5z m2857 -3 c0 -5 -2 -10 -4 -10 -3 0 -8 5 -11 10 -3 6 -1 10 4 10 6 0 11 -4
11 -10z m-1784 -27 c-10 -10 -19 5 -10 18 6 11 8 11 12 0 2 -7 1 -15 -2 -18z
m1974 23 c0 -3 -4 -8 -10 -11 -5 -3 -10 -1 -10 4 0 6 5 11 10 11 6 0 10 -2 10
-4z m270 -2 c0 -3 -6 -12 -14 -19 -17 -18 -29 -8 -13 11 12 14 27 18 27 8z
m128 -14 c-12 -19 -28 -27 -28 -14 0 6 30 33 38 34 1 0 -3 -9 -10 -20z m192
-36 c-7 -7 -16 -14 -21 -14 -15 0 -10 29 9 48 16 17 17 17 20 -1 2 -10 -2 -25
-8 -33z m921 33 c-10 -9 -11 -8 -5 6 3 10 9 15 12 12 3 -3 0 -11 -7 -18z
m2239 2 c0 -5 -4 -9 -10 -9 -5 0 -10 7 -10 16 0 8 5 12 10 9 6 -3 10 -10 10
-16z m-4803 -33 c-2 -5 -16 -10 -32 -12 -22 -2 -26 -1 -15 6 8 5 11 10 7 10
-4 0 -2 10 4 22 11 21 12 21 25 3 8 -11 13 -23 11 -29z m1127 35 c3 -5 -1 -11
-9 -15 -8 -3 -15 -13 -15 -21 0 -23 -27 -49 -33 -32 -4 9 -8 9 -15 -2 -9 -12
-13 -12 -26 -2 -13 11 -16 11 -17 0 0 -10 -2 -10 -5 -2 -3 7 -12 9 -21 6 -11
-4 -14 -2 -11 8 3 9 19 14 44 14 53 1 76 13 69 36 -5 14 -1 19 14 19 11 0 22
-4 25 -9z m2976 -12 c0 -5 -9 -9 -20 -9 -11 0 -20 6 -20 14 0 9 7 12 20 9 11
-3 20 -9 20 -14z m805 11 c-3 -5 -1 -10 4 -10 6 0 11 -7 11 -15 0 -8 -7 -15
-15 -15 -9 0 -15 9 -15 25 0 14 5 25 11 25 5 0 7 -4 4 -10z m-5055 -57 c0 -10
-6 -13 -16 -9 -9 3 -18 6 -20 6 -2 0 -4 4 -4 10 0 5 7 7 16 3 15 -5 15 -3 -1
23 l-17 29 21 -24 c12 -13 21 -30 21 -38z m293 37 c-5 -19 -23 -29 -23 -12 0
7 20 32 26 32 1 0 0 -9 -3 -20z m557 -9 c-1 -14 -2 -14 -14 1 -7 10 -17 14
-21 10 -5 -4 -5 -2 -1 5 9 16 36 5 36 -16z m3330 14 c0 -8 -4 -15 -10 -15 -5
0 -7 7 -4 15 4 8 8 15 10 15 2 0 4 -7 4 -15z m470 5 c0 -5 -8 -10 -17 -10 -15
0 -16 2 -3 10 19 12 20 12 20 0z m490 0 c0 -5 -4 -10 -10 -10 -5 0 -10 5 -10
10 0 6 5 10 10 10 6 0 10 -4 10 -10z m97 4 c-3 -3 -12 -4 -19 -1 -8 3 -5 6 6
6 11 1 17 -2 13 -5z m703 -5 c25 -9 25 -9 -2 -5 -16 2 -28 -1 -28 -6 0 -5 -4
-6 -10 -3 -14 9 -12 25 3 24 6 -1 23 -5 37 -10z m-7806 -14 c-4 -8 -11 -12
-16 -9 -6 4 -5 10 3 15 19 12 19 11 13 -6z m4482 -13 c-18 -16 -18 -16 -6 6 6
13 14 21 18 18 3 -4 -2 -14 -12 -24z m552 3 c-3 -28 -11 -24 -13 5 -1 11 2 20
7 20 4 0 7 -11 6 -25z m1357 -43 c-10 -26 -32 5 -27 38 l4 31 15 -27 c7 -15
11 -34 8 -42z m337 36 c-6 -6 -16 -8 -22 -6 -9 3 -7 9 6 22 13 13 19 15 22 6
2 -6 0 -16 -6 -22z m-4448 6 c9 -24 7 -28 -9 -14 -17 14 -20 30 -6 30 5 0 12
-7 15 -16z m215 -12 c19 -27 19 -28 1 -29 -24 -2 -42 20 -34 41 8 21 9 21 33
-12z m707 3 c1 -8 -2 -13 -7 -9 -5 3 -9 12 -9 21 0 19 13 9 16 -12z m309 4
c-7 -20 -5 -21 21 -15 23 6 27 5 17 -5 -16 -16 -17 -29 -2 -29 5 0 8 4 5 8 -2
4 4 13 15 20 26 16 24 -2 -2 -27 -12 -11 -19 -26 -16 -35 3 -9 2 -18 -4 -21
-5 -4 -7 -10 -4 -15 8 -12 -6 -41 -16 -34 -5 3 -9 17 -10 32 l0 27 -10 -24
c-7 -17 -13 -21 -20 -14 -12 12 4 53 20 53 5 0 11 9 14 19 5 22 -14 34 -40 24
-17 -6 -17 -5 0 14 9 11 17 25 17 31 0 7 5 12 11 12 6 0 8 -9 4 -21z m100 11
c-3 -5 -10 -10 -16 -10 -5 0 -9 5 -9 10 0 6 7 10 16 10 8 0 12 -4 9 -10z
m1653 -9 c3 -8 -1 -12 -9 -9 -7 2 -15 10 -17 17 -3 8 1 12 9 9 7 -2 15 -10 17
-17z m262 15 c0 -2 -7 -9 -15 -16 -13 -11 -14 -10 -9 4 5 14 24 23 24 12z
m-4562 -16 c6 0 12 -9 12 -19 0 -11 5 -23 10 -26 11 -7 4 -25 -10 -25 -11 0
-70 62 -70 74 0 4 10 6 23 2 12 -3 28 -6 35 -6z m331 -12 c13 -21 13 -22 -3
-9 -15 13 -19 13 -27 0 -10 -16 -12 -8 -3 15 8 22 17 20 33 -6z m181 18 c0 -3
-4 -8 -10 -11 -5 -3 -10 -1 -10 4 0 6 5 11 10 11 6 0 10 -2 10 -4z m559 -50
c-9 -8 -10 -7 -5 7 3 10 7 26 7 35 1 9 4 6 6 -7 3 -13 -1 -28 -8 -35z m161 34
c0 -5 -7 -7 -15 -4 -8 4 -12 10 -9 15 6 11 24 2 24 -11z m690 10 c0 -5 -2 -10
-4 -10 -3 0 -8 5 -11 10 -3 6 -1 10 4 10 6 0 11 -4 11 -10z m60 -7 c0 -2 -5
-13 -10 -24 -14 -25 -30 -24 -30 1 0 11 5 20 11 20 5 0 7 4 4 10 -3 6 1 7 9 4
9 -3 16 -8 16 -11z m360 7 c0 -5 -5 -10 -11 -10 -5 0 -7 5 -4 10 3 6 8 10 11
10 2 0 4 -4 4 -10z m1810 -20 c0 -20 -5 -30 -15 -30 -9 0 -12 6 -8 16 5 13 1
15 -18 10 l-24 -7 24 20 c32 28 41 26 41 -9z m2640 14 c0 -2 -7 -4 -15 -4 -8
0 -15 4 -15 10 0 5 7 7 15 4 8 -4 15 -8 15 -10z m50 1 c0 -8 -7 -15 -15 -15
-13 0 -14 3 -3 15 16 18 18 18 18 0z m-5880 -23 c-6 -2 -8 -8 -4 -13 7 -12
-17 -11 -36 1 -10 6 -11 10 -2 10 6 0 12 7 12 15 0 13 3 13 20 3 11 -7 16 -14
10 -16z m502 -4 c-7 -7 -12 -8 -12 -4 0 5 -8 2 -17 -5 -15 -12 -16 -12 -8 1
19 34 28 41 39 30 7 -7 6 -14 -2 -22z m721 17 c-3 -9 -8 -14 -10 -11 -3 3 -2
9 2 15 9 16 15 13 8 -4z m97 5 c0 -5 -2 -10 -4 -10 -3 0 -8 5 -11 10 -3 6 -1
10 4 10 6 0 11 -4 11 -10z m764 -1 c-5 -8 1 -10 19 -7 19 4 24 1 19 -10 -3
-10 -1 -13 6 -8 7 4 12 14 12 22 0 8 5 14 10 14 13 0 12 -11 -3 -32 -8 -10
-26 -16 -48 -16 -19 1 -28 3 -21 6 10 3 9 8 -4 23 -16 18 -16 19 0 19 10 0 14
-5 10 -11z m-3758 -10 c3 -6 2 -15 -4 -21 -7 -7 -14 -3 -21 11 -10 17 -9 21 3
21 8 0 18 -5 22 -11z m589 1 c3 -5 0 -10 -8 -10 -13 0 -32 -26 -29 -40 0 -3
-16 -5 -35 -6 l-36 -1 37 21 c19 12 36 27 36 34 0 14 26 16 35 2z m2575 -6 c0
-8 -4 -12 -10 -9 -5 3 -10 10 -10 16 0 5 5 9 10 9 6 0 10 -7 10 -16z m3016
-11 c-10 -11 -19 -7 -22 10 -2 15 0 16 12 6 8 -6 12 -14 10 -16z m1109 17 c-3
-5 -12 -10 -18 -10 -7 0 -6 4 3 10 19 12 23 12 15 0z m-6644 -27 c-4 -9 -6
-25 -3 -37 3 -12 2 -18 -2 -15 -8 7 -15 67 -8 73 11 11 22 -6 13 -21z m-817 2
c4 -13 2 -14 -14 -5 -23 13 -26 20 -6 20 8 0 16 -7 20 -15z m383 9 c-3 -3 -12
-4 -19 -1 -8 3 -5 6 6 6 11 1 17 -2 13 -5z m2098 -4 c3 -5 1 -10 -4 -10 -6 0
-11 5 -11 10 0 6 2 10 4 10 3 0 8 -4 11 -10z m111 -30 c24 0 22 -15 -2 -16
-14 -1 -21 2 -18 8 4 6 -2 8 -15 3 -20 -6 -20 -5 -9 20 12 27 12 27 22 6 5
-12 15 -21 22 -21z m114 19 c0 -4 -7 -6 -15 -3 -8 4 -15 10 -15 15 0 4 7 6 15
3 8 -4 15 -10 15 -15z m184 13 c3 -5 -1 -9 -9 -9 -8 0 -15 4 -15 9 0 4 4 8 9
8 6 0 12 -4 15 -8z m1244 2 c12 -4 22 -11 22 -16 0 -6 -7 -7 -16 -4 -12 4 -15
2 -10 -9 3 -8 1 -15 -3 -15 -14 0 -22 30 -8 31 7 0 3 4 -8 9 -23 10 -10 12 23
4z m762 1 c0 -2 -10 -10 -22 -16 -21 -11 -22 -11 -9 4 13 16 31 23 31 12z
m2250 -4 c0 -12 -28 -22 -34 -12 -3 5 -3 11 1 15 9 9 33 7 33 -3z m50 -6 c9 5
11 4 6 -3 -11 -18 -36 -14 -36 6 0 13 2 14 9 3 5 -8 14 -10 21 -6z m560 5 c0
-5 -4 -10 -10 -10 -5 0 -10 5 -10 10 0 6 5 10 10 10 6 0 10 -4 10 -10z m-6970
-10 c0 -5 -7 -7 -15 -4 -8 4 -15 1 -15 -7 0 -7 -3 -10 -6 -6 -9 9 5 27 22 27
8 0 14 -4 14 -10z m1226 -1 c5 -8 9 -8 14 1 5 8 9 7 13 -4 4 -10 1 -16 -9 -16
-8 0 -13 -4 -9 -9 3 -5 1 -12 -5 -16 -5 -3 -10 2 -10 12 0 14 -2 15 -9 5 -6
-11 -9 -9 -14 7 -7 29 14 44 29 20z m145 -6 c13 -15 12 -15 -8 -4 -24 12 -29
21 -14 21 5 0 15 -7 22 -17z m459 13 c0 -3 -4 -8 -10 -11 -5 -3 -10 -1 -10 4
0 6 5 11 10 11 6 0 10 -2 10 -4z m585 -6 c3 -5 -3 -10 -15 -10 -12 0 -18 5
-15 10 3 6 10 10 15 10 5 0 12 -4 15 -10z m575 6 c0 -3 -4 -8 -10 -11 -5 -3
-10 -1 -10 4 0 6 5 11 10 11 6 0 10 -2 10 -4z m1056 -23 c-10 -10 -19 5 -10
18 6 11 8 11 12 0 2 -7 1 -15 -2 -18z m559 17 c3 -5 1 -10 -4 -10 -6 0 -11 5
-11 10 0 6 2 10 4 10 3 0 8 -4 11 -10z m479 -6 c3 -8 2 -12 -4 -9 -6 3 -10 10
-10 16 0 14 7 11 14 -7z m1456 -16 c0 -5 -9 -4 -20 2 -11 6 -18 15 -14 21 6
11 34 -7 34 -23z m90 12 c-24 -15 -36 -11 -14 4 10 8 21 12 24 10 2 -3 -2 -9
-10 -14z m-7375 0 c3 -5 2 -10 -4 -10 -5 0 -13 5 -16 10 -3 6 -2 10 4 10 5 0
13 -4 16 -10z m65 -5 c0 -2 -6 -5 -13 -8 -8 -3 -14 1 -14 8 0 7 6 11 14 8 7
-3 13 -6 13 -8z m1280 5 c0 -5 -4 -10 -10 -10 -5 0 -10 5 -10 10 0 6 5 10 10
10 6 0 10 -4 10 -10z m436 -5 c4 -8 10 -15 16 -15 5 0 6 5 2 12 -5 7 -3 8 5 3
8 -5 9 -11 3 -17 -10 -10 -52 10 -52 24 0 14 20 8 26 -7z m588 0 c3 -9 0 -15
-9 -15 -9 0 -12 6 -9 15 4 8 7 15 9 15 2 0 5 -7 9 -15z m1183 -4 c0 -11 -5
-17 -10 -14 -4 3 -15 -3 -22 -13 -15 -20 -18 -12 -9 24 8 28 43 31 41 3z
m2698 9 c3 -5 1 -10 -4 -10 -6 0 -11 5 -11 10 0 6 2 10 4 10 3 0 8 -4 11 -10z
m726 -13 c-10 -9 -11 -8 -5 6 3 10 9 15 12 12 3 -3 0 -11 -7 -18z m-5711 3 c0
-5 -2 -10 -4 -10 -3 0 -8 5 -11 10 -3 6 -1 10 4 10 6 0 11 -4 11 -10z m1167
-7 c2 -5 -4 -16 -14 -24 -16 -13 -17 -12 -4 4 12 15 11 17 -3 17 -9 0 -16 4
-16 9 0 12 33 7 37 -6z m603 -9 c0 -14 -4 -23 -9 -20 -7 5 -8 23 -2 44 4 12
11 -3 11 -24z m280 1 c-14 -17 -75 -21 -65 -5 4 6 11 8 16 5 5 -4 9 -1 9 5 0
7 8 9 20 5 13 -4 20 -2 20 6 0 7 3 9 6 6 4 -4 1 -13 -6 -22z m570 15 c-8 -5
-19 -10 -25 -10 -5 0 -3 5 5 10 8 5 20 10 25 10 6 0 3 -5 -5 -10z m1260 -10
c6 -11 7 -20 2 -20 -6 0 -12 9 -15 20 -3 11 -3 20 -1 20 2 0 8 -9 14 -20z
m1009 3 c-7 -8 -15 -10 -18 -6 -4 4 -10 11 -14 14 -4 4 4 7 18 7 21 0 23 -3
14 -15z m866 7 c3 -5 -1 -10 -10 -10 -9 0 -13 5 -10 10 3 6 8 10 10 10 2 0 7
-4 10 -10z m-7048 -15 c0 -8 -4 -12 -9 -9 -5 3 -6 10 -3 15 9 13 12 11 12 -6z
m123 6 c0 -6 -4 -13 -10 -16 -5 -3 -10 1 -10 9 0 9 5 16 10 16 6 0 10 -4 10
-9z m3020 -2 c0 -5 5 -7 12 -3 7 4 8 3 4 -5 -8 -13 -66 -11 -66 2 0 5 10 5 21
2 15 -5 19 -4 15 4 -4 6 -2 11 3 11 6 0 11 -5 11 -11z m640 1 c0 -5 -2 -10 -4
-10 -3 0 -8 5 -11 10 -3 6 -1 10 4 10 6 0 11 -4 11 -10z m87 4 c-3 -3 -12 -4
-19 -1 -8 3 -5 6 6 6 11 1 17 -2 13 -5z m318 -6 c4 -3 2 -9 -3 -12 -5 -3 -15
1 -21 8 -10 11 -9 14 3 12 9 -1 18 -5 21 -8z m321 -3 c-8 -8 -18 -15 -22 -15
-3 0 -1 7 6 15 7 8 17 15 22 15 5 0 3 -7 -6 -15z m104 5 c0 -5 -5 -10 -11 -10
-5 0 -7 5 -4 10 3 6 8 10 11 10 2 0 4 -4 4 -10z m1650 -20 c0 -15 -5 -12 -26
11 -19 22 -19 22 4 10 12 -6 22 -16 22 -21z m58 18 c-2 -6 -10 -14 -16 -16 -7
-2 -10 2 -6 12 7 18 28 22 22 4z m-5938 -8 c0 -5 -2 -10 -4 -10 -3 0 -8 5 -11
10 -3 6 -1 10 4 10 6 0 11 -4 11 -10z m1502 -22 c-2 -15 -8 -25 -13 -22 -5 3
-7 9 -4 14 3 5 1 11 -5 15 -16 10 -11 24 8 22 14 -1 17 -7 14 -29z m3238 22
c0 -5 -2 -10 -4 -10 -3 0 -8 5 -11 10 -3 6 -1 10 4 10 6 0 11 -4 11 -10z
m-4770 -4 c0 -3 -4 -8 -10 -11 -5 -3 -10 -1 -10 4 0 6 5 11 10 11 6 0 10 -2
10 -4z m1950 -6 c0 -5 -7 -10 -16 -10 -8 0 -12 5 -9 10 3 6 10 10 16 10 5 0 9
-4 9 -10z m240 6 c0 -2 -7 -6 -15 -10 -8 -3 -15 -1 -15 4 0 6 7 10 15 10 8 0
15 -2 15 -4z m1896 -23 c4 -13 10 -20 15 -17 5 3 7 10 4 15 -4 5 -1 9 4 9 6 0
11 -2 11 -4 0 -2 3 -11 6 -20 4 -11 1 -16 -10 -16 -9 0 -16 -7 -16 -15 0 -11
-8 -14 -35 -9 -38 6 -41 3 -23 -25 9 -15 8 -23 -9 -44 -18 -24 -22 -25 -41
-11 -19 13 -23 13 -34 -6 -14 -22 -43 -27 -53 -9 -10 15 16 100 32 106 7 3 13
11 13 18 0 6 9 20 20 30 11 10 20 15 20 11 0 -4 8 -2 18 3 30 18 72 9 78 -16z
m-4391 7 c-3 -5 -11 -10 -16 -10 -6 0 -7 5 -4 10 3 6 11 10 16 10 6 0 7 -4 4
-10z m360 1 c3 -5 1 -12 -5 -16 -5 -3 -10 1 -10 9 0 18 6 21 15 7z m35 -1 c0
-5 -4 -10 -10 -10 -5 0 -10 5 -10 10 0 6 5 10 10 10 6 0 10 -4 10 -10z m45 0
c3 -5 1 -10 -4 -10 -6 0 -11 5 -11 10 0 6 2 10 4 10 3 0 8 -4 11 -10z m1425 0
c0 -5 -2 -10 -4 -10 -3 0 -8 5 -11 10 -3 6 -1 10 4 10 6 0 11 -4 11 -10z m483
-8 c-10 -10 -20 -17 -22 -16 -6 5 20 34 30 34 5 0 1 -8 -8 -18z m792 4 c-10
-7 -19 -22 -20 -32 -1 -10 -8 -32 -16 -49 l-13 -30 -4 28 c-2 16 -10 31 -18
34 -21 8 -17 23 6 23 12 0 17 -5 14 -14 -3 -8 -1 -17 4 -20 5 -3 10 6 10 21 0
15 5 29 11 31 6 2 9 8 5 13 -3 5 5 9 17 9 22 0 22 -1 4 -14z m995 -14 c0 -8
-1 -13 -3 -11 -1 2 -9 12 -16 22 -12 15 -12 17 3 11 9 -3 16 -13 16 -22z
m1230 24 c0 -2 -8 -10 -17 -17 -16 -13 -17 -12 -4 4 13 16 21 21 21 13z m2040
-17 c0 -5 -7 -9 -15 -9 -9 0 -12 6 -9 15 6 15 24 11 24 -6z m-5343 -11 c-3 -8
-6 -5 -6 6 -1 11 2 17 5 13 3 -3 4 -12 1 -19z m-1517 -7 c-5 -11 -7 -27 -4
-35 4 -11 0 -16 -12 -16 -15 0 -16 2 -5 9 9 6 10 11 2 15 -7 4 -4 13 7 26 21
25 26 25 12 1z m50 -30 c-1 -13 -4 -12 -15 3 -8 11 -15 27 -15 35 1 13 4 12
15 -3 8 -11 15 -27 15 -35z m2309 13 c-12 -13 -25 -22 -27 -19 -9 8 29 56 39
49 6 -4 2 -15 -12 -30z m340 -6 c1 -5 -3 -8 -9 -8 -5 0 -10 12 -9 28 0 24 1
25 9 7 5 -11 9 -23 9 -27z m1375 19 c13 -21 -8 -69 -28 -61 -14 5 -26 50 -19
71 6 16 35 9 47 -10z m241 11 c18 1 17 -1 -4 -12 -20 -11 -27 -11 -38 -1 -18
19 -16 28 5 20 9 -4 26 -7 37 -7z m625 -24 c0 -8 -6 -11 -15 -8 -8 4 -15 15
-15 26 0 17 3 18 15 8 8 -7 15 -19 15 -26z m-3839 -21 c5 -14 17 -23 29 -23
11 0 20 -4 20 -9 0 -13 -34 -8 -43 7 -6 8 -18 11 -32 8 -16 -4 -25 -1 -29 10
-5 13 -9 14 -21 4 -16 -14 -20 -3 -6 18 7 12 12 12 29 1 12 -7 25 -9 29 -5 4
5 2 11 -4 13 -7 3 -13 9 -13 15 0 16 31 -13 41 -39z m3745 23 c2 -14 0 -15
-12 -5 -17 14 -19 32 -2 27 6 -2 12 -12 14 -22z m-2914 0 c4 -6 8 -15 8 -21
-1 -5 -5 -2 -11 9 -9 14 -13 15 -19 6 -8 -12 -30 -6 -30 8 0 12 44 9 52 -2z
m248 4 c0 -5 -5 -10 -11 -10 -5 0 -7 5 -4 10 3 6 8 10 11 10 2 0 4 -4 4 -10z
m483 -23 c-3 -5 -10 -4 -15 1 -6 6 -7 16 -3 22 6 9 9 9 16 -1 4 -7 5 -17 2
-22z m1557 29 c0 -2 -11 -11 -25 -20 -23 -15 -25 -15 -25 -1 0 9 4 14 9 10 5
-3 12 -1 16 5 6 9 25 14 25 6z m1749 -20 c-2 -2 -15 -7 -29 -10 l-25 -7 25 21
c15 14 26 18 28 10 2 -6 2 -13 1 -14z m-2009 2 c0 -4 -4 -8 -9 -8 -6 0 -12 4
-15 8 -3 5 1 9 9 9 8 0 15 -4 15 -9z m870 -9 c0 -5 -7 -9 -15 -9 -8 0 -15 7
-15 15 0 9 6 12 15 9 8 -4 15 -10 15 -15z m-2448 -11 c-7 -7 -12 -8 -12 -2 0
6 3 14 7 17 3 4 9 5 12 2 2 -3 -1 -11 -7 -17z m2012 8 c-3 -8 -12 -17 -20 -20
-12 -4 -12 -2 -4 14 12 23 32 27 24 6z m2421 4 c3 -5 1 -10 -4 -10 -6 0 -11 5
-11 10 0 6 2 10 4 10 3 0 8 -4 11 -10z m-5082 -22 c7 -24 -3 -41 -10 -20 -4
10 -9 8 -18 -5 -13 -17 -14 -16 -12 7 2 41 31 54 40 18z m1075 5 c2 -7 -1 -13
-6 -13 -6 0 -18 -7 -26 -16 -9 -9 -22 -17 -29 -18 -31 -6 -57 -18 -57 -28 0
-6 -3 -9 -6 -6 -11 11 17 90 30 85 7 -3 18 -2 25 2 19 12 64 8 69 -6z m1092 1
c0 -8 -5 -12 -10 -9 -6 4 -8 11 -5 16 9 14 15 11 15 -7z m305 -4 c-3 -5 -12
-10 -18 -10 -7 0 -6 4 3 10 19 12 23 12 15 0z m1805 -1 c0 -5 -4 -7 -10 -4 -5
3 -10 1 -10 -6 0 -7 -3 -10 -6 -6 -8 7 4 27 17 27 5 0 9 -5 9 -11z m-3373 -15
c5 -15 -28 -27 -40 -15 -5 5 -6 14 -2 21 8 13 37 9 42 -6z m853 -5 c0 -5 -9
-9 -20 -9 -17 0 -19 2 -8 14 13 14 28 12 28 -5z m852 -1 c-7 -7 -12 -8 -12 -2
0 14 12 26 19 19 2 -3 -1 -11 -7 -17z m468 13 c0 -14 -18 -23 -30 -16 -6 4 -8
11 -5 16 8 12 35 12 35 0z m-4600 -11 c0 -5 -2 -10 -4 -10 -3 0 -8 5 -11 10
-3 6 -1 10 4 10 6 0 11 -4 11 -10z m390 0 c0 -5 -5 -10 -11 -10 -5 0 -7 5 -4
10 3 6 8 10 11 10 2 0 4 -4 4 -10z m90 -15 c0 -10 -17 -12 -52 -6 -4 0 -5 7
-2 15 6 16 54 9 54 -9z m1283 5 c3 -10 -1 -24 -8 -30 -11 -9 -13 -6 -10 17 4
34 4 33 9 33 2 0 6 -9 9 -20z m4755 0 c-7 -10 -14 -18 -15 -16 -6 6 9 36 18
36 5 0 4 -9 -3 -20z m-6492 -17 c-10 -10 -19 5 -10 18 6 11 8 11 12 0 2 -7 1
-15 -2 -18z m2784 21 c0 -3 -6 -12 -14 -20 -16 -15 -32 -2 -21 16 7 11 35 14
35 4z m3546 -20 c-5 -14 -9 -15 -19 -5 -9 9 -9 14 3 21 18 11 24 6 16 -16z
m-5384 9 c-6 -2 -9 -10 -6 -15 4 -7 2 -8 -5 -4 -13 9 -5 26 12 25 9 0 8 -2 -1
-6z m2758 -18 c0 -14 -4 -25 -9 -25 -4 0 -6 11 -3 25 2 14 6 25 8 25 2 0 4
-11 4 -25z m2265 15 c3 -5 1 -10 -4 -10 -6 0 -11 5 -11 10 0 6 2 10 4 10 3 0
8 -4 11 -10z m395 0 c0 -5 -4 -10 -10 -10 -5 0 -10 5 -10 10 0 6 5 10 10 10 6
0 10 -4 10 -10z m-3930 -12 c0 -4 -11 -10 -25 -14 -14 -3 -25 -10 -25 -16 0
-5 -5 -6 -12 -2 -8 5 -9 0 -6 -14 4 -15 2 -22 -8 -22 -14 0 -18 16 -15 55 2
16 -2 14 -18 -10 -17 -25 -21 -27 -27 -12 -11 31 12 44 76 43 33 0 60 -4 60
-8z m2737 -5 c6 -16 -36 -53 -53 -46 -11 4 -12 9 -3 19 6 7 8 17 5 23 -7 10
12 21 33 18 8 -1 16 -7 18 -14z m376 11 c8 -8 -3 -34 -14 -34 -5 0 -9 9 -9 20
0 19 11 26 23 14z m1237 -19 c-15 -18 -33 -20 -27 -2 2 6 10 11 16 10 6 -2 11
2 11 9 0 6 3 8 6 5 4 -4 1 -13 -6 -22z m-7179 -8 c-10 -9 -11 -8 -5 6 3 10 9
15 12 12 3 -3 0 -11 -7 -18z m769 8 c0 -12 -19 -12 -23 0 -4 9 -1 12 9 8 7 -3
14 -7 14 -8z m1260 -8 c0 -7 -4 -6 -10 3 -8 12 -10 12 -10 1 0 -8 -3 -12 -6
-8 -9 9 6 28 17 22 5 -4 9 -12 9 -18z m150 2 c0 -6 -4 -7 -10 -4 -5 3 -10 11
-10 16 0 6 5 7 10 4 6 -3 10 -11 10 -16z m34 6 c-6 -16 -24 -21 -24 -7 0 11
11 22 21 22 5 0 6 -7 3 -15z m2156 -14 c0 -6 -4 -13 -10 -16 -5 -3 -10 1 -10
9 0 9 5 16 10 16 6 0 10 -4 10 -9z m2654 3 c24 -9 19 -19 -9 -20 -15 -1 -25 3
-25 12 0 15 10 17 34 8z m-4798 -50 c-4 -12 -10 -12 -26 -4 -20 11 -28 40 -10
40 5 0 7 -7 4 -15 -4 -9 0 -15 10 -15 10 0 16 9 17 23 1 17 2 18 6 4 3 -10 2
-25 -1 -33z m-75 13 c-10 -9 -11 -8 -5 6 3 10 9 15 12 12 3 -3 0 -11 -7 -18z
m889 -8 c0 -4 -9 -9 -20 -12 -13 -3 -24 1 -30 14 -9 15 -7 19 6 19 10 0 14 -5
10 -16 -3 -8 -2 -12 4 -9 6 3 10 14 10 23 0 15 2 15 10 2 5 -8 10 -18 10 -21z
m1440 16 c11 -13 10 -14 -4 -9 -9 3 -16 10 -16 15 0 13 6 11 20 -6z m-3173 -1
c-3 -3 -12 -4 -19 -1 -8 3 -5 6 6 6 11 1 17 -2 13 -5z m2166 -7 c4 3 7 4 7 1
0 -3 -8 -12 -17 -19 -10 -7 -15 -9 -11 -5 4 5 2 16 -5 25 -10 14 -10 14 4 4 9
-7 19 -10 22 -6z m341 -8 c-9 -15 -34 -10 -28 5 3 8 12 12 20 9 8 -3 11 -9 8
-14z m3026 11 c13 -8 13 -10 -2 -10 -9 0 -20 5 -23 10 -8 13 5 13 25 0z m322
-5 c0 -5 -5 -11 -11 -13 -6 -2 -11 4 -11 13 0 9 5 15 11 13 6 -2 11 -8 11 -13z
m-6312 -16 c0 -6 -4 -7 -10 -4 -5 3 -10 11 -10 16 0 6 5 7 10 4 6 -3 10 -11
10 -16z m1869 4 c0 -13 -2 -14 -6 -4 -4 11 -7 11 -14 0 -4 -7 -11 -10 -16 -6
-4 5 -1 12 7 17 22 14 30 12 29 -7z m798 -25 c-6 -4 -18 -8 -26 -8 -11 0 -11
4 2 18 10 10 16 21 15 23 -2 2 3 -2 9 -10 10 -12 10 -16 0 -23z m-709 12 c-7
-10 -14 -17 -17 -15 -4 4 18 35 25 35 2 0 -1 -9 -8 -20z m132 16 c0 -3 -4 -8
-10 -11 -5 -3 -10 -1 -10 4 0 6 5 11 10 11 6 0 10 -2 10 -4z m1270 -6 c0 -5
-5 -10 -11 -10 -5 0 -7 5 -4 10 3 6 8 10 11 10 2 0 4 -4 4 -10z m1150 -6 c0
-10 6 -14 15 -11 25 10 25 -9 0 -31 -36 -32 -59 -29 -51 6 5 20 4 23 -4 12 -5
-8 -10 -11 -10 -6 0 12 31 46 42 46 4 0 8 -7 8 -16z m225 6 c3 -5 2 -10 -4
-10 -5 0 -13 5 -16 10 -3 6 -2 10 4 10 5 0 13 -4 16 -10z m-4348 -22 c-3 -8
-6 -5 -6 6 -1 11 2 17 5 13 3 -3 4 -12 1 -19z m1343 10 c0 -7 -7 -22 -15 -32
-12 -16 -18 -17 -27 -8 -9 9 -9 12 2 12 7 0 10 3 7 7 -8 7 11 33 24 33 5 0 9
-6 9 -12z m985 2 c3 -5 -1 -10 -9 -10 -9 0 -16 5 -16 10 0 6 4 10 9 10 6 0 13
-4 16 -10z m2729 -6 c4 -9 4 -19 1 -22 -3 -3 -5 0 -5 7 0 8 -7 10 -22 5 -20
-6 -21 -5 -9 10 17 20 27 20 35 0z m921 6 c3 -5 1 -10 -4 -10 -6 0 -11 5 -11
10 0 6 2 10 4 10 3 0 8 -4 11 -10z m-5819 -7 c-10 -11 -37 -12 -30 -2 3 5 12
9 21 9 9 0 13 -3 9 -7z m1376 -19 c-3 -17 -8 -22 -15 -15 -11 11 -3 41 11 41
5 0 7 -12 4 -26z m-1308 0 c5 -14 4 -15 -9 -4 -17 14 -19 20 -6 20 5 0 12 -7
15 -16z m556 0 c0 -8 -4 -12 -10 -9 -5 3 -10 1 -10 -6 0 -7 -2 -10 -5 -7 -8 7
5 38 16 38 5 0 9 -7 9 -16z m1449 2 c9 -11 9 -16 0 -22 -8 -5 -9 -3 -4 6 6 10
4 12 -8 7 -11 -4 -17 -1 -17 8 0 19 14 19 29 1z m821 10 c0 -3 -4 -8 -10 -11
-5 -3 -10 -1 -10 4 0 6 5 11 10 11 6 0 10 -2 10 -4z m-2090 -16 c0 -5 -2 -10
-4 -10 -3 0 -8 5 -11 10 -3 6 -1 10 4 10 6 0 11 -4 11 -10z m1227 -24 c-7 -17
-37 -11 -37 6 0 6 7 7 16 4 12 -5 15 -2 10 11 -6 14 -4 15 5 6 6 -6 9 -19 6
-27z m533 30 c0 -2 -7 -7 -16 -10 -8 -3 -12 -2 -9 4 6 10 25 14 25 6z m287 -7
c-10 -6 -16 -17 -13 -27 7 -22 -9 -49 -18 -33 -4 6 -2 11 5 11 10 0 10 3 2 11
-15 15 -33 3 -33 -21 0 -10 -4 -22 -10 -25 -5 -3 -10 0 -10 9 0 8 -3 21 -6 30
-4 11 -1 16 10 16 9 0 16 6 16 14 0 9 7 13 20 11 11 -2 22 0 25 6 4 5 12 9 18
9 7 0 4 -5 -6 -11z m-1933 -5 c9 -3 13 -10 10 -16 -3 -5 2 -15 12 -23 16 -11
17 -16 6 -40 -7 -15 -15 -25 -18 -22 -3 3 -1 14 5 25 9 17 7 24 -14 40 -14 11
-25 25 -25 31 0 13 3 13 24 5z m277 -17 c-10 -9 -11 -8 -5 6 3 10 9 15 12 12
3 -3 0 -11 -7 -18z m687 -2 c-6 -14 -15 -25 -20 -25 -5 0 -1 11 8 25 9 14 18
25 20 25 2 0 -2 -11 -8 -25z m1112 21 c0 -3 -4 -8 -10 -11 -5 -3 -10 -1 -10 4
0 6 5 11 10 11 6 0 10 -2 10 -4z m-1684 -33 c-7 -7 -26 7 -26 19 0 6 6 6 15
-2 9 -7 13 -15 11 -17z m824 11 c0 -8 -5 -12 -10 -9 -6 4 -8 11 -5 16 9 14 15
11 15 -7z m-1586 -15 c-8 -13 -21 -11 -27 5 -4 10 0 12 14 9 10 -3 16 -9 13
-14z m324 -31 l-13 -23 -3 29 c-2 16 2 32 10 37 18 12 22 -14 6 -43z m1572 31
c0 -6 -4 -7 -10 -4 -5 3 -10 11 -10 16 0 6 5 7 10 4 6 -3 10 -11 10 -16z m30
11 c0 -5 -2 -10 -4 -10 -3 0 -8 5 -11 10 -3 6 -1 10 4 10 6 0 11 -4 11 -10z
m23 -5 c-3 -9 -8 -14 -10 -11 -3 3 -2 9 2 15 9 16 15 13 8 -4z m-2915 -20 c-3
-3 -9 2 -12 12 -6 14 -5 15 5 6 7 -7 10 -15 7 -18z m2235 0 c-7 -21 -13 -19
-13 6 0 11 4 18 10 14 5 -3 7 -12 3 -20z m1137 15 c0 -5 -5 -10 -11 -10 -5 0
-7 5 -4 10 3 6 8 10 11 10 2 0 4 -4 4 -10z m2890 -5 c0 -8 -4 -15 -10 -15 -5
0 -7 7 -4 15 4 8 8 15 10 15 2 0 4 -7 4 -15z m-5683 -17 c-3 -8 -6 -5 -6 6 -1
11 2 17 5 13 3 -3 4 -12 1 -19z m4688 13 c3 -5 1 -12 -5 -16 -5 -3 -10 1 -10
9 0 18 6 21 15 7z m-3501 -10 c3 -5 -1 -11 -9 -14 -9 -4 -12 -1 -8 9 6 16 10
17 17 5z m716 -6 c0 -8 -4 -15 -10 -15 -5 0 -7 7 -4 15 4 8 8 15 10 15 2 0 4
-7 4 -15z m850 5 c0 -5 -5 -10 -11 -10 -5 0 -7 5 -4 10 3 6 8 10 11 10 2 0 4
-4 4 -10z m1905 -11 c1 -8 -4 -17 -10 -21 -15 -11 -35 -10 -35 2 0 6 7 10 16
10 11 0 14 5 10 16 -4 10 -1 14 6 12 7 -3 13 -11 13 -19z m-2967 -19 c-15 -24
-19 -21 -11 8 3 12 9 19 14 16 5 -3 3 -14 -3 -24z m449 8 c-3 -8 -6 -5 -6 6
-1 11 2 17 5 13 3 -3 4 -12 1 -19z m-1577 -8 c0 -5 -4 -10 -10 -10 -5 0 -10 5
-10 10 0 6 5 10 10 10 6 0 10 -4 10 -10z m313 -24 c-3 -4 -9 -2 -14 5 -13 22
-11 31 5 17 8 -7 12 -17 9 -22z m-986 2 c-3 -8 -6 -5 -6 6 -1 11 2 17 5 13 3
-3 4 -12 1 -19z m140 7 c9 -24 -1 -27 -15 -5 -8 13 -8 20 -2 20 6 0 13 -7 17
-15z m933 -6 c0 -11 -4 -17 -10 -14 -5 3 -10 13 -10 21 0 8 5 14 10 14 6 0 10
-9 10 -21z m220 11 c0 -5 -4 -10 -9 -10 -6 0 -13 5 -16 10 -3 6 1 10 9 10 9 0
16 -4 16 -10z m174 -6 c3 -8 2 -12 -4 -9 -6 3 -10 10 -10 16 0 14 7 11 14 -7z
m913 1 c0 -8 -4 -12 -9 -9 -4 3 -8 9 -8 15 0 5 4 9 8 9 5 0 9 -7 9 -15z m1511
-11 c2 -11 -4 -26 -12 -33 -12 -10 -19 -8 -37 10 -21 21 -21 22 -3 36 25 18
48 13 52 -13z m1037 16 c3 -5 11 -7 18 -4 7 2 13 -4 14 -14 1 -15 -4 -18 -23
-14 -13 2 -24 8 -24 13 0 5 -7 9 -15 9 -8 0 -15 5 -15 10 0 13 37 13 45 0z
m-5675 -33 c0 -7 -5 -19 -11 -27 -9 -13 -10 -13 -7 0 1 8 -4 25 -11 38 -12 22
-11 23 8 12 12 -6 21 -16 21 -23z m341 15 c-7 -2 -18 1 -23 6 -8 8 -4 9 13 5
13 -4 18 -8 10 -11z m1209 8 c0 -5 7 -10 15 -10 19 0 20 -36 1 -43 -10 -4 -13
-1 -9 9 3 7 0 14 -6 14 -6 0 -11 -4 -11 -8 0 -11 -39 -12 -45 -1 -4 5 3 9 14
9 14 0 21 6 21 20 0 11 5 20 10 20 6 0 10 -4 10 -10z m1917 -57 c-4 -3 -22 -7
-42 -10 -27 -3 -35 0 -35 13 0 13 3 14 15 4 10 -9 15 -9 15 -1 0 6 7 11 16 11
11 0 14 5 10 16 -3 9 -3 21 1 27 4 7 11 -1 17 -21 5 -18 6 -35 3 -39z m-3527
53 c0 -2 -7 -6 -15 -10 -8 -3 -15 -1 -15 4 0 6 7 10 15 10 8 0 15 -2 15 -4z
m2334 -5 c3 -5 -1 -11 -9 -14 -9 -4 -12 -1 -8 9 6 16 10 17 17 5z m3265 -20
c-15 -5 -22 6 -14 19 6 9 10 9 16 -1 5 -8 4 -15 -2 -18z m-3185 4 c3 -8 1 -15
-4 -15 -6 0 -10 7 -10 15 0 8 2 15 4 15 2 0 6 -7 10 -15z m616 5 c0 -5 -2 -10
-4 -10 -3 0 -8 5 -11 10 -3 6 -1 10 4 10 6 0 11 -4 11 -10z m240 -5 c0 -8 -4
-15 -10 -15 -5 0 -10 7 -10 15 0 8 5 15 10 15 6 0 10 -7 10 -15z m-2924 -22
c-10 -10 -19 5 -10 18 6 11 8 11 12 0 2 -7 1 -15 -2 -18z m920 -25 c-14 -23
-37 -32 -29 -12 3 7 9 14 15 14 5 0 8 8 7 18 -3 30 2 38 10 17 5 -11 3 -27 -3
-37z m1689 43 c3 -5 2 -12 -3 -15 -5 -3 -9 1 -9 9 0 17 3 19 12 6z m190 -1 c3
-6 -1 -7 -9 -4 -18 7 -21 14 -7 14 6 0 13 -4 16 -10z m835 -1 c0 -6 -7 -9 -14
-6 -10 4 -13 1 -10 -8 6 -14 50 -29 62 -21 4 2 7 -10 7 -27 -1 -28 -4 -32 -25
-28 -14 1 -28 8 -32 15 -5 7 -8 6 -9 -4 -1 -8 -3 -19 -4 -25 -2 -5 -3 -17 -4
-25 -1 -13 -2 -13 -11 0 -8 13 -10 12 -10 -3 0 -13 6 -17 23 -15 41 6 79 -67
45 -89 -36 -21 -98 13 -98 54 0 13 -7 34 -16 48 -14 22 -14 25 4 43 21 21 38
57 22 47 -6 -3 -10 -2 -10 3 0 12 30 37 30 26 0 -5 5 -1 11 9 11 19 39 23 39
6z m279 -15 c12 -28 9 -40 -7 -30 -12 7 -22 56 -12 56 4 0 12 -12 19 -26z
m-2579 12 c0 -3 -4 -8 -10 -11 -5 -3 -10 -1 -10 4 0 6 5 11 10 11 6 0 10 -2
10 -4z m1183 -13 c16 -19 21 -81 7 -103 -6 -9 -11 -7 -19 9 -9 16 -9 21 0 19
7 -2 14 11 16 29 4 29 2 31 -26 29 -26 -2 -28 0 -20 16 12 23 22 23 42 1z m51
9 c3 -5 -1 -9 -9 -9 -8 0 -12 4 -9 9 3 4 7 8 9 8 2 0 6 -4 9 -8z m436 -3 c0
-5 -5 -9 -11 -9 -5 0 -7 -6 -3 -12 5 -9 2 -9 -9 1 -22 18 -21 26 3 28 11 1 20
-2 20 -8z m950 7 c0 -3 -4 -8 -10 -11 -5 -3 -10 -1 -10 4 0 6 5 11 10 11 6 0
10 -2 10 -4z m-3871 -19 c13 4 13 3 2 -5 -11 -8 -24 -9 -49 -3 -2 1 0 6 4 12
4 7 10 7 16 1 6 -6 18 -8 27 -5z m936 3 c3 -5 1 -10 -4 -10 -6 0 -11 5 -11 10
0 6 2 10 4 10 3 0 8 -4 11 -10z m655 -53 c-10 -9 -12 -8 -7 6 4 9 2 17 -2 17
-5 0 -7 10 -3 22 5 22 6 21 15 -6 7 -20 6 -31 -3 -39z m1695 53 c3 -6 -1 -7
-9 -4 -18 7 -21 14 -7 14 6 0 13 -4 16 -10z m139 -3 c19 -14 15 -57 -5 -57 -6
0 -8 -4 -4 -9 3 -5 1 -12 -5 -16 -5 -3 -10 1 -10 9 0 9 -4 16 -8 16 -4 0 -9
16 -10 35 -3 38 11 45 42 22z m1705 4 c9 -6 10 -11 2 -15 -13 -8 -31 1 -31 15
0 11 11 11 29 0z m-6284 -11 c3 -6 -1 -7 -9 -4 -18 7 -21 14 -7 14 6 0 13 -4
16 -10z m2709 2 c3 -5 -1 -9 -9 -9 -8 0 -12 4 -9 9 3 4 7 8 9 8 2 0 6 -4 9 -8z
m536 -2 c0 -5 -2 -10 -4 -10 -3 0 -8 5 -11 10 -3 6 -1 10 4 10 6 0 11 -4 11
-10z m280 0 c0 -5 -8 -10 -17 -10 -15 0 -16 2 -3 10 19 12 20 12 20 0z m210
-23 c0 -5 -4 -5 -10 -2 -5 3 -10 14 -10 23 0 15 2 15 10 2 5 -8 10 -19 10 -23z
m127 27 c-3 -3 -12 -4 -19 -1 -8 3 -5 6 6 6 11 1 17 -2 13 -5z m113 -15 c0 -6
-4 -7 -10 -4 -5 3 -10 11 -10 16 0 6 5 7 10 4 6 -3 10 -11 10 -16z m1154 -30
c-21 -23 -33 -24 -40 -4 -4 9 4 23 17 34 21 17 25 17 32 4 6 -9 3 -21 -9 -34z
m-4534 36 c0 -2 -10 -10 -22 -16 -21 -11 -22 -11 -9 4 13 16 31 23 31 12z
m1271 -18 c-10 -9 -11 -8 -5 6 3 10 9 15 12 12 3 -3 0 -11 -7 -18z m59 13 c0
-5 -5 -10 -11 -10 -5 0 -7 5 -4 10 3 6 8 10 11 10 2 0 4 -4 4 -10z m510 -19
c0 -10 -10 -26 -22 -37 -19 -15 -20 -16 -9 -1 12 15 11 17 -5 17 -17 1 -17 2
2 13 12 7 19 18 16 26 -3 8 0 11 7 7 6 -4 11 -15 11 -25z m173 9 c-3 -11 -9
-17 -14 -15 -10 7 -1 35 11 35 5 0 6 -9 3 -20z m617 5 c0 -2 -9 -3 -19 -2 -11
0 -18 5 -15 9 4 6 34 0 34 -7z m440 -2 c0 -7 -9 -17 -20 -23 -14 -7 -20 -7
-20 0 0 5 5 10 11 10 8 0 8 4 1 13 -8 10 -6 13 9 13 10 0 19 -6 19 -13z m1551
-6 c-13 -13 -26 -3 -16 12 3 6 11 8 17 5 6 -4 6 -10 -1 -17z m1761 3 c5 0 16
-7 25 -15 8 -8 19 -12 25 -9 7 4 8 2 4 -4 -9 -15 -76 18 -75 38 0 10 2 11 6 3
2 -7 9 -13 15 -13z m-6589 3 c-7 -2 -19 -2 -25 0 -7 3 -2 5 12 5 14 0 19 -2
13 -5z m247 -3 c0 -5 -2 -10 -4 -10 -3 0 -8 5 -11 10 -3 6 -1 10 4 10 6 0 11
-4 11 -10z m575 0 c3 -5 -1 -10 -10 -10 -9 0 -13 5 -10 10 3 6 8 10 10 10 2 0
7 -4 10 -10z m1639 4 c9 -3 16 -14 16 -23 -1 -15 -2 -15 -13 0 -7 9 -18 14
-26 11 -8 -3 -11 0 -7 7 8 13 9 13 30 5z m287 -17 c-10 -9 -11 -8 -5 6 3 10 9
15 12 12 3 -3 0 -11 -7 -18z m736 -2 c-6 -7 -17 -10 -24 -8 -9 4 -9 8 0 18 6
7 17 10 24 8 9 -4 9 -8 0 -18z m58 15 c-3 -5 -12 -10 -18 -10 -7 0 -6 4 3 10
19 12 23 12 15 0z m855 -2 c0 -9 3 -9 12 0 14 14 28 16 28 3 0 -11 -30 -19
-47 -14 -15 5 -17 23 -3 23 6 0 10 -5 10 -12z m75 2 c3 -5 1 -10 -4 -10 -6 0
-11 5 -11 10 0 6 2 10 4 10 3 0 8 -4 11 -10z m-3680 -21 c11 -17 -13 -17 -30
1 -16 18 -16 18 4 13 12 -3 24 -9 26 -14z m1493 -14 c-1 -13 -6 -21 -10 -19
-4 3 -8 1 -8 -4 0 -15 -32 -24 -44 -12 -7 7 -6 10 2 10 7 0 12 6 10 14 -2 8 2
15 7 14 6 0 9 -4 7 -10 -1 -5 3 -8 10 -5 7 2 12 14 11 26 -2 13 1 20 7 16 5
-3 9 -17 8 -30z m842 21 c0 -8 -7 -16 -15 -20 -13 -4 -14 -2 -5 14 13 23 20
26 20 6z m207 -13 c-8 -7 -37 9 -31 19 3 5 12 4 20 -3 8 -6 13 -14 11 -16z
m88 7 c10 -11 16 -20 13 -20 -3 0 -13 9 -23 20 -10 11 -16 20 -13 20 3 0 13
-9 23 -20z m193 -19 c-2 -21 -7 -37 -11 -34 -5 3 -7 -3 -5 -13 2 -10 11 -20
21 -22 13 -3 15 1 10 15 -6 16 -5 17 11 3 17 -14 17 -15 -3 -24 -26 -11 -27
-32 -3 -45 14 -8 15 -12 4 -23 -9 -8 -12 -9 -10 -1 2 6 -1 11 -7 12 -5 0 -9
-10 -8 -22 3 -20 2 -20 -9 3 -12 27 -14 35 -16 63 -2 14 -7 17 -22 12 -15 -5
-18 -3 -14 9 5 12 2 15 -12 10 -15 -6 -17 -4 -7 6 10 11 15 11 28 0 12 -10 15
-10 15 5 0 10 8 24 18 31 10 8 12 13 5 14 -26 0 -14 31 15 39 1 1 1 -17 0 -38z
m37 20 c0 -6 6 -16 14 -20 10 -7 7 -9 -10 -8 -18 2 -24 8 -26 25 0 13 4 21 11
19 6 -2 11 -9 11 -16z m236 2 c13 -16 12 -17 -3 -4 -17 13 -22 21 -14 21 2 0
10 -8 17 -17z m2232 2 c-2 -5 -16 -9 -32 -9 -18 -1 -27 3 -24 11 5 13 60 11
56 -2z m-6663 -5 c0 -5 -4 -10 -10 -10 -5 0 -10 5 -10 10 0 6 5 10 10 10 6 0
10 -4 10 -10z m1510 1 c0 -5 -7 -12 -16 -15 -14 -5 -15 -4 -4 9 14 17 20 19
20 6z m935 -6 c22 -11 24 -13 6 -9 -16 4 -21 3 -17 -5 4 -6 2 -11 -3 -11 -6 0
-11 7 -11 15 0 8 -4 15 -10 15 -5 0 -10 -4 -10 -10 0 -5 -7 -7 -16 -3 -13 5
-13 7 -2 14 18 12 28 11 63 -6z m928 -10 c-3 -8 -9 -15 -15 -15 -5 0 -7 -4 -4
-9 6 -9 -23 -25 -32 -17 -6 7 42 64 50 59 4 -2 5 -10 1 -18z m26 -1 c-6 -8
-15 -12 -18 -8 -3 4 0 9 7 11 6 3 9 10 6 15 -4 7 -2 8 5 4 9 -6 9 -11 0 -22z
m860 12 c8 -10 9 -16 1 -21 -6 -4 -9 -1 -8 7 2 7 -3 12 -9 11 -7 -2 -13 2 -13
7 0 14 16 12 29 -4z m882 -3 c10 -12 11 -15 1 -9 -7 4 -20 2 -29 -6 -15 -12
-15 -11 -4 10 14 26 15 27 32 5z m-4717 -8 c-4 -8 -8 -15 -10 -15 -2 0 -4 7
-4 15 0 8 4 15 10 15 5 0 7 -7 4 -15z m946 -15 c0 -5 -5 -10 -11 -10 -5 0 -7
5 -4 10 3 6 8 10 11 10 2 0 4 -4 4 -10z m247 4 c-3 -3 -12 -4 -19 -1 -8 3 -5
6 6 6 11 1 17 -2 13 -5z m1133 -14 c0 -5 -4 -10 -10 -10 -5 0 -10 5 -10 10 0
6 5 10 10 10 6 0 10 -4 10 -10z m1130 6 c0 -2 -7 -19 -15 -39 -10 -23 -22 -36
-40 -39 -14 -3 -25 -3 -25 -1 0 9 23 49 38 66 13 15 42 24 42 13z m-2470 -31
c0 -14 -2 -25 -4 -25 -2 0 -6 11 -8 25 -3 14 -1 25 3 25 5 0 9 -11 9 -25z
m585 15 c3 -5 -1 -10 -10 -10 -9 0 -13 5 -10 10 3 6 8 10 10 10 2 0 7 -4 10
-10z m685 -25 c0 -5 -5 -3 -10 5 -5 8 -10 20 -10 25 0 6 5 3 10 -5 5 -8 10
-19 10 -25z m1350 20 c-7 -8 -17 -15 -23 -15 -6 0 -2 7 9 15 25 19 30 19 14 0z
m-1160 -7 c0 -7 -4 -19 -9 -27 -11 -17 -23 1 -15 23 7 19 24 21 24 4z m1133
-39 c-6 -6 -20 -5 -36 2 -31 14 -34 24 -11 37 20 11 62 -24 47 -39z m-2243 26
c0 -8 -4 -15 -8 -15 -5 0 -9 7 -9 15 0 8 4 15 9 15 4 0 8 -7 8 -15z m970 5 c0
-5 -5 -10 -11 -10 -5 0 -7 5 -4 10 3 6 8 10 11 10 2 0 4 -4 4 -10z m2240 0 c0
-5 -5 -10 -11 -10 -5 0 -7 5 -4 10 3 6 8 10 11 10 2 0 4 -4 4 -10z m-2083 -22
c-3 -8 -6 -5 -6 6 -1 11 2 17 5 13 3 -3 4 -12 1 -19z m443 7 c0 -8 -2 -15 -4
-15 -2 0 -6 7 -10 15 -3 8 -1 15 4 15 6 0 10 -7 10 -15z m157 -7 c-3 -8 -6 -5
-6 6 -1 11 2 17 5 13 3 -3 4 -12 1 -19z m833 18 c0 -2 -7 -9 -15 -16 -13 -11
-14 -10 -9 4 5 14 24 23 24 12z m165 -6 c3 -5 -1 -10 -10 -10 -9 0 -13 5 -10
10 3 6 8 10 10 10 2 0 7 -4 10 -10z m-1470 -56 c-8 -16 -15 -22 -15 -14 0 13
-1 13 -10 0 -5 -8 -12 -11 -17 -7 -11 12 12 42 31 39 10 -2 16 4 17 15 0 10 3
13 5 7 3 -6 -2 -24 -11 -40z m295 42 c0 -3 -4 -8 -10 -11 -5 -3 -10 -1 -10 4
0 6 5 11 10 11 6 0 10 -2 10 -4z m926 -11 c-3 -8 2 -19 11 -24 15 -8 15 -11 3
-26 -13 -15 -11 -16 19 -12 26 4 30 3 21 -8 -6 -7 -9 -18 -8 -25 2 -7 -3 -14
-10 -15 -7 -2 -8 -1 -2 2 6 3 -3 15 -20 28 -18 14 -27 26 -21 30 7 4 8 13 2
23 -8 17 -5 42 6 42 3 0 3 -7 -1 -15z m2729 5 c-3 -5 -10 -10 -16 -10 -5 0 -9
5 -9 10 0 6 7 10 16 10 8 0 12 -4 9 -10z m-1348 -22 c-3 -8 -6 -5 -6 6 -1 11
2 17 5 13 3 -3 4 -12 1 -19z m-5100 6 c-3 -3 -12 -4 -19 -1 -8 3 -5 6 6 6 11
1 17 -2 13 -5z m1973 -4 c0 -5 -2 -10 -4 -10 -3 0 -8 5 -11 10 -3 6 -1 10 4
10 6 0 11 -4 11 -10z m1238 -4 c-7 -8 -15 -12 -17 -11 -5 6 10 25 20 25 5 0 4
-6 -3 -14z m702 -25 c9 -31 -3 -44 -14 -15 -3 8 -10 13 -15 9 -19 -11 -24 18
-6 31 22 16 23 16 35 -25z m-1188 -8 c7 -8 3 -10 -11 -6 -24 6 -23 5 -14 29 5
14 8 15 11 3 3 -7 9 -19 14 -26z m968 22 c7 -9 8 -15 2 -15 -5 0 -12 7 -16 15
-3 8 -4 15 -2 15 2 0 9 -7 16 -15z m-1069 -12 c13 -16 12 -17 -3 -4 -17 13
-22 21 -14 21 2 0 10 -8 17 -17z m544 -23 c-21 -41 -7 -62 28 -42 21 12 21 12
-2 -8 -24 -21 -47 -27 -36 -10 4 7 -3 9 -22 6 -15 -2 -32 -5 -38 -5 -5 -1 -3
-6 5 -12 13 -9 13 -10 0 -6 -8 2 -15 12 -15 23 0 14 7 19 25 19 29 0 47 22 31
38 -15 15 -14 27 3 21 8 -3 17 0 21 6 15 25 15 0 0 -30z m-1794 7 c-10 -9 -11
-8 -5 6 3 10 9 15 12 12 3 -3 0 -11 -7 -18z m759 14 c0 -5 -7 -12 -16 -15 -14
-5 -15 -4 -4 9 14 17 20 19 20 6z m790 -1 c0 -5 -2 -10 -4 -10 -3 0 -8 5 -11
10 -3 6 -1 10 4 10 6 0 11 -4 11 -10z m-859 -33 c-17 -21 -51 -29 -44 -11 3 8
9 12 13 9 5 -3 12 4 15 16 5 15 10 18 18 10 7 -7 7 -14 -2 -24z m227 13 c-14
-22 -24 -19 -15 5 4 8 11 15 17 15 6 0 6 -7 -2 -20z m724 5 c12 -16 9 -23 -9
-21 -9 2 -19 8 -21 14 -2 6 -10 8 -18 5 -8 -3 -14 0 -14 6 0 13 52 11 62 -4z
m-1049 -9 c7 4 2 -3 -10 -15 -24 -23 -39 -28 -26 -8 4 6 8 15 9 20 4 19 6 21
11 9 2 -6 10 -9 16 -6z m1103 -13 c-10 -10 -19 5 -10 18 6 11 8 11 12 0 2 -7
1 -15 -2 -18z m-3029 10 c-9 -2 -15 -9 -12 -14 4 -5 1 -9 -4 -9 -12 0 -14 13
-4 23 3 4 13 6 22 6 13 -1 12 -2 -2 -6z m1966 -18 c-7 -21 -13 -19 -13 6 0 11
4 18 10 14 5 -3 7 -12 3 -20z m147 15 c0 -5 -4 -10 -10 -10 -5 0 -10 5 -10 10
0 6 5 10 10 10 6 0 10 -4 10 -10z m101 -17 c-12 -20 -14 -14 -5 12 4 9 9 14
11 11 3 -2 0 -13 -6 -23z m337 16 c-2 -6 -8 -10 -13 -10 -5 0 -11 4 -13 10 -2
6 4 11 13 11 9 0 15 -5 13 -11z m789 -21 c-3 -7 -5 -2 -5 12 0 14 2 19 5 13 2
-7 2 -19 0 -25z m438 22 c3 -6 -1 -7 -9 -4 -18 7 -21 14 -7 14 6 0 13 -4 16
-10z m2405 -10 c0 -5 -4 -10 -10 -10 -5 0 -10 5 -10 10 0 6 5 10 10 10 6 0 10
-4 10 -10z m-3700 -10 c0 -5 -7 -7 -15 -4 -8 4 -15 8 -15 10 0 2 7 4 15 4 8 0
15 -4 15 -10z m450 -17 c0 -8 -11 -28 -24 -43 -17 -21 -26 -26 -35 -17 -16 16
-14 23 10 24 31 3 46 20 31 35 -17 17 -15 29 3 22 8 -4 15 -13 15 -21z m522
10 c2 -10 2 -26 0 -35 -3 -14 -8 -15 -28 -6 -15 7 -23 17 -19 26 3 7 5 18 5
23 0 17 38 9 42 -8z m202 2 c6 -17 4 -18 -18 -9 -20 8 -21 24 -2 24 8 0 16 -7
20 -15z m1456 5 c0 -5 -5 -10 -11 -10 -5 0 -7 5 -4 10 3 6 8 10 11 10 2 0 4
-4 4 -10z m75 0 c3 -5 2 -10 -4 -10 -5 0 -13 5 -16 10 -3 6 -2 10 4 10 5 0 13
-4 16 -10z m-2655 -15 c7 -9 8 -15 2 -15 -5 0 -12 7 -16 15 -3 8 -4 15 -2 15
2 0 9 -7 16 -15z m755 -5 c12 10 15 10 16 -1 5 -58 -14 -66 -40 -17 -12 24
-16 34 -7 24 13 -16 18 -17 31 -6z m-1035 6 c0 -2 -9 -6 -20 -9 -11 -3 -18 -1
-14 4 5 9 34 13 34 5z m569 -5 c9 -6 10 -10 2 -16 -15 -8 -41 1 -41 15 0 12
20 13 39 1z m2256 -1 c-3 -5 -11 -10 -16 -10 -6 0 -7 5 -4 10 3 6 11 10 16 10
6 0 7 -4 4 -10z m-3779 -22 l19 -23 -22 18 c-12 11 -27 16 -32 12 -6 -3 -11
-1 -11 4 0 19 26 12 46 -11z m774 18 c0 -2 -7 -7 -16 -10 -8 -3 -12 -2 -9 4 6
10 25 14 25 6z m-256 -22 c4 -10 1 -14 -6 -12 -15 5 -23 28 -10 28 5 0 13 -7
16 -16z m1161 -4 c10 -11 14 -20 9 -20 -5 0 -15 9 -22 20 -7 11 -11 20 -9 20
2 0 12 -9 22 -20z m770 0 c-3 -4 1 -10 7 -13 7 -2 10 -8 5 -12 -4 -5 -14 0
-21 11 -15 20 -12 39 5 28 5 -3 7 -9 4 -14z m755 10 c0 -5 -5 -10 -11 -10 -5
0 -7 5 -4 10 3 6 8 10 11 10 2 0 4 -4 4 -10z m-2375 -10 c3 -5 1 -10 -4 -10
-6 0 -11 5 -11 10 0 6 2 10 4 10 3 0 8 -4 11 -10z m1820 0 c3 -5 -1 -10 -10
-10 -9 0 -13 5 -10 10 3 6 8 10 10 10 2 0 7 -4 10 -10z m-1861 -15 c-7 -19
-39 -37 -48 -28 -10 10 -7 25 4 18 6 -3 13 1 16 9 3 9 12 16 20 16 8 0 11 -6
8 -15z m1030 0 c-4 -8 -11 -12 -16 -9 -6 4 -5 10 3 15 19 12 19 11 13 -6z
m2017 -8 c-10 -9 -11 -8 -5 6 3 10 9 15 12 12 3 -3 0 -11 -7 -18z m135 -1 c1
-9 -5 -12 -20 -8 -18 5 -18 7 -3 10 10 2 14 8 11 15 -4 7 -3 8 1 4 5 -4 10
-14 11 -21z m-3346 -7 c0 -5 -4 -9 -10 -9 -5 0 -10 7 -10 16 0 8 5 12 10 9 6
-3 10 -10 10 -16z m417 -5 c-9 -9 -28 6 -21 18 4 6 10 6 17 -1 6 -6 8 -13 4
-17z m493 22 c0 -3 -4 -8 -10 -11 -5 -3 -10 -1 -10 4 0 6 5 11 10 11 6 0 10
-2 10 -4z m100 -27 c0 -6 -4 -7 -10 -4 -5 3 -10 11 -10 16 0 6 5 7 10 4 6 -3
10 -11 10 -16z m597 -1 c-3 -8 -6 -5 -6 6 -1 11 2 17 5 13 3 -3 4 -12 1 -19z
m53 5 c0 -3 -8 -15 -18 -28 -13 -16 -23 -21 -32 -15 -12 7 -11 10 4 16 10 4
16 14 13 24 -3 13 0 16 14 13 11 -3 19 -7 19 -10z m1604 9 c2 -4 -4 -8 -14 -8
-10 0 -16 4 -14 8 3 4 9 8 14 8 5 0 11 -4 14 -8z m-3829 -20 c-3 -3 -11 0 -18
7 -9 10 -8 11 6 5 10 -3 15 -9 12 -12z m479 2 c3 -8 2 -12 -4 -9 -6 3 -10 10
-10 16 0 14 7 11 14 -7z m286 2 c0 -3 -4 -8 -10 -11 -5 -3 -10 -1 -10 4 0 6 5
11 10 11 6 0 10 -2 10 -4z m906 -16 c13 0 24 -4 24 -10 0 -5 -5 -10 -11 -10
-19 0 -49 20 -48 33 0 9 2 9 6 0 2 -7 16 -13 29 -13z m84 10 c0 -5 -2 -10 -4
-10 -3 0 -8 5 -11 10 -3 6 -1 10 4 10 6 0 11 -4 11 -10z m204 -6 c3 -8 2 -12
-4 -9 -6 3 -10 10 -10 16 0 14 7 11 14 -7z m186 6 c8 -5 12 -11 9 -14 -3 -3
-14 1 -25 9 -21 16 -8 20 16 5z m1094 -5 c-4 -8 -8 -15 -10 -15 -2 0 -4 7 -4
15 0 8 4 15 10 15 5 0 7 -7 4 -15z m-981 -9 c4 -10 0 -12 -14 -9 -22 6 -26 23
-5 23 8 0 16 -6 19 -14z m357 10 c0 -3 -4 -8 -10 -11 -5 -3 -10 -1 -10 4 0 6
5 11 10 11 6 0 10 -2 10 -4z m-710 -21 c0 -9 -6 -12 -15 -9 -8 4 -12 10 -9 15
8 14 24 10 24 -6z m390 5 c0 -5 -2 -10 -4 -10 -3 0 -8 5 -11 10 -3 6 -1 10 4
10 6 0 11 -4 11 -10z m81 -13 c-13 -13 -26 -3 -16 12 3 6 11 8 17 5 6 -4 6
-10 -1 -17z m-1906 -5 c-3 -3 -11 0 -18 7 -9 10 -8 11 6 5 10 -3 15 -9 12 -12z
m913 6 c19 -19 14 -30 -8 -18 -11 6 -24 9 -29 6 -4 -3 -8 1 -8 9 0 18 28 20
45 3z m207 3 c3 -5 1 -12 -5 -16 -5 -3 -10 1 -10 9 0 18 6 21 15 7z m365 -1
c20 -12 9 -21 -18 -13 -12 3 -19 9 -16 14 7 11 15 11 34 -1z m884 -5 c-4 -8
-14 -15 -23 -15 -14 1 -13 3 3 15 25 19 27 19 20 0z m453 -7 c-3 -8 -6 -5 -6
6 -1 11 2 17 5 13 3 -3 4 -12 1 -19z m-2007 -11 c0 -6 -3 -7 -7 -4 -3 4 -12 2
-20 -4 -10 -9 -13 -7 -13 9 0 15 5 19 20 15 11 -3 20 -10 20 -16z m173 8 c-3
-9 -8 -14 -10 -11 -3 3 -2 9 2 15 9 16 15 13 8 -4z m672 4 c4 -6 13 -8 21 -5
9 3 11 0 7 -12 -9 -25 -26 -47 -40 -49 -15 -3 -25 24 -12 33 5 3 7 14 4 25 -7
20 9 27 20 8z m205 -9 c0 -5 -5 -10 -11 -10 -5 0 -7 5 -4 10 3 6 8 10 11 10 2
0 4 -4 4 -10z m-1650 -21 c0 -10 -12 -11 -34 -3 -9 3 -14 10 -11 14 6 10 45 1
45 -11z m470 12 c0 -6 -4 -13 -10 -16 -5 -3 -10 1 -10 9 0 9 5 16 10 16 6 0
10 -4 10 -9z m1300 -1 c0 -5 -5 -10 -11 -10 -5 0 -7 5 -4 10 3 6 8 10 11 10 2
0 4 -4 4 -10z m-905 -10 c3 -5 1 -10 -4 -10 -6 0 -11 5 -11 10 0 6 2 10 4 10
3 0 8 -4 11 -10z m440 -17 c-9 -36 -12 -38 -30 -23 -18 15 -3 50 21 50 13 0
15 -6 9 -27z m-1485 -8 c0 -14 -2 -25 -4 -25 -2 0 -6 11 -8 25 -3 14 -1 25 3
25 5 0 9 -11 9 -25z m280 15 c0 -5 -5 -10 -11 -10 -5 0 -7 5 -4 10 3 6 8 10
11 10 2 0 4 -4 4 -10z m230 6 c0 -2 -6 -9 -13 -15 -10 -8 -14 -7 -14 4 0 8 6
15 14 15 7 0 13 -2 13 -4z m292 -28 c-8 -8 -9 -4 -5 13 4 13 8 18 11 10 2 -7
-1 -18 -6 -23z m142 -6 c-19 -39 -27 -42 -13 -6 12 34 20 46 25 41 2 -2 -3
-18 -12 -35z m1121 29 c3 -5 2 -12 -3 -15 -5 -3 -9 1 -9 9 0 17 3 19 12 6z
m1059 -7 c3 -8 2 -12 -4 -9 -6 3 -10 10 -10 16 0 14 7 11 14 -7z m-2029 -4 c3
-5 1 -10 -4 -10 -6 0 -11 5 -11 10 0 6 2 10 4 10 3 0 8 -4 11 -10z m1945 0 c0
-5 -4 -10 -10 -10 -5 0 -10 5 -10 10 0 6 5 10 10 10 6 0 10 -4 10 -10z m-2516
-43 c-8 -5 -12 -12 -9 -18 4 -5 2 -9 -4 -9 -14 0 -19 23 -8 41 8 13 13 14 23
5 9 -9 9 -13 -2 -19z m186 23 c0 -5 -2 -10 -4 -10 -3 0 -8 5 -11 10 -3 6 -1
10 4 10 6 0 11 -4 11 -10z m52 -17 c-3 -16 -7 -22 -10 -15 -4 13 4 42 11 42 2
0 2 -12 -1 -27z m233 17 c3 -5 1 -10 -4 -10 -6 0 -11 5 -11 10 0 6 2 10 4 10
3 0 8 -4 11 -10z m299 -6 c3 -8 2 -12 -4 -9 -6 3 -10 10 -10 16 0 14 7 11 14
-7z m616 6 c0 -5 -2 -10 -4 -10 -3 0 -8 5 -11 10 -3 6 -1 10 4 10 6 0 11 -4
11 -10z m-1046 -19 c-10 -10 -23 -16 -27 -14 -5 3 0 11 10 19 27 20 39 17 17
-5z m709 13 c9 -9 -4 -35 -14 -28 -5 3 -9 12 -9 20 0 14 12 19 23 8z m1327 -8
c-7 -7 -13 -7 -20 0 -6 6 -3 10 10 10 13 0 16 -4 10 -10z m-2970 -21 c0 -8 -4
-15 -10 -15 -5 0 -7 7 -4 15 4 8 8 15 10 15 2 0 4 -7 4 -15z m130 5 c0 -5 -5
-10 -11 -10 -5 0 -7 5 -4 10 3 6 8 10 11 10 2 0 4 -4 4 -10z m1674 -6 c3 -8 2
-12 -4 -9 -6 3 -10 10 -10 16 0 14 7 11 14 -7z m-1604 -8 c0 -3 -4 -8 -10 -11
-5 -3 -10 -1 -10 4 0 6 5 11 10 11 6 0 10 -2 10 -4z m2020 -22 c0 -2 -8 0 -19
5 -10 6 -22 7 -26 3 -5 -4 -5 -1 -1 6 5 9 12 9 27 2 10 -6 19 -13 19 -16z
m1072 10 c-5 -10 -23 -7 -37 7 -6 6 -1 8 15 6 14 -2 23 -8 22 -13z m-3232 -3
c0 -12 -30 -22 -43 -14 -7 4 -3 9 9 14 26 10 34 10 34 0z m1095 -2 c12 -18 -3
-22 -20 -5 -14 14 -14 16 -1 16 8 0 18 -5 21 -11z m351 -1 c5 4 5 3 1 -2 -13
-16 -37 -15 -37 1 0 12 3 13 13 4 8 -6 18 -7 23 -3z m524 2 c0 -5 -4 -10 -10
-10 -5 0 -10 5 -10 10 0 6 5 10 10 10 6 0 10 -4 10 -10z m-1480 -10 c0 -5 -2
-10 -4 -10 -3 0 -8 5 -11 10 -3 6 -1 10 4 10 6 0 11 -4 11 -10z m-583 -16 c-3
-3 -12 -4 -19 -1 -8 3 -5 6 6 6 11 1 17 -2 13 -5z m1267 -10 c3 -8 2 -12 -4
-9 -6 3 -10 10 -10 16 0 14 7 11 14 -7z m1363 -9 c0 -8 -4 -12 -9 -9 -4 3 -8
9 -8 15 0 5 4 9 8 9 5 0 9 -7 9 -15z m-1729 -9 c-7 -8 -17 -12 -22 -9 -4 3 -2
9 5 14 22 13 31 11 17 -5z m-1683 -6 c3 -5 1 -10 -4 -10 -6 0 -11 5 -11 10 0
6 2 10 4 10 3 0 8 -4 11 -10z m69 -6 c5 -14 4 -15 -9 -4 -17 14 -19 20 -6 20
5 0 12 -7 15 -16z m1208 -41 c7 -9 7 -13 0 -13 -12 0 -22 25 -21 48 1 13 3 12
6 -3 3 -11 10 -26 15 -32z m823 37 c-3 -5 -11 -10 -16 -10 -6 0 -7 5 -4 10 3
6 11 10 16 10 6 0 7 -4 4 -10z m-1715 -14 c0 -7 -9 -16 -20 -19 -11 -3 -20 -1
-20 4 0 5 7 9 15 9 8 0 15 5 15 10 0 6 2 10 5 10 3 0 5 -6 5 -14z m1331 -13
c13 -15 12 -15 -8 -4 -24 12 -29 21 -14 21 5 0 15 -7 22 -17z m-356 -23 c3 -5
2 -10 -4 -10 -5 0 -13 5 -16 10 -3 6 -2 10 4 10 5 0 13 -4 16 -10z m1289 -25
c-4 -8 -11 -12 -16 -9 -6 4 -5 10 3 15 19 12 19 11 13 -6z m-794 -5 c0 -5 -4
-10 -10 -10 -5 0 -10 5 -10 10 0 6 5 10 10 10 6 0 10 -4 10 -10z m-2007 -7 c3
-5 -6 -9 -20 -10 -19 -1 -22 1 -12 8 17 11 26 11 32 2z m938 -16 c-10 -9 -11
-8 -5 6 3 10 9 15 12 12 3 -3 0 -11 -7 -18z m3769 14 c0 -6 -4 -13 -10 -16 -5
-3 -10 1 -10 9 0 9 5 16 10 16 6 0 10 -4 10 -9z m-2806 -16 c-4 -8 -11 -15
-16 -15 -6 0 -5 6 2 15 7 8 14 15 16 15 2 0 1 -7 -2 -15z m-1984 -11 c0 -8 -4
-12 -10 -9 -5 3 -10 10 -10 16 0 5 5 9 10 9 6 0 10 -7 10 -16z m1454 1 c3 -8
1 -15 -4 -15 -6 0 -10 7 -10 15 0 8 2 15 4 15 2 0 6 -7 10 -15z m-1201 -10
c-3 -9 -8 -14 -10 -11 -3 3 -2 9 2 15 9 16 15 13 8 -4z m852 -14 c-6 -5 -25
10 -25 20 0 5 6 4 14 -3 8 -7 12 -15 11 -17z m858 -31 c-3 -11 -10 -20 -15
-20 -6 0 -7 7 -4 16 4 12 2 15 -9 10 -8 -3 -15 -1 -15 4 0 9 30 19 42 13 3 -2
4 -12 1 -23z m-1608 10 c-3 -5 -11 -10 -16 -10 -6 0 -7 5 -4 10 3 6 11 10 16
10 6 0 7 -4 4 -10z m62 4 c-3 -3 -12 -4 -19 -1 -8 3 -5 6 6 6 11 1 17 -2 13
-5z m1403 -8 c0 -2 -7 -7 -16 -10 -8 -3 -12 -2 -9 4 6 10 25 14 25 6z m-987
-68 c-2 -5 -9 -8 -15 -8 -6 0 -8 3 -5 7 4 3 -1 15 -10 27 -18 20 -18 20 8 0
15 -10 25 -22 22 -26z m4712 32 c3 -5 2 -10 -4 -10 -5 0 -13 5 -16 10 -3 6 -2
10 4 10 5 0 13 -4 16 -10z m-4245 -20 c0 -5 -7 -7 -15 -4 -8 4 -12 10 -9 15 6
11 24 2 24 -11z m615 0 c-3 -5 -12 -10 -18 -10 -7 0 -6 4 3 10 19 12 23 12 15
0z m-949 -26 c-4 -9 -9 -15 -11 -12 -3 3 -3 13 1 22 4 9 9 15 11 12 3 -3 3
-13 -1 -22z m378 14 c-3 -4 -9 -8 -15 -8 -5 0 -9 4 -9 8 0 5 7 9 15 9 8 0 12
-4 9 -9z m-420 -12 c-21 -15 -30 -14 -19 3 3 6 14 11 23 11 13 0 13 -2 -4 -14z
m144 -21 c-3 -3 -9 2 -12 12 -6 14 -5 15 5 6 7 -7 10 -15 7 -18z m362 -5 c0
-5 -2 -10 -4 -10 -3 0 -8 5 -11 10 -3 6 -1 10 4 10 6 0 11 -4 11 -10z m540
-20 c0 -5 -5 -10 -11 -10 -5 0 -7 5 -4 10 3 6 8 10 11 10 2 0 4 -4 4 -10z
m-290 -45 c0 -5 -5 -3 -10 5 -5 8 -10 20 -10 25 0 6 5 3 10 -5 5 -8 10 -19 10
-25z m-610 6 c0 -6 -4 -13 -10 -16 -5 -3 -10 1 -10 9 0 9 5 16 10 16 6 0 10
-4 10 -9z m400 -1 c0 -5 -2 -10 -4 -10 -3 0 -8 5 -11 10 -3 6 -1 10 4 10 6 0
11 -4 11 -10z m0 -34 c0 -3 -4 -8 -10 -11 -5 -3 -10 -1 -10 4 0 6 5 11 10 11
6 0 10 -2 10 -4z m-173 -38 c-3 -8 -6 -5 -6 6 -1 11 2 17 5 13 3 -3 4 -12 1
-19z m-187 -18 c6 -11 8 -20 6 -20 -3 0 -10 9 -16 20 -6 11 -8 20 -6 20 3 0
10 -9 16 -20z m3300 8 c0 6 8 9 18 7 9 -2 22 -4 27 -5 6 -1 -3 -5 -20 -9 -36
-8 -67 -3 -59 11 3 5 12 4 20 -3 9 -7 14 -8 14 -1z m-3716 -6 c2 -4 -5 -9 -17
-9 -17 -2 -19 0 -7 7 18 12 18 12 24 2z m4026 -2 c0 -5 -7 -7 -15 -4 -8 4 -15
8 -15 10 0 2 7 4 15 4 8 0 15 -4 15 -10z m90 -4 c0 -2 -7 -6 -15 -10 -8 -3
-15 -1 -15 4 0 6 7 10 15 10 8 0 15 -2 15 -4z m69 -19 c0 -8 -2 -8 -6 1 -4 10
-8 10 -21 0 -15 -12 -16 -11 -3 4 14 19 32 15 30 -5z m-1108 -10 c-10 -9 -11
-8 -5 6 3 10 9 15 12 12 3 -3 0 -11 -7 -18z m-4160 -34 c13 -17 13 -17 -6 -3
-11 8 -22 16 -24 17 -2 2 0 3 6 3 6 0 17 -8 24 -17z m1169 -13 c0 -5 -5 -10
-11 -10 -5 0 -7 5 -4 10 3 6 8 10 11 10 2 0 4 -4 4 -10z m-550 -20 c0 -5 -2
-10 -4 -10 -3 0 -8 5 -11 10 -3 6 -1 10 4 10 6 0 11 -4 11 -10z m-890 -10 c0
-5 -2 -10 -4 -10 -3 0 -8 5 -11 10 -3 6 -1 10 4 10 6 0 11 -4 11 -10z m301 -7
c13 -16 12 -17 -3 -4 -10 7 -18 15 -18 17 0 8 8 3 21 -13z m1849 7 c0 -5 -4
-10 -10 -10 -5 0 -10 5 -10 10 0 6 5 10 10 10 6 0 10 -4 10 -10z m-1000 -20
c0 -5 -2 -10 -4 -10 -3 0 -8 5 -11 10 -3 6 -1 10 4 10 6 0 11 -4 11 -10z
m-332 -25 c-3 -3 -9 2 -12 12 -6 14 -5 15 5 6 7 -7 10 -15 7 -18z m129 -17
c-3 -8 -6 -5 -6 6 -1 11 2 17 5 13 3 -3 4 -12 1 -19z m-124 -15 c3 -5 -6 -9
-20 -10 -19 -1 -22 1 -12 8 17 11 26 11 32 2z m1207 -23 c0 -5 -5 -10 -11 -10
-5 0 -7 5 -4 10 3 6 8 10 11 10 2 0 4 -4 4 -10z m-1005 -20 c3 -6 -1 -7 -9 -4
-18 7 -21 14 -7 14 6 0 13 -4 16 -10z m75 -28 c0 -4 -9 -8 -19 -8 -15 0 -17 3
-9 13 10 12 28 9 28 -5z m160 -2 c-6 -11 -15 -20 -20 -20 -6 0 -2 9 7 20 10
11 19 20 21 20 1 0 -2 -9 -8 -20z m261 3 c13 -16 12 -17 -3 -4 -17 13 -22 21
-14 21 2 0 10 -8 17 -17z m-1016 -12 c6 -11 -33 -26 -42 -17 -4 3 1 6 11 6 9
0 14 5 11 10 -3 6 -2 10 4 10 5 0 12 -4 16 -9z m380 -10 c3 -5 2 -12 -3 -15
-5 -3 -9 1 -9 9 0 17 3 19 12 6z m181 -19 c-10 -2 -22 0 -28 6 -6 6 0 7 19 4
21 -5 23 -7 9 -10z m-1226 -22 c0 -5 -5 -10 -11 -10 -5 0 -7 5 -4 10 3 6 8 10
11 10 2 0 4 -4 4 -10z m320 -10 c0 -5 -2 -10 -4 -10 -3 0 -8 5 -11 10 -3 6 -1
10 4 10 6 0 11 -4 11 -10z m655 0 c3 -5 -1 -10 -10 -10 -9 0 -13 5 -10 10 3 6
8 10 10 10 2 0 7 -4 10 -10z m5685 -10 c0 -5 -4 -10 -10 -10 -5 0 -10 5 -10
10 0 6 5 10 10 10 6 0 10 -4 10 -10z m-6973 -172 c-3 -8 -6 -5 -6 6 -1 11 2
17 5 13 3 -3 4 -12 1 -19z m240 -12 c0 -8 -6 -12 -15 -9 -11 5 -11 7 0 14 7 5
13 9 14 9 0 0 1 -6 1 -14z m-580 -98 c-3 -8 -6 -5 -6 6 -1 11 2 17 5 13 3 -3
4 -12 1 -19z m119 -113 c-9 -9 -16 -13 -16 -8 0 12 22 34 28 28 2 -2 -3 -11
-12 -20z m3444 -25 c0 -5 -4 -10 -10 -10 -5 0 -10 5 -10 10 0 6 5 10 10 10 6
0 10 -4 10 -10z m3408 -25 c-3 -3 -9 2 -12 12 -6 14 -5 15 5 6 7 -7 10 -15 7
-18z m-6658 1 c0 -3 -4 -8 -10 -11 -5 -3 -10 -1 -10 4 0 6 5 11 10 11 6 0 10
-2 10 -4z m3220 -6 c0 -5 -7 -7 -15 -4 -8 4 -15 8 -15 10 0 2 7 4 15 4 8 0 15
-4 15 -10z m-2515 -18 c-3 -3 -11 0 -18 7 -9 10 -8 11 6 5 10 -3 15 -9 12 -12z
m2812 -14 c-3 -8 -6 -5 -6 6 -1 11 2 17 5 13 3 -3 4 -12 1 -19z m-2737 -133
c0 -12 -19 -12 -23 0 -4 9 -1 12 9 8 7 -3 14 -7 14 -8z m-880 -345 c0 -5 -2
-10 -4 -10 -3 0 -8 5 -11 10 -3 6 -1 10 4 10 6 0 11 -4 11 -10z"/>
<path d="M3500 4204 c0 -14 4 -23 9 -19 11 6 10 45 -1 45 -4 0 -8 -12 -8 -26z"/>
<path d="M3306 4233 c-7 -8 22 -35 34 -31 6 2 2 11 -9 20 -11 9 -22 14 -25 11z"/>
<path d="M2116 4081 c-3 -5 1 -11 9 -15 8 -3 15 -1 15 4 0 13 -18 22 -24 11z"/>
</g>
</svg>
