<?xml version="1.0" standalone="no"?>
<!DOCTYPE svg PUBLIC "-//W3C//DTD SVG 20010904//EN"
 "http://www.w3.org/TR/2001/REC-SVG-20010904/DTD/svg10.dtd">
<svg version="1.0" xmlns="http://www.w3.org/2000/svg"
 width="370.000000pt" height="400.000000pt" viewBox="0 0 370.000000 400.000000"
 preserveAspectRatio="xMidYMid meet">

<g transform="translate(0.000000,400.000000) scale(0.100000,-0.100000)"
fill="#000000" stroke="none">
<path d="M0 2000 l0 -2000 273 0 c159 0 266 4 258 9 -7 5 -11 14 -7 19 10 16
38 2 32 -15 -5 -12 8 -13 72 -11 51 2 76 7 75 15 -1 6 5 17 13 24 13 11 14 9
9 -14 -7 -26 -6 -27 35 -27 l42 0 -16 25 c-12 18 -13 24 -4 23 7 -2 15 -12 18
-23 5 -17 16 -21 63 -23 42 -2 57 1 57 10 0 9 3 9 10 -2 9 -13 11 -13 20 0 5
8 10 20 10 25 0 6 -5 3 -10 -5 -8 -13 -10 -12 -10 3 0 12 6 17 18 15 11 -2 16
-11 14 -25 l-3 -22 570 -1 c314 0 571 3 571 6 0 3 -10 14 -22 25 -13 10 -17
18 -10 19 7 0 23 -11 36 -25 l24 -25 532 0 c400 1 530 4 521 13 -13 13 -15 31
-2 22 5 -3 13 0 16 6 5 7 -1 9 -15 7 -13 -2 -25 3 -27 10 -3 8 5 12 24 12 22
0 29 -5 30 -21 4 -43 20 -50 115 -47 64 1 92 6 95 15 3 7 9 10 14 7 5 -3 7
-10 4 -15 -4 -5 46 -9 124 -9 l131 0 0 2000 0 2000 -415 0 -415 0 0 -30 c0
-30 15 -41 22 -18 3 7 7 2 10 -10 4 -12 1 -25 -4 -29 -7 -4 -8 -1 -3 8 4 8 -2
4 -14 -9 -12 -12 -26 -20 -32 -17 -5 4 -9 -1 -9 -10 0 -9 -6 -15 -12 -12 -8 2
-19 -16 -30 -47 -9 -28 -17 -43 -17 -33 -1 10 4 28 10 39 8 14 8 27 1 43 -9
20 -8 22 15 19 18 -2 23 1 19 13 -14 37 -17 61 -7 67 6 4 11 3 11 -2 0 -6 7
-12 15 -16 11 -4 15 1 15 19 0 21 -5 25 -30 25 -19 0 -30 -5 -30 -14 0 -8 -5
-18 -11 -22 -8 -4 -9 0 -4 15 6 20 3 21 -75 21 -68 0 -81 -3 -77 -15 4 -8 2
-17 -3 -20 -6 -4 -10 3 -10 14 0 20 -6 21 -100 21 l-100 0 4 -45 c3 -35 1 -42
-8 -32 -7 7 -15 19 -19 27 -3 9 -6 10 -6 3 -1 -7 -6 -13 -11 -13 -7 0 -7 6 -1
19 6 10 7 22 3 26 -4 5 1 5 11 2 9 -4 17 -2 17 2 0 5 -43 10 -96 10 -61 1 -93
-3 -89 -9 3 -6 1 -10 -4 -10 -6 0 -11 5 -11 10 0 6 -7 10 -15 10 -18 0 -19
-14 -4 -41 6 -11 8 -25 6 -32 -2 -7 -10 7 -17 30 l-13 43 -1084 0 -1083 0 0
-2000z m1066 1955 c4 -14 4 -29 0 -32 -3 -4 -6 1 -6 11 0 9 -4 15 -8 12 -4 -2
-8 4 -8 15 0 27 15 23 22 -6z m1181 -12 c-3 -10 -5 -4 -5 12 0 17 2 24 5 18 2
-7 2 -21 0 -30z m133 33 c0 -3 -4 -8 -10 -11 -5 -3 -10 -1 -10 4 0 6 5 11 10
11 6 0 10 -2 10 -4z m363 -21 c4 -8 2 -17 -3 -20 -6 -4 -10 3 -10 14 0 25 6
27 13 6z m-516 -24 c-1 -16 -5 -27 -8 -25 -10 6 -8 54 2 54 4 0 7 -13 6 -29z
m220 7 c-3 -8 -6 -5 -6 6 -1 11 2 17 5 13 3 -3 4 -12 1 -19z m-180 -20 c-3 -7
-5 -2 -5 12 0 14 2 19 5 13 2 -7 2 -19 0 -25z m-980 0 c-3 -8 -6 -5 -6 6 -1
11 2 17 5 13 3 -3 4 -12 1 -19z m891 -2 c14 -31 -8 -56 -28 -31 -10 12 -10 15
0 15 7 0 10 8 7 20 -7 28 8 25 21 -4z m429 2 c-3 -8 -6 -5 -6 6 -1 11 2 17 5
13 3 -3 4 -12 1 -19z m-517 -38 c0 -13 -1 -13 -10 0 -5 8 -10 22 -10 30 0 13
1 13 10 0 5 -8 10 -22 10 -30z m419 23 c12 9 13 9 7 0 -4 -7 -3 -13 3 -13 6 0
8 -7 5 -15 -5 -11 -10 -12 -26 -4 -15 8 -19 8 -14 0 4 -6 3 -18 -1 -26 -6 -10
-9 -2 -10 27 -2 30 1 38 9 30 9 -9 15 -8 27 1z m-259 -23 c0 -5 -4 -10 -10
-10 -5 0 -10 5 -10 10 0 6 5 10 10 10 6 0 10 -4 10 -10z m-240 -36 c0 -8 -4
-12 -10 -9 -5 3 -10 13 -10 21 0 8 5 12 10 9 6 -3 10 -13 10 -21z m130 16 c0
-5 -5 -10 -11 -10 -5 0 -7 5 -4 10 3 6 8 10 11 10 2 0 4 -4 4 -10z m-239 -14
c5 3 9 -5 9 -17 0 -18 -2 -19 -15 -9 -8 7 -15 20 -14 29 0 10 2 12 6 3 2 -6 9
-10 14 -6z m346 -8 c-3 -8 -6 -5 -6 6 -1 11 2 17 5 13 3 -3 4 -12 1 -19z
m-698 -38 c0 -9 -4 -8 -9 5 -5 11 -9 27 -9 35 0 9 4 8 9 -5 5 -11 9 -27 9 -35z
m762 -20 c4 -3 7 -20 7 -38 -1 -22 -4 -29 -9 -20 -5 7 -9 9 -9 3 0 -5 -5 -3
-10 5 -5 8 -9 40 -8 70 1 54 1 55 11 20 6 -19 14 -37 18 -40z m-734 45 c-4 -8
-2 -17 3 -20 5 -3 11 5 13 17 3 17 5 14 6 -10 0 -18 5 -31 10 -28 5 3 12 -1
15 -10 8 -20 2 -28 -16 -22 -7 3 -17 5 -22 4 -12 -1 -26 51 -19 70 3 8 7 14
10 14 3 0 3 -7 0 -15z m520 -37 c-3 -8 -6 -5 -6 6 -1 11 2 17 5 13 3 -3 4 -12
1 -19z m420 0 c-3 -8 -6 -5 -6 6 -1 11 2 17 5 13 3 -3 4 -12 1 -19z m-22 2 c3
-5 1 -10 -4 -10 -6 0 -11 5 -11 10 0 6 2 10 4 10 3 0 8 -4 11 -10z m-1696 -18
c8 -14 6 -19 -5 -19 -7 0 -14 9 -14 19 0 10 2 18 5 18 2 0 9 -8 14 -18z m233
-44 c-6 -6 -7 0 -4 19 5 21 7 23 10 9 2 -10 0 -22 -6 -28z m1476 -28 c-1 -28
-6 -44 -10 -36 -7 12 0 86 8 86 2 0 3 -22 2 -50z m-1431 3 c-3 -10 -5 -4 -5
12 0 17 2 24 5 18 2 -7 2 -21 0 -30z m-153 12 c3 -8 1 -15 -4 -15 -6 0 -10 7
-10 15 0 8 2 15 4 15 2 0 6 -7 10 -15z m267 -2 c13 -16 12 -17 -3 -4 -10 7
-18 15 -18 17 0 8 8 3 21 -13z m1069 -4 c0 -5 -4 -9 -10 -9 -5 0 -10 7 -10 16
0 8 5 12 10 9 6 -3 10 -10 10 -16z m77 -21 c-3 -7 -5 -2 -5 12 0 14 2 19 5 13
2 -7 2 -19 0 -25z m280 0 c-3 -7 -5 -2 -5 12 0 14 2 19 5 13 2 -7 2 -19 0 -25z
m-1560 -30 c-2 -13 -4 -5 -4 17 -1 22 1 32 4 23 2 -10 2 -28 0 -40z m868 42
c3 -5 1 -10 -4 -10 -6 0 -11 5 -11 10 0 6 2 10 4 10 3 0 8 -4 11 -10z m655
-22 c0 -12 -3 -18 -7 -14 -10 10 -11 46 -1 40 4 -3 8 -15 8 -26z m-473 -10
c-3 -8 -6 -5 -6 6 -1 11 2 17 5 13 3 -3 4 -12 1 -19z m444 -13 c5 4 9 -8 9
-26 0 -35 -17 -30 -24 7 -2 10 -5 24 -6 29 -1 6 -1 15 0 20 2 6 5 0 7 -13 2
-12 9 -20 14 -17z m-344 3 c-3 -8 -6 -5 -6 6 -1 11 2 17 5 13 3 -3 4 -12 1
-19z m-759 -13 c-3 -3 -9 2 -12 12 -6 14 -5 15 5 6 7 -7 10 -15 7 -18z m809 3
c-3 -8 -6 -5 -6 6 -1 11 2 17 5 13 3 -3 4 -12 1 -19z m346 -8 c-3 -11 -7 -20
-9 -20 -2 0 -4 9 -4 20 0 11 4 20 9 20 5 0 7 -9 4 -20z m476 -14 c-1 -16 -2
-17 -6 -3 -2 9 -9 17 -14 17 -5 0 -9 4 -9 10 0 5 7 7 15 4 8 -4 14 -16 14 -28z
m-421 -12 c-3 -14 -5 -12 -10 9 -3 19 -2 25 4 19 6 -6 8 -18 6 -28z m-971 -8
c-2 -38 -20 -33 -30 7 -6 21 -6 21 8 3 15 -19 15 -19 15 2 0 12 2 22 5 22 3 0
4 -15 2 -34z m1363 6 c0 -15 -2 -15 -10 -2 -13 20 -13 33 0 25 6 -3 10 -14 10
-23z m-467 -2 c3 -11 1 -18 -4 -14 -5 3 -9 12 -9 20 0 20 7 17 13 -6z m-1540
-10 c3 -11 1 -18 -4 -14 -5 3 -9 12 -9 20 0 20 7 17 13 -6z m1002 -7 l18 -28
-25 23 c-13 12 -28 19 -31 15 -4 -3 -7 -1 -7 5 0 22 28 12 45 -15z m25 2 c14
-19 14 -19 -2 -6 -10 7 -18 18 -18 24 0 6 1 8 3 6 1 -2 9 -13 17 -24z m217
-12 c1 -24 0 -25 -6 -8 -7 17 -6 35 2 35 2 0 3 -12 4 -27z m-719 -19 c0 -18
-3 -22 -9 -13 -11 18 -11 52 0 45 5 -3 9 -17 9 -32z m559 -26 c-3 -7 -5 -2 -5
12 0 14 2 19 5 13 2 -7 2 -19 0 -25z m-1400 0 c-3 -8 -6 -5 -6 6 -1 11 2 17 5
13 3 -3 4 -12 1 -19z m160 0 c-3 -8 -6 -5 -6 6 -1 11 2 17 5 13 3 -3 4 -12 1
-19z m590 0 c-3 -8 -6 -5 -6 6 -1 11 2 17 5 13 3 -3 4 -12 1 -19z m851 -17
c-15 -5 -19 4 -11 24 6 18 7 18 13 -1 4 -10 3 -21 -2 -23z m-1551 7 c-3 -8 -6
-5 -6 6 -1 11 2 17 5 13 3 -3 4 -12 1 -19z m1400 -35 c-3 -10 -5 -4 -5 12 0
17 2 24 5 18 2 -7 2 -21 0 -30z m-582 16 c11 -16 1 -19 -13 -3 -7 8 -8 14 -3
14 5 0 13 -5 16 -11z m152 -11 c-3 -8 -6 -5 -6 6 -1 11 2 17 5 13 3 -3 4 -12
1 -19z m-767 2 c0 -5 -7 -10 -16 -10 -8 0 -12 5 -9 10 3 6 10 10 16 10 5 0 9
-4 9 -10z m840 -15 c-19 -14 -37 -30 -41 -36 -7 -12 -29 -4 -29 11 0 12 56 41
64 33 3 -4 6 -1 6 5 0 7 8 12 17 12 11 0 6 -8 -17 -25z m633 -15 c3 -11 1 -18
-4 -14 -5 3 -9 12 -9 20 0 20 7 17 13 -6z m-289 -6 c3 -8 2 -12 -4 -9 -6 3
-10 10 -10 16 0 14 7 11 14 -7z m-1762 -16 c-7 -7 -12 -8 -12 -2 0 14 12 26
19 19 2 -3 -1 -11 -7 -17z m113 12 c3 -6 -1 -7 -9 -4 -18 7 -21 14 -7 14 6 0
13 -4 16 -10z m1839 -6 c3 -8 2 -12 -4 -9 -6 3 -10 10 -10 16 0 14 7 11 14 -7z
m-328 -21 c-10 -10 -19 5 -10 18 6 11 8 11 12 0 2 -7 1 -15 -2 -18z m-969 -20
c-3 -10 -5 -4 -5 12 0 17 2 24 5 18 2 -7 2 -21 0 -30z m767 28 c4 -5 -3 -7
-14 -4 -23 6 -26 13 -6 13 8 0 17 -4 20 -9z m836 -21 c6 -11 8 -20 6 -20 -3 0
-10 9 -16 20 -6 11 -8 20 -6 20 3 0 10 -9 16 -20z m306 4 c-3 -9 -6 -18 -6
-20 0 -3 -4 -3 -10 1 -11 7 -2 35 12 35 6 0 7 -7 4 -16z m-508 -33 c-15 -5
-19 4 -11 24 6 18 7 18 13 -1 4 -10 3 -21 -2 -23z m-1515 22 c-7 -2 -19 -2
-25 0 -7 3 -2 5 12 5 14 0 19 -2 13 -5z m302 -3 c-3 -5 -12 -10 -18 -10 -7 0
-6 4 3 10 19 12 23 12 15 0z m458 -5 c-3 -9 -8 -14 -10 -11 -3 3 -2 9 2 15 9
16 15 13 8 -4z m1281 -11 c3 -8 2 -12 -4 -9 -6 3 -10 10 -10 16 0 14 7 11 14
-7z m-1374 -5 c0 8 2 12 5 9 4 -3 3 -18 -1 -32 -8 -32 -16 -27 -20 11 -2 21
-1 24 6 13 8 -12 10 -13 10 -1z m153 4 c3 -5 -8 -8 -23 -8 -15 0 -26 3 -23 8
2 4 13 7 23 7 10 0 21 -3 23 -7z m51 -5 c-5 -8 -2 -9 9 -5 23 9 21 0 -2 -12
-14 -8 -22 -7 -32 6 -8 10 -9 14 -2 10 6 -4 14 -3 18 3 3 5 8 10 11 10 3 0 2
-5 -2 -12z m-889 -8 c3 -5 2 -10 -4 -10 -5 0 -13 5 -16 10 -3 6 -2 10 4 10 5
0 13 -4 16 -10z m2610 -75 c0 -40 -3 -71 -6 -69 -13 8 -17 77 -6 101 9 21 9
27 -1 31 -7 2 -9 8 -6 14 13 20 19 -6 19 -77z m-3110 55 c3 -5 1 -10 -4 -10
-6 0 -11 5 -11 10 0 6 2 10 4 10 3 0 8 -4 11 -10z m262 -12 c-3 -8 -6 -5 -6 6
-1 11 2 17 5 13 3 -3 4 -12 1 -19z m37 -37 c-6 -6 -11 1 -18 29 l-7 25 15 -25
c8 -14 12 -27 10 -29z m1006 39 c-20 -13 -33 -13 -25 0 3 6 14 10 23 10 15 0
15 -2 2 -10z m133 -7 c5 -8 -79 -11 -87 -3 -2 3 15 6 39 8 24 1 46 -1 48 -5z
m1618 -30 c-12 -20 -14 -14 -5 12 4 9 9 14 11 11 3 -2 0 -13 -6 -23z m-1483 3
c-7 -8 -15 -12 -17 -11 -5 6 10 25 20 25 5 0 4 -6 -3 -14z m289 -8 c-3 -8 -6
-5 -6 6 -1 11 2 17 5 13 3 -3 4 -12 1 -19z m810 0 c-3 -8 -6 -5 -6 6 -1 11 2
17 5 13 3 -3 4 -12 1 -19z m-2492 2 c-3 -5 -12 -10 -18 -10 -7 0 -6 4 3 10 19
12 23 12 15 0z m1241 -5 c18 -13 17 -14 -11 -6 -16 4 -37 6 -45 4 -13 -4 -13
-3 0 6 20 14 33 14 56 -4z m-1429 -27 c-3 -7 -5 -2 -5 12 0 14 2 19 5 13 2 -7
2 -19 0 -25z m2743 3 c0 -4 -7 -8 -15 -8 -8 0 -12 4 -9 9 3 4 0 8 -5 8 -6 0
-11 5 -11 10 0 7 6 7 20 0 11 -6 20 -14 20 -19z m-2862 -26 c-3 -3 -9 2 -12
12 -6 14 -5 15 5 6 7 -7 10 -15 7 -18z m42 10 c7 -9 8 -15 2 -15 -5 0 -12 7
-16 15 -3 8 -4 15 -2 15 2 0 9 -7 16 -15z m1451 -2 c12 -16 12 -17 -2 -6 -9 7
-20 9 -24 5 -5 -4 -5 -1 -1 6 9 16 11 15 27 -5z m669 -3 c-8 -5 -23 -10 -34
-10 -15 0 -16 -3 -7 -14 10 -12 8 -13 -10 -9 -15 4 -20 3 -15 -5 4 -7 3 -12
-2 -12 -6 0 -13 7 -16 16 -3 8 -10 12 -16 9 -6 -4 -8 -11 -4 -16 3 -5 0 -8 -7
-7 -6 2 -13 -2 -16 -9 -3 -8 3 -11 17 -8 12 2 18 0 14 -6 -3 -6 -15 -9 -25 -6
-31 8 -22 -17 12 -32 16 -7 28 -16 25 -19 -3 -2 -12 1 -20 7 -8 7 -19 10 -25
7 -15 -10 -23 29 -10 57 15 34 75 62 139 66 13 1 13 0 0 -9z m-1083 -32 c-3
-7 -5 -2 -5 12 0 14 2 19 5 13 2 -7 2 -19 0 -25z m-496 2 c9 0 19 -6 22 -13 9
-23 -38 -8 -52 16 -11 18 -11 20 0 10 7 -7 21 -13 30 -13z m-623 -15 c-3 -3
-9 2 -12 12 -6 14 -5 15 5 6 7 -7 10 -15 7 -18z m1810 13 c19 -19 14 -33 -6
-15 -10 10 -22 14 -25 10 -4 -3 -7 -1 -7 5 0 16 23 15 38 0z m-894 -47 c-5 -6
-33 31 -33 44 -1 6 8 -1 19 -15 10 -14 17 -27 14 -29z m1601 34 c-16 -7 -39
-15 -50 -16 -11 -2 -23 -8 -26 -13 -4 -4 -9 -3 -13 2 -4 7 11 15 36 22 24 6
48 13 53 15 26 9 26 2 0 -10z m-2404 -28 c-10 -9 -11 -8 -5 6 3 10 9 15 12 12
3 -3 0 -11 -7 -18z m3037 3 c-7 -11 -15 -15 -17 -9 -2 6 3 15 10 20 20 12 21
11 7 -11z m-1921 -4 c0 -8 -6 -12 -15 -9 -11 5 -11 7 0 14 7 5 13 9 14 9 0 0
1 -6 1 -14z m1283 7 c-8 -4 -20 -13 -26 -21 -6 -8 -21 -12 -35 -10 -23 4 -22
5 11 21 19 9 42 16 50 16 13 -1 13 -1 0 -6z m-1865 -13 c3 -6 -1 -7 -9 -4 -18
7 -21 14 -7 14 6 0 13 -4 16 -10z m292 -27 c-3 -10 -5 -4 -5 12 0 17 2 24 5
18 2 -7 2 -21 0 -30z m30 5 c-3 -7 -5 -2 -5 12 0 14 2 19 5 13 2 -7 2 -19 0
-25z m2153 21 c0 -5 -4 -7 -10 -4 -5 3 -10 1 -10 -5 0 -6 -4 -9 -9 -5 -5 3
-12 1 -16 -5 -4 -6 -10 -8 -15 -5 -5 3 -22 -1 -38 -9 -25 -13 -29 -13 -29 0 0
8 6 13 13 10 8 -3 16 -1 19 4 3 5 -3 11 -12 13 -10 3 1 4 25 3 23 -2 45 1 48
5 7 13 34 11 34 -2z m-3024 -11 c3 -4 -1 -5 -10 -4 -8 1 -18 5 -22 8 -3 4 1 5
10 4 8 -1 18 -5 22 -8z m1078 -4 c3 -8 2 -12 -4 -9 -6 3 -10 10 -10 16 0 14 7
11 14 -7z m-547 0 c-3 -3 -12 -4 -19 -1 -8 3 -5 6 6 6 11 1 17 -2 13 -5z
m1783 2 c0 -2 -8 -10 -17 -17 -16 -13 -17 -12 -4 4 13 16 21 21 21 13z m160
-15 c-5 -11 -15 -23 -21 -27 -6 -3 -3 5 6 20 20 30 30 35 15 7z m118 -46 c17
-20 17 -20 -4 -2 -20 16 -21 16 -19 -3 1 -11 4 -22 7 -25 8 -9 -3 -45 -13 -45
-5 0 -9 10 -10 23 0 12 -2 37 -5 55 -3 25 -1 31 9 26 7 -5 6 0 -3 11 -9 11
-10 16 -2 11 7 -4 13 -2 13 6 1 7 4 2 6 -12 3 -14 12 -34 21 -45z m-177 38
c13 -16 12 -17 -3 -4 -17 13 -22 21 -14 21 2 0 10 -8 17 -17z m599 -24 c15
-28 5 -23 -15 7 -9 15 -12 23 -6 20 6 -4 16 -16 21 -27z m-2820 18 c0 -2 -17
-19 -37 -38 l-38 -34 34 38 c33 34 41 42 41 34z m730 -12 c0 -8 -2 -15 -4 -15
-2 0 -6 7 -10 15 -3 8 -1 15 4 15 6 0 10 -7 10 -15z m1472 -2 c10 -9 18 -21
18 -27 0 -6 -7 -1 -15 11 -8 12 -25 24 -38 26 -18 3 -18 5 -3 6 11 0 28 -6 38
-16z m-512 3 c0 -3 -4 -8 -10 -11 -5 -3 -10 -1 -10 4 0 6 5 11 10 11 6 0 10
-2 10 -4z m-1143 -28 c-3 -8 -6 -5 -6 6 -1 11 2 17 5 13 3 -3 4 -12 1 -19z
m320 15 c-4 -3 -2 -12 4 -19 9 -11 7 -15 -5 -20 -22 -9 -34 5 -16 16 8 6 11
10 7 10 -9 0 1 20 10 20 4 0 3 -3 0 -7z m1381 -18 c-3 -3 -9 2 -12 12 -6 14
-5 15 5 6 7 -7 10 -15 7 -18z m686 9 c3 -8 2 -12 -4 -9 -6 3 -10 10 -10 16 0
14 7 11 14 -7z m-2879 -12 c-3 -3 -11 0 -18 7 -9 10 -8 11 6 5 10 -3 15 -9 12
-12z m2104 9 c8 -5 -1 -8 -27 -7 -23 0 -35 4 -29 8 16 10 39 10 56 -1z m606
-12 c12 -12 8 -11 -45 6 l-45 15 40 -6 c22 -3 44 -10 50 -15z m-2962 4 c-7 -2
-19 -2 -25 0 -7 3 -2 5 12 5 14 0 19 -2 13 -5z m933 -24 c-1 -16 -6 -32 -10
-36 -5 -4 -7 -1 -4 7 3 8 2 24 -3 36 -5 14 -3 21 6 21 8 0 12 -11 11 -28z
m244 16 c7 -9 8 -15 2 -15 -5 0 -12 7 -16 15 -3 8 -4 15 -2 15 2 0 9 -7 16
-15z m1582 -45 l20 -35 -32 35 c-21 23 -29 28 -25 15 5 -15 4 -17 -3 -6 -7 10
-6 20 1 33 8 12 13 14 16 6 2 -7 12 -29 23 -48z m-2517 30 c10 -11 13 -20 7
-20 -6 0 -15 6 -19 14 -4 7 -15 16 -23 19 -13 5 -13 6 1 6 9 1 24 -8 34 -19z
m1985 -12 c0 -6 -7 -5 -15 2 -8 7 -15 17 -15 22 0 6 7 5 15 -2 8 -7 15 -17 15
-22z m807 -15 c-3 -10 -5 -2 -5 17 0 19 2 27 5 18 2 -10 2 -26 0 -35z m200 25
c-3 -8 -6 -5 -6 6 -1 11 2 17 5 13 3 -3 4 -12 1 -19z m-327 -1 c20 -6 37 -15
38 -19 1 -4 14 -19 27 -32 14 -14 25 -30 25 -37 0 -6 -9 0 -20 14 -20 25 -94
67 -119 67 -7 0 -9 5 -6 10 8 13 12 12 55 -3z m145 -52 c-3 -31 -9 -55 -11
-52 -3 2 -2 30 2 61 4 31 9 54 12 52 2 -3 1 -30 -3 -61z m-3048 49 c-3 -3 -12
-4 -19 -1 -8 3 -5 6 6 6 11 1 17 -2 13 -5z m1557 -10 c4 -10 2 -13 -6 -8 -7 5
-9 2 -5 -9 5 -14 2 -15 -21 -6 l-27 9 23 -18 23 -18 -37 4 c-25 3 -35 1 -30
-7 4 -6 18 -11 31 -11 12 0 26 -7 29 -16 5 -14 4 -15 -9 -4 -8 7 -35 13 -58
14 -26 1 -44 6 -44 13 0 6 8 10 18 8 12 -2 16 1 13 10 -4 10 0 13 15 10 14 -2
21 1 21 11 0 12 19 19 43 15 4 0 7 4 7 9 0 15 7 12 14 -6z m371 6 c3 -6 -1 -7
-9 -4 -18 7 -21 14 -7 14 6 0 13 -4 16 -10z m536 -3 c-1 -12 -15 -9 -19 4 -3
6 1 10 8 8 6 -3 11 -8 11 -12z m524 -17 c9 -16 13 -30 11 -30 -3 0 -12 14 -21
30 -9 17 -13 30 -11 30 3 0 12 -13 21 -30z m-2756 -13 c13 -21 13 -21 -5 -5
-11 10 -29 16 -39 14 -11 -2 -14 -1 -7 1 6 3 12 8 12 13 0 15 25 1 39 -23z
m661 8 c14 -19 14 -19 -2 -6 -10 7 -18 18 -18 24 0 6 1 8 3 6 1 -2 9 -13 17
-24z m1434 11 c-3 -8 -13 -12 -25 -9 -27 7 -24 23 6 23 17 0 23 -4 19 -14z
m-1269 -6 c3 -6 -1 -7 -9 -4 -18 7 -21 14 -7 14 6 0 13 -4 16 -10z m1765 6 c0
-3 -4 -8 -10 -11 -5 -3 -10 -1 -10 4 0 6 5 11 10 11 6 0 10 -2 10 -4z m333
-16 c6 -8 8 -11 3 -7 -5 4 -19 1 -31 -7 -20 -13 -21 -13 -19 7 3 27 1 26 19
23 8 -1 21 -9 28 -16z m88 -3 c-13 -13 -26 -3 -16 12 3 6 11 8 17 5 6 -4 6
-10 -1 -17z m-3261 4 c0 -10 -50 -25 -58 -17 -3 3 6 10 19 15 31 13 39 13 39
2z m2975 -51 c16 -18 15 -18 -37 -2 -64 21 -78 29 -78 47 0 18 90 -18 115 -45z
m-2640 31 c-3 -11 -1 -22 5 -26 6 -3 8 -11 4 -16 -3 -5 -10 -7 -15 -4 -10 7
-12 48 -2 58 11 12 15 8 8 -12z m570 -8 l18 -28 -21 19 c-12 11 -22 23 -22 28
0 14 7 9 25 -19z m-192 4 c3 -8 -1 -14 -8 -14 -7 0 -11 6 -8 14 3 7 6 13 8 13
2 0 5 -6 8 -13z m1611 -8 c-6 -11 -24 -2 -24 11 0 5 7 7 15 4 8 -4 12 -10 9
-15z m-2118 -5 c18 -14 18 -15 -4 -4 -19 9 -28 8 -48 -5 -27 -18 -31 -14 -8 9
20 20 35 20 60 0z m433 13 c-2 -1 -13 -9 -24 -17 -19 -14 -19 -14 -6 3 7 9 18
17 24 17 6 0 8 -1 6 -3z m421 -1 c0 -2 -13 -6 -29 -8 -17 -2 -28 -1 -25 4 5 8
54 12 54 4z m217 -2 c-3 -3 -12 -4 -19 -1 -8 3 -5 6 6 6 11 1 17 -2 13 -5z
m454 -17 c-10 -9 -11 -8 -5 6 3 10 9 15 12 12 3 -3 0 -11 -7 -18z m-1739 0
c-20 -6 -36 -6 -42 -1 -5 5 8 10 33 10 l42 2 -33 -11z m89 -4 c13 -16 12 -17
-3 -4 -10 7 -18 15 -18 17 0 8 8 3 21 -13z m820 -15 c11 -21 11 -22 -4 -9 -10
7 -17 17 -17 22 0 15 9 10 21 -13z m783 13 c-9 -9 -34 -9 -34 -1 0 5 9 8 20 7
10 -1 17 -3 14 -6z m1231 -19 c24 -8 26 -11 9 -11 -12 -1 -30 7 -41 17 -10 9
-14 14 -8 11 5 -4 24 -11 40 -17z m-2923 -5 c-14 -6 -26 -7 -32 -1 -5 5 4 9
23 10 30 1 30 1 9 -9z m289 -10 c-10 -9 -11 -8 -5 6 3 10 9 15 12 12 3 -3 0
-11 -7 -18z m453 7 c3 -8 2 -12 -4 -9 -6 3 -10 10 -10 16 0 14 7 11 14 -7z
m792 -11 c17 -16 23 -23 15 -16 -9 6 -32 18 -51 26 -25 11 -29 16 -15 16 12 1
34 -11 51 -26z m-1333 4 c3 -8 0 -14 -6 -14 -7 0 -22 -3 -34 -7 -25 -8 -30 3
-11 22 16 16 45 15 51 -1z m1516 -3 c10 -9 -35 -3 -49 6 -11 8 -7 9 15 4 17
-4 32 -8 34 -10z m76 6 c3 -5 2 -10 -4 -10 -5 0 -13 5 -16 10 -3 6 -2 10 4 10
5 0 13 -4 16 -10z m645 4 c0 -9 -70 -35 -80 -29 -5 3 -14 -3 -20 -14 -9 -18
-6 -21 23 -26 18 -4 38 -15 45 -25 11 -18 9 -18 -24 2 -28 16 -40 18 -57 10
-17 -8 -18 -11 -5 -11 24 -1 78 -34 78 -48 0 -8 -12 -5 -35 8 -20 12 -44 19
-55 16 -24 -6 -25 4 -4 48 18 39 48 62 90 68 16 2 32 5 37 6 4 0 7 -1 7 -5z
m-1805 -14 c-3 -5 -12 -10 -18 -10 -7 0 -6 4 3 10 19 12 23 12 15 0z m661 -27
c-4 -4 -11 -1 -16 7 -16 25 -11 35 7 17 9 -9 13 -20 9 -24z m310 0 c-18 -33
-21 -26 -6 13 6 15 13 24 16 21 3 -3 -1 -18 -10 -34z m-688 2 c-3 -3 -9 2 -12
12 -6 14 -5 15 5 6 7 -7 10 -15 7 -18z m573 15 c10 -6 19 -15 19 -19 0 -14
-38 -1 -44 15 -6 17 -1 17 25 4z m185 -2 c4 -7 3 -8 -4 -4 -6 4 -22 2 -34 -4
-22 -11 -22 -10 -4 4 24 19 32 20 42 4z m-624 -31 c-12 -13 -20 -26 -17 -29 3
-3 -3 -8 -15 -11 -32 -8 -24 19 13 41 42 27 45 26 19 -1z m1383 13 c3 -6 -1
-7 -9 -4 -18 7 -21 14 -7 14 6 0 13 -4 16 -10z m180 0 c-3 -5 -11 -10 -16 -10
-6 0 -7 5 -4 10 3 6 11 10 16 10 6 0 7 -4 4 -10z m-2420 -9 c-16 -14 -55 -23
-55 -12 0 8 16 14 55 20 6 0 6 -2 0 -8z m449 -2 c-6 -11 -31 -12 -37 -1 -3 4
6 8 19 8 13 1 21 -2 18 -7z m264 -17 c0 -9 2 -24 6 -33 4 -10 0 -21 -11 -29
-15 -12 -16 -12 -5 0 20 23 14 35 -8 15 -11 -10 -20 -16 -21 -14 0 2 -2 12 -4
22 -3 14 0 16 9 8 13 -11 26 -5 26 11 0 5 -4 7 -9 3 -5 -3 -13 -1 -16 5 -4 6
-1 9 7 8 7 -2 12 5 12 14 -1 10 2 15 6 13 5 -3 8 -13 8 -23z m632 12 c0 -8 -4
-12 -10 -9 -5 3 -10 10 -10 16 0 5 5 9 10 9 6 0 10 -7 10 -16z m132 2 c6 4 8
3 5 -2 -6 -10 -67 -18 -67 -9 0 10 45 23 48 14 2 -5 9 -6 14 -3z m148 -1 c-7
-8 -17 -15 -23 -15 -6 0 -2 7 9 15 25 19 30 19 14 0z m598 -5 c12 -12 22 -24
22 -27 0 -4 -10 3 -22 14 -13 11 -30 23 -38 26 -13 5 -13 6 1 6 8 1 25 -8 37
-19z m-2094 -3 c-2 -7 -14 -19 -27 -26 -21 -13 -21 -12 2 13 27 29 33 32 25
13z m933 -9 c-3 -8 -6 -5 -6 6 -1 11 2 17 5 13 3 -3 4 -12 1 -19z m243 -41 c0
-7 -7 -3 -15 8 -8 11 -19 25 -25 32 -5 7 -10 16 -10 20 0 4 12 -5 25 -20 14
-15 25 -33 25 -40z m1020 49 c0 -2 -7 -7 -16 -10 -8 -3 -12 -2 -9 4 6 10 25
14 25 6z m-1939 -33 c-12 -20 -14 -14 -5 12 4 9 9 14 11 11 3 -2 0 -13 -6 -23z
m369 23 c0 -3 -4 -8 -10 -11 -5 -3 -10 -1 -10 4 0 6 5 11 10 11 6 0 10 -2 10
-4z m130 -6 c18 -12 2 -12 -25 0 -13 6 -15 9 -5 9 8 0 22 -4 30 -9z m716 -18
c-3 -2 5 -13 17 -24 l22 -19 -25 14 c-14 8 -33 13 -42 12 -12 -2 -15 2 -10 13
4 10 7 12 10 4 2 -7 8 -9 13 -6 6 3 5 12 -3 22 -12 15 -11 16 5 3 9 -8 15 -16
13 -19z m674 8 c-6 -11 -7 -21 -3 -21 72 -11 132 -50 133 -88 0 -8 -9 -2 -20
12 -31 39 -82 67 -110 60 -16 -4 -21 -3 -16 5 4 7 2 12 -5 12 -7 0 -5 8 6 20
10 11 20 20 22 20 2 0 -1 -9 -7 -20z m-2293 4 c-3 -3 -12 -4 -19 -1 -8 3 -5 6
6 6 11 1 17 -2 13 -5z m1348 -3 c3 -5 2 -12 -3 -15 -5 -3 -9 1 -9 9 0 17 3 19
12 6z m1076 -8 c12 -16 12 -17 -1 -7 -8 7 -24 14 -35 17 -19 4 -19 5 1 6 12 0
28 -7 35 -16z m-1526 -3 c4 -6 10 -8 14 -6 3 3 7 -4 7 -14 0 -17 -2 -18 -16
-5 -9 8 -27 15 -41 15 -19 0 -21 2 -9 10 20 13 37 13 45 0z m562 4 c-3 -3 -12
-4 -19 -1 -8 3 -5 6 6 6 11 1 17 -2 13 -5z m956 -32 c9 -8 17 -19 17 -25 0 -5
-10 0 -22 12 -13 12 -32 28 -43 37 -19 14 -19 15 5 3 14 -6 33 -18 43 -27z
m-2426 -4 c-3 -7 -5 -2 -5 12 0 14 2 19 5 13 2 -7 2 -19 0 -25z m836 -9 c16
16 63 13 77 -4 7 -8 9 -15 4 -15 -5 0 -2 -5 6 -11 13 -9 13 -10 0 -6 -8 2 -14
10 -12 16 2 8 -10 11 -35 9 -33 -3 -38 -7 -41 -31 -2 -17 -8 -25 -14 -21 -7 5
-9 2 -6 -8 4 -8 2 -21 -3 -29 -6 -10 -9 -7 -9 13 0 15 5 30 10 33 13 8 13 45
-1 45 -5 0 -7 -4 -4 -10 10 -17 -7 -11 -20 7 -7 9 -10 25 -7 35 4 16 6 15 24
-8 15 -18 24 -22 31 -15z m733 15 c-4 -10 3 -13 24 -10 34 4 43 -1 59 -34 l12
-25 -17 23 c-18 24 -55 29 -97 13 -19 -7 -24 -6 -24 7 0 10 4 22 8 28 12 15
41 13 35 -2z m261 9 c-4 -3 0 -14 9 -24 12 -14 13 -18 2 -25 -7 -4 -10 -4 -6
1 4 4 0 13 -9 20 -14 11 -12 35 4 35 4 0 3 -3 0 -7z m130 -25 c-3 -8 -6 -5 -6
6 -1 11 2 17 5 13 3 -3 4 -12 1 -19z m-1273 0 c-5 -8 -2 -9 9 -5 9 3 19 2 22
-4 4 -5 11 -6 17 -3 6 4 8 2 5 -4 -4 -5 -15 -8 -25 -6 -9 3 -26 -2 -37 -11
-20 -16 -20 -16 1 -10 11 3 29 -2 40 -10 18 -14 17 -14 -15 -15 -19 0 -43 -8
-53 -17 -16 -15 -18 -15 -13 -1 4 9 2 19 -4 23 -6 3 -11 11 -11 18 0 6 7 2 15
-9 8 -10 15 -16 15 -11 0 19 2 23 17 40 9 9 13 17 9 17 -4 0 -4 5 -1 10 3 6 8
10 11 10 3 0 2 -5 -2 -12z m1423 -18 c-7 -17 -13 -26 -15 -21 -3 10 15 51 22
51 3 0 -1 -14 -7 -30z m74 16 c28 -12 31 -16 16 -21 -25 -10 -67 3 -67 20 0
19 9 19 51 1z m112 0 c24 9 127 -72 127 -99 0 -5 -9 1 -20 14 l-20 24 10 -29
c6 -16 9 -31 6 -33 -2 -2 -9 11 -15 30 -14 40 -58 76 -99 79 -21 1 -28 6 -25
16 4 9 8 10 13 2 3 -6 14 -8 23 -4z m-2139 -5 c4 -5 -3 -7 -14 -4 -23 6 -26
13 -6 13 8 0 17 -4 20 -9z m276 5 c0 -2 -7 -7 -16 -10 -8 -3 -12 -2 -9 4 6 10
25 14 25 6z m1071 -37 c-5 -13 -10 -19 -10 -12 -1 15 10 45 15 40 3 -2 0 -15
-5 -28z m-1026 9 c5 4 5 1 1 -6 -6 -10 -11 -10 -22 -1 -8 6 -14 14 -14 16 0 3
6 0 13 -6 8 -6 18 -7 22 -3z m1158 -28 l19 -35 -24 29 c-20 23 -30 28 -56 24
-38 -5 -41 -1 -9 12 34 14 49 8 70 -30z m-1483 26 c0 -2 -9 -6 -20 -9 -11 -3
-18 -1 -14 4 5 9 34 13 34 5z m457 -33 c-3 -10 -5 -4 -5 12 0 17 2 24 5 18 2
-7 2 -21 0 -30z m1403 27 c0 -5 -2 -10 -4 -10 -3 0 -8 5 -11 10 -3 6 -1 10 4
10 6 0 11 -4 11 -10z m169 -10 c19 0 22 -3 13 -12 -9 -9 -18 -9 -37 0 -22 10
-25 9 -25 -10 0 -12 -3 -19 -6 -15 -4 3 -3 18 0 33 5 20 10 24 19 15 6 -6 22
-11 36 -11z m58 -7 c-9 -9 -19 -14 -22 -11 -3 3 2 13 11 22 9 9 19 14 22 11 3
-3 -2 -13 -11 -22z m-2494 2 c-3 -9 -8 -14 -10 -11 -3 3 -2 9 2 15 9 16 15 13
8 -4z m324 -7 c-3 -8 -6 -5 -6 6 -1 11 2 17 5 13 3 -3 4 -12 1 -19z m388 2
c10 -11 15 -23 12 -27 -4 -3 -7 -1 -7 5 0 7 -6 11 -12 10 -7 -2 -12 3 -10 10
1 8 -2 11 -8 7 -6 -3 -8 -10 -5 -15 3 -4 -2 -13 -10 -20 -22 -19 -18 -28 10
-22 16 3 25 0 25 -8 0 -7 -7 -10 -15 -6 -8 3 -25 1 -37 -4 -22 -9 -22 -9 3 -9
15 -1 32 -8 39 -16 7 -8 17 -12 24 -8 8 4 8 3 0 -6 -9 -10 -17 -9 -37 4 -21
14 -30 14 -49 4 -20 -11 -22 -11 -10 3 8 10 9 19 3 22 -12 8 -2 46 12 43 6 -1
17 10 24 26 17 32 24 33 48 7z m415 16 c0 -3 -4 -8 -10 -11 -5 -3 -10 -1 -10
4 0 6 5 11 10 11 6 0 10 -2 10 -4z m655 -5 c3 -5 2 -12 -3 -15 -5 -3 -9 1 -9
9 0 17 3 19 12 6z m817 -28 c10 -9 15 -20 12 -24 -3 -5 -1 -9 4 -9 6 0 13 -8
17 -17 4 -12 -3 -9 -22 10 -16 15 -33 27 -39 27 -17 0 -55 31 -49 40 7 11 53
-5 77 -27z m-1182 12 c0 -2 -10 -9 -22 -15 -22 -11 -22 -10 -4 4 21 17 26 19
26 11z m-1040 -15 c0 -5 -5 -10 -11 -10 -5 0 -7 5 -4 10 3 6 8 10 11 10 2 0 4
-4 4 -10z m376 -16 c-4 -9 -9 -15 -11 -12 -3 3 -3 13 1 22 4 9 9 15 11 12 3
-3 3 -13 -1 -22z m981 -6 c-3 -7 -5 -2 -5 12 0 14 2 19 5 13 2 -7 2 -19 0 -25z
m125 24 c-7 -2 -9 -8 -6 -13 3 -6 -4 -7 -19 -4 -16 4 -35 0 -53 -11 l-27 -19
17 28 c15 22 25 27 59 25 23 -1 36 -3 29 -6z m-1535 -24 c-3 -8 -6 -5 -6 6 -1
11 2 17 5 13 3 -3 4 -12 1 -19z m1183 -30 c0 -4 -4 -8 -10 -8 -5 0 -10 6 -10
14 0 8 -7 16 -15 20 -8 3 -15 11 -15 17 0 7 11 2 25 -11 14 -13 25 -27 25 -32z
m1092 -16 c-18 -6 -76 32 -80 51 -3 14 7 10 44 -15 26 -17 42 -34 36 -36z
m-1618 49 c3 -4 -6 -6 -21 -3 -14 3 -23 1 -20 -4 3 -5 -13 -20 -36 -33 l-42
-24 34 37 c33 34 73 47 85 27z m220 -7 c4 -10 1 -14 -6 -12 -15 5 -23 28 -10
28 5 0 13 -7 16 -16z m686 -14 c12 -23 12 -24 -3 -11 -10 7 -17 20 -17 29 0
18 3 16 20 -18z m-706 -19 c0 -11 5 -21 12 -21 7 0 15 -4 18 -8 3 -5 -8 -6
-25 -4 -24 4 -27 7 -18 18 7 8 9 17 6 20 -3 3 -13 -9 -22 -27 -16 -30 -16 -31
0 -25 21 8 50 -8 59 -31 6 -14 3 -14 -16 4 -23 21 -57 18 -73 -6 -3 -6 -11 -9
-16 -6 -5 4 -9 -2 -10 -12 0 -16 -1 -16 -9 2 -12 27 -12 43 0 25 7 -12 10 -12
10 -1 0 7 6 11 15 8 8 -4 17 -2 20 3 4 6 1 10 -4 10 -6 0 -11 9 -11 21 0 13 4
18 12 13 8 -5 9 -2 5 10 -4 9 -3 15 2 12 5 -3 12 1 15 10 8 22 31 11 30 -15z
m43 -8 c0 -9 -4 -10 -14 -2 -7 6 -13 12 -13 14 0 1 6 2 13 2 8 0 14 -6 14 -14z
m579 10 c-15 -4 -16 -7 -5 -14 11 -7 11 -9 -3 -9 -9 0 -19 4 -22 9 -7 10 11
20 34 19 9 0 7 -2 -4 -5z m-1834 -10 c-6 -2 -10 -8 -8 -12 3 -4 -1 -8 -8 -8
-8 0 -12 6 -9 14 3 7 13 13 22 12 10 0 11 -2 3 -6z m625 -30 c-3 -10 -5 -4 -5
12 0 17 2 24 5 18 2 -7 2 -21 0 -30z m363 27 c0 -5 -5 -10 -11 -10 -5 0 -7 5
-4 10 3 6 8 10 11 10 2 0 4 -4 4 -10z m375 0 c-3 -5 1 -10 9 -10 8 0 17 -4 20
-9 4 -5 -2 -7 -13 -4 -10 3 -22 0 -25 -6 -9 -14 -26 -14 -26 0 0 5 4 8 9 4 5
-3 12 -1 16 5 3 5 0 10 -7 10 -9 0 -9 3 2 10 19 12 23 12 15 0z m390 0 c3 -5
1 -10 -4 -10 -6 0 -11 5 -11 10 0 6 2 10 4 10 3 0 8 -4 11 -10z m219 -5 c-4
-8 -11 -12 -16 -9 -6 4 -5 10 3 15 19 12 19 11 13 -6z m652 -21 c0 -1 -16 -4
-33 -7 -30 -6 -33 -4 -33 18 l0 25 34 -18 c19 -9 33 -17 32 -18z m-2532 8 c3
-5 -1 -9 -9 -9 -8 0 -12 4 -9 9 3 4 7 8 9 8 2 0 6 -4 9 -8z m1843 -6 c-3 -8
-2 -16 4 -18 5 -2 1 -8 -10 -15 -20 -13 -22 -6 -6 30 9 20 20 23 12 3z m-1330
-40 c-1 -19 -5 -32 -9 -28 -6 7 1 62 8 62 2 0 3 -16 1 -34z m113 19 c0 -11 -5
-12 -23 -6 -14 5 -30 5 -40 0 -16 -10 -24 1 -10 14 13 14 73 7 73 -8z m-640
-15 c0 -5 -4 -10 -10 -10 -5 0 -10 5 -10 10 0 6 5 10 10 10 6 0 10 -4 10 -10z
m1305 0 c3 -5 -3 -10 -14 -10 -11 0 -23 5 -26 10 -3 6 3 10 14 10 11 0 23 -4
26 -10z m-1215 -10 c0 -5 -4 -10 -10 -10 -5 0 -10 5 -10 10 0 6 5 10 10 10 6
0 10 -4 10 -10z m517 -6 c-3 -3 -12 -4 -19 -1 -8 3 -5 6 6 6 11 1 17 -2 13 -5z
m308 -23 c-3 -2 -11 1 -19 8 -11 9 -15 8 -20 -4 -6 -17 -26 -21 -26 -4 0 5 4
8 9 5 5 -3 12 1 15 9 5 13 9 13 25 3 11 -7 18 -14 16 -17z m226 13 c12 -15 11
-16 -7 -10 -12 3 -34 2 -50 -4 l-29 -10 24 20 c28 24 44 25 62 4z m672 -12
c-2 -15 2 -20 11 -16 17 7 56 -12 56 -27 0 -6 -7 -3 -16 6 -11 10 -27 14 -46
11 -16 -2 -27 -2 -24 1 3 3 -2 12 -10 20 -17 18 -10 32 14 28 11 -1 16 -10 15
-23z m299 21 c-6 -2 -9 -10 -6 -15 4 -6 2 -8 -4 -4 -6 3 -13 2 -17 -4 -3 -5
-1 -10 5 -10 6 0 3 -11 -6 -26 -15 -22 -15 -27 -3 -36 11 -8 10 -9 -3 -4 -10
3 -25 9 -35 13 -12 5 -14 3 -8 -7 5 -7 4 -11 -1 -7 -5 3 -18 -1 -28 -8 -17
-13 -14 -14 24 -12 35 2 45 -2 58 -23 l16 -25 -23 23 c-23 23 -31 25 -71 12
-22 -7 -21 -8 12 -9 35 -1 68 -28 68 -55 0 -6 -7 -1 -15 11 -17 24 -52 33 -85
21 -18 -7 -21 -6 -13 4 6 7 9 24 7 37 -4 25 13 54 26 46 4 -3 11 2 14 11 3 8
12 14 20 12 8 -2 14 0 13 4 -3 10 45 58 57 57 6 0 5 -3 -2 -6z m-827 -21 c-3
-3 -11 0 -18 7 -9 10 -8 11 6 5 10 -3 15 -9 12 -12z m-680 -2 c3 -6 -1 -7 -9
-4 -18 7 -21 14 -7 14 6 0 13 -4 16 -10z m422 -12 c-3 -8 -6 -5 -6 6 -1 11 2
17 5 13 3 -3 4 -12 1 -19z m-1176 -15 c13 -16 12 -17 -3 -4 -17 13 -22 21 -14
21 2 0 10 -8 17 -17z m739 7 c12 -8 11 -10 -7 -10 -13 0 -23 5 -23 10 0 13 11
13 30 0z m338 -20 l16 -25 -29 25 c-17 14 -32 27 -35 29 -3 2 3 2 14 0 10 -2
26 -15 34 -29z m804 -2 c-8 -8 -9 -4 -5 13 4 13 8 18 11 10 2 -7 -1 -18 -6
-23z m-1482 8 c0 -8 -4 -17 -8 -20 -4 -2 -8 4 -8 15 0 10 4 19 8 19 4 0 8 -6
8 -14z m603 -2 c-4 -11 -9 -12 -19 -3 -9 7 -14 8 -14 1 0 -16 22 -20 47 -9 25
11 46 -1 65 -37 10 -19 8 -18 -16 3 -23 22 -29 23 -62 13 -20 -6 -33 -8 -30
-5 3 3 1 12 -5 19 -14 17 -6 29 20 31 14 1 18 -3 14 -13z m258 2 c-23 -13 -23
-14 -5 -19 12 -3 6 -5 -14 -6 -39 -1 -40 19 -1 30 39 11 46 9 20 -5z m210 -15
c-6 -10 -8 -21 -6 -25 3 -3 2 -4 -2 -1 -4 3 -28 -16 -55 -42 -26 -26 -48 -42
-48 -35 0 7 4 12 10 12 5 0 7 6 4 14 -5 13 43 56 63 56 4 0 14 9 21 20 15 25
26 26 13 1z m1806 -3 c2 -17 0 -19 -7 -8 -5 8 -6 18 -4 22 8 12 10 10 11 -14z
m-2547 2 c13 -8 13 -10 -2 -10 -9 0 -20 5 -23 10 -8 13 5 13 25 0z m-648 -22
c-7 -7 -12 -8 -12 -2 0 14 12 26 19 19 2 -3 -1 -11 -7 -17z m868 -5 c0 -21 -3
-24 -9 -14 -5 8 -7 20 -4 28 8 21 13 15 13 -14z m1066 5 l19 -21 -30 18 c-41
26 -40 25 -23 25 8 0 23 -10 34 -22z m1318 -68 c8 -13 7 -13 -7 0 -16 15 -21
39 -17 75 1 11 5 2 9 -20 4 -22 11 -47 15 -55z m-3334 68 c0 -6 -3 -8 -7 -5
-3 4 -12 2 -20 -5 -11 -8 -12 -7 -7 6 7 18 34 22 34 4z m1980 -24 c0 -3 -6 -1
-13 5 -8 6 -17 8 -21 4 -4 -4 -4 0 -1 10 6 14 9 14 21 2 8 -7 14 -17 14 -21z
m-1252 12 c-2 0 -13 -10 -25 -20 -20 -17 -23 -17 -23 -3 0 10 7 17 15 17 8 0
15 5 15 11 0 5 5 7 11 4 6 -4 9 -8 7 -9z m950 -6 c-7 -10 -14 -17 -17 -15 -4
4 18 35 25 35 2 0 -1 -9 -8 -20z m-598 -43 c0 -6 -8 -3 -17 6 -14 12 -28 14
-60 8 -48 -9 -48 3 0 23 29 12 34 11 55 -7 12 -11 22 -25 22 -30z m163 46 c-7
-2 -19 -2 -25 0 -7 3 -2 5 12 5 14 0 19 -2 13 -5z m2051 -9 c9 -22 -3 -32 -14
-14 -12 19 -12 30 -1 30 5 0 12 -7 15 -16z m-1631 -30 c20 -22 23 -31 12 -31
-8 0 -18 9 -21 20 -4 14 -8 16 -14 7 -5 -7 -7 -2 -7 14 0 15 0 25 1 24 0 -2
13 -17 29 -34z m347 26 c0 -5 -2 -10 -4 -10 -3 0 -8 5 -11 10 -3 6 -1 10 4 10
6 0 11 -4 11 -10z m248 -15 c-3 -3 -9 2 -12 12 -6 14 -5 15 5 6 7 -7 10 -15 7
-18z m-2250 -10 c-3 -3 -9 2 -12 12 -6 14 -5 15 5 6 7 -7 10 -15 7 -18z m121
-22 c1 -7 -3 -13 -9 -13 -5 0 -10 15 -9 33 0 27 2 29 9 12 5 -11 9 -26 9 -32z
m1351 17 c0 -4 -9 -6 -21 -3 -15 4 -17 8 -8 14 14 8 29 3 29 -11z m631 1 c-7
-5 -11 -13 -7 -19 3 -6 3 -13 -2 -16 -4 -2 -9 6 -10 20 -1 17 3 24 16 24 13 0
14 -2 3 -9z m-2081 -26 c0 -15 -6 -25 -14 -25 -11 0 -12 5 -3 25 15 31 17 31
17 0z m2010 -40 c-1 -5 -6 -1 -13 11 -7 12 -18 19 -24 17 -15 -5 -16 -2 -7 22
6 14 10 12 25 -12 11 -15 19 -32 19 -38z m-1300 45 c0 -5 -4 -10 -10 -10 -5 0
-10 5 -10 10 0 6 5 10 10 10 6 0 10 -4 10 -10z m730 -12 c11 -12 20 -26 20
-32 0 -6 -7 0 -16 13 -13 19 -22 22 -47 17 -29 -6 -30 -5 -12 8 26 20 31 20
55 -6z m380 12 c0 -5 -5 -10 -11 -10 -5 0 -7 5 -4 10 3 6 8 10 11 10 2 0 4 -4
4 -10z m-790 -7 c0 -5 -21 -9 -48 -9 -36 -1 -41 0 -22 6 33 11 70 12 70 3z
m107 -25 c-3 -8 -6 -5 -6 6 -1 11 2 17 5 13 3 -3 4 -12 1 -19z m188 4 c-3 -3
-11 0 -18 7 -9 10 -8 11 6 5 10 -3 15 -9 12 -12z m859 -4 c21 -30 20 -45 -1
-26 -23 20 -103 32 -103 16 0 -6 -3 -8 -6 -5 -15 14 20 37 57 37 28 0 42 -6
53 -22z m-1454 -9 c0 -5 -4 -9 -8 -9 -5 0 -9 7 -9 15 0 8 4 12 9 9 4 -3 8 -9
8 -15z m270 11 c0 -5 -12 -10 -27 -9 l-28 1 25 8 c14 4 26 8 28 9 1 1 2 -3 2
-9z m303 -19 c2 -10 1 -25 -4 -32 -6 -10 -9 -4 -9 19 0 36 5 42 13 13z m125 7
c16 -16 15 -33 0 -20 -7 6 -30 9 -50 8 -40 -1 -39 9 2 17 14 2 27 5 31 6 3 0
10 -4 17 -11z m-1435 -24 c-4 -11 -8 -12 -13 -4 -6 9 -9 9 -13 -1 -4 -10 -6
-9 -6 4 -1 11 6 17 19 17 14 0 18 -5 13 -16z m2177 -4 c22 -14 6 -22 -45 -22
-50 0 -61 5 -50 21 8 13 75 14 95 1z m-776 -21 c-3 -5 -14 -9 -25 -9 -11 0
-29 -5 -40 -10 -12 -7 -19 -7 -19 -1 0 15 51 39 72 33 10 -2 15 -8 12 -13z
m-492 -16 c-3 -16 -7 -22 -10 -15 -4 13 4 42 11 42 2 0 2 -12 -1 -27z m1975 5
c-3 -8 -6 -5 -6 6 -1 11 2 17 5 13 3 -3 4 -12 1 -19z m-2899 -13 c0 -13 -4
-22 -9 -19 -5 3 -9 -1 -9 -10 0 -8 6 -17 13 -20 6 -3 4 -4 -7 -3 -13 1 -20 -5
-23 -22 -4 -29 -10 -37 -20 -27 -4 4 0 21 10 37 9 17 17 39 17 50 0 10 5 19
11 19 5 0 7 5 4 10 -3 6 -2 10 3 10 5 0 10 -11 10 -25z m2079 0 c0 -8 -4 -12
-9 -9 -5 3 -6 10 -3 15 9 13 12 11 12 -6z m86 4 l42 0 -35 -13 c-24 -8 -42 -9
-57 -2 -26 10 -32 32 -7 22 9 -3 34 -6 57 -7z m-313 -12 c0 -13 -39 -45 -46
-39 -5 4 0 -4 11 -18 13 -16 14 -20 4 -12 -14 10 -21 7 -48 -20 l-32 -33 28
-7 c25 -5 23 -6 -9 -5 l-38 1 20 21 c28 29 25 43 -3 17 -22 -21 -23 -21 -24
-2 -1 11 2 22 8 25 5 4 6 -2 2 -12 -6 -17 -5 -17 15 1 12 10 19 22 17 27 -3 4
-1 10 4 13 5 4 13 1 17 -5 5 -8 3 -9 -7 -4 -8 5 -11 4 -6 -1 5 -5 12 -8 15 -6
7 2 8 5 11 34 0 6 4 8 7 5 4 -3 16 0 28 8 21 15 26 18 26 12z m-475 -16 l-20
-9 20 -4 c12 -3 10 -5 -7 -3 -15 1 -30 -3 -32 -9 -2 -6 -5 -3 -5 6 -1 18 13
26 44 27 l20 0 -20 -8z m-1318 -23 c-3 -8 -6 -5 -6 6 -1 11 2 17 5 13 3 -3 4
-12 1 -19z m2113 12 c-20 -13 -33 -13 -25 0 3 6 14 10 23 10 15 0 15 -2 2 -10z
m-2126 -26 c3 -8 2 -12 -4 -9 -6 3 -10 10 -10 16 0 14 7 11 14 -7z m886 6 c0
-5 -2 -10 -4 -10 -3 0 -8 5 -11 10 -3 6 -1 10 4 10 6 0 11 -4 11 -10z m737 -4
c-3 -7 -1 -19 4 -25 6 -8 5 -8 -3 -1 -24 20 -40 10 -17 -11 l24 -20 -27 16
c-17 11 -28 13 -33 6 -3 -6 0 -11 8 -11 8 0 21 -8 28 -17 11 -15 11 -16 -1 -5
-17 15 -51 16 -68 2 -8 -7 -9 -7 -3 1 5 6 8 17 7 23 -2 6 -1 7 2 3 2 -4 10 -3
18 4 8 6 11 15 8 20 -5 9 9 13 34 10 6 -1 12 3 12 9 0 5 3 10 6 10 3 0 4 -6 1
-14z m406 -6 c-3 -11 -7 -20 -9 -20 -2 0 -4 9 -4 20 0 11 4 20 9 20 5 0 7 -9
4 -20z m934 -2 c-3 -8 -6 -5 -6 6 -1 11 2 17 5 13 3 -3 4 -12 1 -19z m-223
-14 c3 -8 2 -12 -4 -9 -6 3 -10 10 -10 16 0 14 7 11 14 -7z m-2747 -26 c-3 -8
-6 -5 -6 6 -1 11 2 17 5 13 3 -3 4 -12 1 -19z m582 9 c-9 -7 -22 -23 -29 -37
-8 -16 -15 -20 -18 -12 -4 12 41 62 56 62 4 0 0 -6 -9 -13z m1188 -3 c-3 -3
-12 -4 -19 -1 -8 3 -5 6 6 6 11 1 17 -2 13 -5z m740 -26 c-3 -7 -5 -2 -5 12 0
14 2 19 5 13 2 -7 2 -19 0 -25z m200 10 c-3 -8 -6 -5 -6 6 -1 11 2 17 5 13 3
-3 4 -12 1 -19z m-1050 -10 c-3 -8 -6 -5 -6 6 -1 11 2 17 5 13 3 -3 4 -12 1
-19z m1030 0 c-3 -8 -6 -5 -6 6 -1 11 2 17 5 13 3 -3 4 -12 1 -19z m-100 -10
c-3 -8 -6 -5 -6 6 -1 11 2 17 5 13 3 -3 4 -12 1 -19z m-60 -10 c-3 -8 -6 -5
-6 6 -1 11 2 17 5 13 3 -3 4 -12 1 -19z m844 -1 c-10 -9 -11 -8 -5 6 3 10 9
15 12 12 3 -3 0 -11 -7 -18z m-2770 -4 c12 -16 12 -17 -1 -7 -8 6 -22 14 -30
17 -13 5 -12 6 1 6 9 1 23 -7 30 -16z m370 -14 c-9 -22 -10 -22 -10 -3 -1 11
2 24 6 27 12 12 14 0 4 -24z m633 15 c5 -14 4 -15 -9 -4 -8 7 -24 10 -35 7
-11 -3 -18 -1 -14 4 9 15 51 10 58 -7z m196 11 c0 -2 -10 -9 -22 -15 -22 -11
-22 -10 -4 4 21 17 26 19 26 11z m-1287 -25 c-3 -12 -8 -19 -11 -16 -5 6 5 36
12 36 2 0 2 -9 -1 -20z m904 -12 c-3 -7 -5 -2 -5 12 0 14 2 19 5 13 2 -7 2
-19 0 -25z m-818 -2 c23 -24 21 -56 -2 -37 -7 5 -23 11 -37 13 -22 4 -23 6 -7
12 12 6 24 3 37 -9 11 -10 20 -13 20 -7 0 6 -11 19 -25 28 -21 14 -28 14 -43
3 -15 -13 -16 -12 -3 4 18 23 33 22 60 -7z m271 3 c0 -5 -9 -9 -20 -9 -12 0
-17 -5 -14 -14 3 -7 -2 -16 -10 -19 -12 -5 -13 -2 -6 17 5 13 6 27 2 31 -3 3
1 3 11 -1 10 -3 17 -1 17 6 0 6 5 8 10 5 6 -3 10 -10 10 -16z m525 -10 c-5
-28 -4 -30 17 -24 13 4 20 4 16 0 -15 -16 -66 -14 -80 2 -7 9 -8 14 -3 11 6
-4 20 4 30 17 26 31 26 31 20 -6z m310 11 c3 -5 1 -10 -4 -10 -6 0 -11 5 -11
10 0 6 2 10 4 10 3 0 8 -4 11 -10z m75 -5 c-11 -13 -8 -14 18 -9 25 5 32 2 43
-17 12 -24 12 -24 -10 -5 -17 16 -25 17 -45 8 -20 -9 -27 -8 -38 5 -7 9 -8 14
-2 10 7 -4 17 0 24 8 7 8 15 15 17 15 3 0 0 -7 -7 -15z m-190 -6 c0 -6 -8 -8
-17 -5 -10 3 -31 -1 -48 -9 l-30 -15 24 20 c25 21 71 27 71 9z m47 -11 c-3 -8
-6 -5 -6 6 -1 11 2 17 5 13 3 -3 4 -12 1 -19z m-947 -2 c0 -21 -11 -46 -20
-46 -13 0 -17 34 -5 47 14 17 25 16 25 -1z m324 -34 c-9 -37 -19 -45 -33 -28
-9 11 -9 16 0 22 7 4 9 3 5 -4 -3 -6 -2 -13 4 -17 6 -4 10 8 10 30 0 22 4 34
10 30 6 -3 7 -18 4 -33z m-268 1 c-10 -10 -19 5 -10 18 6 11 8 11 12 0 2 -7 1
-15 -2 -18z m-269 -15 c-3 -7 -5 -2 -5 12 0 14 2 19 5 13 2 -7 2 -19 0 -25z
m1357 4 l20 -27 -23 20 c-24 21 -56 21 -80 2 -12 -10 -13 -9 -7 1 8 13 42 30
61 31 6 0 19 -12 29 -27z m-1732 -15 c10 -4 10 -8 -1 -15 -8 -6 -12 -19 -8
-31 3 -12 1 -19 -4 -15 -5 3 -9 0 -9 -5 0 -6 -5 -11 -11 -11 -6 0 -9 6 -6 13
2 6 0 22 -4 35 -6 15 -5 21 1 17 7 -4 8 3 4 22 -7 26 -6 27 9 11 9 -9 22 -19
29 -21z m78 7 c0 -12 -4 -12 -20 -4 -11 6 -18 15 -15 20 8 13 35 0 35 -16z
m370 11 c0 -8 -4 -15 -10 -15 -5 0 -7 7 -4 15 4 8 8 15 10 15 2 0 4 -7 4 -15z
m44 -1 c20 -19 20 -25 1 -18 -8 4 -15 11 -15 18 0 6 -5 4 -10 -4 -8 -13 -10
-12 -10 3 0 21 14 22 34 1z m209 -4 c3 -11 1 -20 -4 -20 -5 0 -9 9 -9 20 0 11
2 20 4 20 2 0 6 -9 9 -20z m737 10 c-20 -13 -43 -13 -35 0 3 6 16 10 28 10 18
0 19 -2 7 -10z m1140 -5 c0 -17 11 -20 26 -5 6 6 15 5 24 -1 13 -9 12 -10 -2
-5 -10 3 -20 1 -23 -4 -10 -16 -23 -12 -35 10 -7 14 -7 20 0 20 5 0 10 -7 10
-15z m-2683 -9 c-3 -8 -3 -17 1 -21 9 -9 12 -76 3 -70 -4 2 -8 17 -9 32 0 16
-1 33 -2 38 -4 17 0 35 6 35 3 0 4 -6 1 -14z m1043 -22 c0 -19 -4 -33 -9 -29
-5 3 -11 -3 -13 -12 -3 -15 -5 -14 -10 5 -4 12 -1 28 6 35 7 7 11 18 8 25 -2
6 1 12 7 12 6 0 11 -16 11 -36z m304 6 c-6 -6 -10 -3 -10 10 0 13 4 16 10 10
7 -7 7 -13 0 -20z m133 8 c-3 -8 -6 -5 -6 6 -1 11 2 17 5 13 3 -3 4 -12 1 -19z
m1453 -5 c10 10 11 8 5 -8 -4 -11 -7 -28 -7 -37 1 -27 -6 -22 -28 22 -25 48
-25 62 -1 33 14 -17 21 -19 31 -10z m-1513 11 c-3 -3 -12 -4 -19 -1 -8 3 -5 6
6 6 11 1 17 -2 13 -5z m409 -26 c19 -21 19 -21 0 -11 -13 7 -31 7 -54 1 -28
-8 -37 -7 -51 8 -15 16 -15 17 0 6 13 -10 23 -9 50 3 19 8 34 14 35 15 0 0 9
-10 20 -22z m-1879 -10 c-3 -8 -6 -5 -6 6 -1 11 2 17 5 13 3 -3 4 -12 1 -19z
m520 -12 c-1 -19 -5 -32 -9 -28 -6 7 1 62 8 62 2 0 3 -16 1 -34z m2894 -16 c5
0 9 8 10 18 0 12 3 10 10 -7 6 -16 6 -28 -1 -35 -15 -15 -40 -16 -40 0 0 27
-1 29 -23 38 -19 8 -20 10 -4 13 9 3 17 10 18 16 0 7 5 0 11 -15 5 -16 14 -28
19 -28z m-3204 18 c-3 -8 -6 -5 -6 6 -1 11 2 17 5 13 3 -3 4 -12 1 -19z m1146
2 c-3 -12 -8 -19 -11 -16 -5 6 5 36 12 36 2 0 2 -9 -1 -20z m92 10 c4 -6 -6
-10 -22 -10 -16 0 -34 -5 -41 -12 -9 -9 -12 -9 -12 0 0 22 64 41 75 22z m-408
-15 c0 -8 -4 -12 -9 -9 -5 3 -6 10 -3 15 9 13 12 11 12 -6z m-1027 -33 c-6 -2
-8 -7 -6 -11 3 -4 0 -13 -5 -21 -7 -11 -8 -8 -5 10 3 14 5 32 5 40 1 13 2 13
11 0 6 -10 6 -16 0 -18z m1865 18 c3 -5 1 -10 -4 -10 -6 0 -11 5 -11 10 0 6 2
10 4 10 3 0 8 -4 11 -10z m1398 -5 c-3 -9 -8 -14 -10 -11 -3 3 -2 9 2 15 9 16
15 13 8 -4z m-3176 -27 c-3 -7 -5 -2 -5 12 0 14 2 19 5 13 2 -7 2 -19 0 -25z
m934 15 c13 -16 12 -17 -3 -4 -10 7 -18 15 -18 17 0 8 8 3 21 -13z m819 8 c0
-5 -9 -11 -20 -14 -13 -3 -20 0 -20 9 0 8 9 14 20 14 11 0 20 -4 20 -9z m525
-2 c11 -17 -1 -21 -15 -4 -8 9 -8 15 -2 15 6 0 14 -5 17 -11z m-2298 -21 c-3
-8 -6 -5 -6 6 -1 11 2 17 5 13 3 -3 4 -12 1 -19z m581 9 c7 -8 7 -18 2 -27 -8
-12 -10 -10 -10 8 0 13 -4 20 -10 17 -5 -3 -10 -1 -10 4 0 15 15 14 28 -2z
m686 -3 c3 -8 2 -12 -4 -9 -6 3 -10 10 -10 16 0 14 7 11 14 -7z m67 9 c-26 -3
-31 -7 -20 -14 11 -7 11 -9 -3 -9 -18 0 -23 11 -11 23 3 4 20 6 37 5 31 -1 31
-1 -3 -5z m939 -23 c0 -5 -2 -10 -4 -10 -3 0 -8 5 -11 10 -3 6 -1 10 4 10 6 0
11 -4 11 -10z m-2162 -55 c0 -16 -2 -15 -8 5 -11 34 -11 60 0 35 5 -11 8 -29
8 -40z m2728 28 c-3 -8 -6 -17 -6 -19 0 -3 -4 -2 -10 1 -17 11 -12 45 6 38 8
-3 13 -12 10 -20z m-2889 2 c-4 -8 -2 -17 3 -20 13 -8 13 -45 0 -45 -5 0 -12
11 -16 25 -6 25 0 55 12 55 3 0 4 -7 1 -15z m30 -32 c-3 -10 -5 -2 -5 17 0 19
2 27 5 18 2 -10 2 -26 0 -35z m1783 37 c0 -5 -4 -10 -10 -10 -5 0 -10 5 -10
10 0 6 5 10 10 10 6 0 10 -4 10 -10z m830 -10 c0 -5 -5 -10 -11 -10 -5 0 -7 5
-4 10 3 6 8 10 11 10 2 0 4 -4 4 -10z m372 -12 c-7 -7 -12 -8 -12 -2 0 14 12
26 19 19 2 -3 -1 -11 -7 -17z m394 -6 c-18 -16 -18 -16 -6 6 6 13 14 21 18 18
3 -4 -2 -14 -12 -24z m-3276 -1 c0 -5 3 -17 7 -27 4 -11 3 -15 -4 -11 -14 9
-24 47 -12 47 5 0 9 -4 9 -9z m2413 -11 c-3 -11 -7 -20 -9 -20 -2 0 -4 9 -4
20 0 11 4 20 9 20 5 0 7 -9 4 -20z m434 -2 c-3 -8 -6 -5 -6 6 -1 11 2 17 5 13
3 -3 4 -12 1 -19z m-473 -2 c15 6 28 -53 14 -62 -4 -3 -8 4 -8 15 0 11 -4 23
-10 26 -5 3 -10 -1 -10 -9 0 -8 -4 -17 -8 -20 -4 -2 -6 12 -3 32 2 20 6 32 8
25 2 -7 10 -10 17 -7z m-1759 -6 c3 -5 1 -10 -4 -10 -6 0 -11 5 -11 10 0 6 2
10 4 10 3 0 8 -4 11 -10z m-352 -47 c-3 -8 2 -13 16 -13 12 0 24 -7 28 -16 5
-13 7 -13 14 -2 5 7 9 20 9 28 0 12 -2 12 -9 2 -6 -11 -10 -10 -15 4 -4 10 -4
15 0 11 4 -4 14 -1 22 6 11 8 14 9 9 0 -4 -7 2 -21 14 -32 l21 -20 -21 6 c-20
5 -26 -4 -22 -30 1 -5 -3 -6 -9 -2 -9 6 -14 -8 -11 -28 1 -5 -3 -6 -9 -2 -5 3
-10 1 -10 -4 0 -6 -4 -11 -9 -11 -4 0 -5 18 -1 40 5 29 4 40 -4 37 -6 -2 -11
-18 -11 -35 0 -17 -7 -37 -15 -44 -8 -7 -12 -9 -8 -4 4 4 3 18 -2 31 -6 15 -4
27 3 35 7 7 7 10 1 7 -6 -3 -11 0 -11 8 0 8 5 11 11 8 6 -4 5 1 -3 10 -9 11
-10 17 -2 17 6 0 11 8 11 18 0 14 2 14 9 3 5 -8 7 -20 4 -28z m230 22 c-3 -9
-8 -14 -10 -11 -3 3 -2 9 2 15 9 16 15 13 8 -4z m370 -38 c-4 -6 0 -8 9 -4 13
4 15 0 13 -21 -2 -15 1 -32 6 -39 7 -7 6 -14 -1 -18 -6 -4 -10 -3 -8 2 1 4 -7
25 -17 46 -17 33 -21 36 -31 22 -10 -14 -12 -14 -17 0 -4 9 -13 12 -23 8 -16
-6 -16 -7 2 -14 17 -7 17 -8 -3 -8 -28 -1 -28 1 -1 43 l22 34 28 -21 c15 -11
24 -25 21 -30z m583 26 c2 -27 1 -27 -14 3 -8 15 -8 21 1 21 7 0 13 -11 13
-24z m-1076 -8 c11 -13 10 -14 -4 -9 -9 3 -16 10 -16 15 0 13 6 11 20 -6z
m2460 11 c0 -3 -4 -8 -10 -11 -5 -3 -10 -1 -10 4 0 6 5 11 10 11 6 0 10 -2 10
-4z m-2173 -21 c-4 -8 -2 -17 4 -21 6 -3 8 -12 5 -19 -3 -8 -1 -15 5 -17 5 -2
6 -15 0 -35 -8 -28 -6 -36 15 -55 13 -13 24 -34 24 -47 0 -13 -3 -21 -7 -17
-4 3 -12 -6 -19 -21 -7 -16 -13 -21 -13 -12 -1 9 -10 24 -21 34 -11 10 -20 23
-20 29 0 6 5 5 12 -2 17 -17 48 -15 48 2 0 8 -5 18 -12 22 -8 5 -9 2 -4 -11 6
-17 5 -18 -11 -3 -10 8 -25 18 -33 22 -8 3 -2 4 15 2 l30 -4 -30 26 c-27 23
-28 25 -7 20 19 -5 21 -4 11 8 -6 7 -16 11 -23 7 -8 -5 -8 -3 0 8 6 8 10 22 9
31 -2 11 2 15 12 11 11 -4 14 -2 11 8 -3 8 -10 14 -16 14 -7 0 -11 5 -9 10 1
6 5 9 10 8 4 -2 7 2 7 7 0 6 3 10 6 10 3 0 4 -7 1 -15z m-787 -44 c-1 -29 -2
-33 -11 -18 -5 9 -7 22 -4 27 3 6 1 10 -4 10 -19 0 -13 -97 9 -132 24 -40 25
-64 4 -72 -8 -3 -12 -2 -9 4 3 6 1 10 -5 10 -6 0 -9 4 -6 9 4 5 0 12 -6 14 -8
3 -6 6 5 6 18 1 23 16 8 25 -5 4 -11 1 -13 -5 -4 -11 -11 62 -11 112 0 40 10
59 28 53 10 -4 15 -19 15 -43z m61 19 c6 0 1 -14 -11 -31 -25 -34 -32 -32 -35
11 -1 24 1 28 12 19 10 -9 13 -6 14 12 1 17 3 19 6 7 2 -10 9 -18 14 -18z
m1369 3 c0 -19 -3 -24 -10 -17 -6 6 -8 18 -4 27 9 24 14 21 14 -10z m120 -53
c-6 -12 -14 -19 -18 -16 -3 3 -16 -1 -30 -10 -22 -15 -26 -15 -41 1 -9 10 -11
15 -4 11 6 -3 18 3 26 14 7 11 16 18 18 15 3 -2 10 5 17 15 10 16 10 20 -1 20
-7 0 -19 -6 -27 -12 -8 -7 -6 -3 5 10 l19 23 24 -24 c21 -21 22 -28 12 -47z
m1357 38 c-3 -8 -6 -5 -6 6 -1 11 2 17 5 13 3 -3 4 -12 1 -19z m-1917 -73 c-3
-5 -5 -30 -4 -55 1 -40 1 -42 -8 -17 -5 15 -15 28 -21 28 -28 3 -53 -4 -60
-17 -10 -17 -23 -18 -26 -1 -11 77 -6 131 10 105 7 -10 9 -9 9 4 0 9 8 17 18
17 25 0 50 6 59 15 9 9 32 -66 23 -79z m1367 56 c0 -11 -5 -18 -9 -15 -4 3 -5
11 -1 19 7 21 12 19 10 -4z m-1736 -45 c-6 -8 -10 -25 -8 -38 2 -12 2 -17 0
-9 -4 11 -7 11 -13 2 -5 -9 -9 -8 -13 4 -5 10 -3 14 5 9 8 -5 9 2 4 22 -5 21
-4 25 4 14 8 -12 10 -10 10 10 0 18 3 21 12 12 8 -8 8 -15 -1 -26z m109 16 c0
-12 -3 -12 -15 -2 -8 7 -15 13 -15 15 0 1 7 2 15 2 8 0 15 -7 15 -15z m1010
-33 c0 -4 -5 -11 -11 -14 -6 -4 -10 -1 -8 6 3 28 -1 39 -17 39 -9 0 -12 5 -8
12 5 8 13 4 26 -11 10 -13 18 -27 18 -32z m322 19 c-4 -17 -2 -20 12 -15 10 4
15 3 11 -3 -3 -6 -12 -10 -20 -10 -7 0 -16 -6 -18 -12 -3 -7 -6 1 -6 18 -1 30
5 44 20 44 4 0 5 -10 1 -22z m-1582 8 c0 -2 -8 -10 -17 -17 -16 -13 -17 -12
-4 4 13 16 21 21 21 13z m1840 -16 c0 -11 -2 -20 -4 -20 -2 0 -6 9 -9 20 -3
11 -1 20 4 20 5 0 9 -9 9 -20z m-2375 0 c3 -5 1 -10 -4 -10 -6 0 -11 5 -11 10
0 6 2 10 4 10 3 0 8 -4 11 -10z m715 0 c0 -5 -2 -10 -4 -10 -3 0 -8 5 -11 10
-3 6 -1 10 4 10 6 0 11 -4 11 -10z m49 -5 c5 2 3 -16 -2 -41 -8 -36 -13 -42
-18 -28 -11 28 -10 36 3 28 8 -5 9 3 5 27 -3 19 -3 28 0 21 2 -6 8 -10 12 -7z
m155 -104 c-8 -8 -12 5 -18 59 l-6 55 14 -55 c8 -30 12 -57 10 -59z m-947 77
c-3 -8 -6 -5 -6 6 -1 11 2 17 5 13 3 -3 4 -12 1 -19z m320 -10 c-3 -7 -5 -2
-5 12 0 14 2 19 5 13 2 -7 2 -19 0 -25z m260 18 c0 -8 -6 -12 -15 -9 -11 5
-11 7 0 14 7 5 13 9 14 9 0 0 1 -6 1 -14z m1044 -8 c11 -21 11 -22 -4 -9 -9 7
-26 11 -37 8 -22 -6 -28 8 -7 16 25 10 37 7 48 -15z m113 6 c3 -8 2 -12 -4 -9
-6 3 -10 10 -10 16 0 14 7 11 14 -7z m-996 -12 c2 -7 -2 -10 -12 -6 -9 3 -16
11 -16 16 0 13 23 5 28 -10z m-271 -24 c-3 -7 -5 -2 -5 12 0 14 2 19 5 13 2
-7 2 -19 0 -25z m1310 0 c-3 -7 -5 -2 -5 12 0 14 2 19 5 13 2 -7 2 -19 0 -25z
m373 17 c0 -8 -4 -15 -10 -15 -5 0 -7 7 -4 15 4 8 8 15 10 15 2 0 4 -7 4 -15z
m-1620 1 c0 -2 -7 -7 -16 -10 -8 -3 -12 -2 -9 4 6 10 25 14 25 6z m174 -46
c10 17 22 27 28 24 7 -5 -3 -20 -26 -41 -20 -19 -37 -44 -38 -58 -2 -26 -18
-29 -26 -5 -3 7 0 10 7 6 6 -4 11 -3 11 3 0 5 -4 13 -10 16 -5 3 -10 13 -10
22 0 13 3 13 15 3 12 -10 15 -10 15 3 0 9 -4 19 -10 22 -5 3 -10 16 -10 28 1
17 5 14 18 -15 l18 -38 18 30z m1587 17 c-10 -9 -11 -8 -5 6 3 10 9 15 12 12
3 -3 0 -11 -7 -18z m-1731 -31 c0 -12 -5 -7 -19 24 -11 24 -11 24 3 6 9 -11
16 -24 16 -30z m494 -6 c3 -14 3 -19 0 -12 -12 27 -85 5 -102 -32 -9 -17 -11
-18 -11 -4 -2 31 21 67 53 82 35 17 50 9 60 -34z m529 29 c-6 -6 -19 -9 -29
-6 -17 3 -16 5 6 14 28 12 39 8 23 -8z m-1078 -9 c-3 -5 -11 -10 -16 -10 -6 0
-7 5 -4 10 3 6 11 10 16 10 6 0 7 -4 4 -10z m113 -11 c4 -11 2 -11 -8 -2 -7 6
-20 9 -29 6 -14 -4 -14 -3 -1 6 18 13 32 10 38 -10z m900 7 c-7 -8 -15 -12
-17 -11 -5 6 10 25 20 25 5 0 4 -6 -3 -14z m216 -22 c23 -50 16 -52 -11 -3
-12 21 -18 39 -14 39 4 0 15 -16 25 -36z m627 -6 c-10 -11 -11 -9 -5 6 5 13 4
17 -4 12 -8 -4 -12 0 -12 11 0 16 1 16 17 0 14 -14 15 -19 4 -29z m-1603 7
c-3 -3 -9 2 -12 12 -6 14 -5 15 5 6 7 -7 10 -15 7 -18z m1745 -11 c5 -30 -8
-20 -18 15 -4 15 -3 21 3 17 5 -3 12 -17 15 -32z m-1953 -8 c0 -6 -5 -3 -11 7
-6 9 -15 14 -21 11 -7 -4 -8 -2 -4 5 9 14 36 -3 36 -23z m300 8 c0 -8 -4 -12
-10 -9 -5 3 -10 13 -10 21 0 8 5 12 10 9 6 -3 10 -13 10 -21z m-236 -9 c4 -12
2 -13 -12 -7 -9 5 -24 12 -32 15 -9 3 -4 6 11 6 15 1 29 -6 33 -14z m99 -11
c-11 -17 -19 -22 -21 -14 -3 7 3 19 14 27 26 19 27 17 7 -13z m312 -1 c-8 -8
-20 -23 -25 -34 -6 -10 -17 -19 -25 -19 -7 0 -17 -4 -20 -10 -3 -5 3 -10 14
-10 12 0 27 11 35 28 8 15 15 24 16 20 0 -11 -23 -58 -29 -59 -3 0 -16 -2 -28
-5 -18 -3 -23 1 -23 16 0 33 22 68 46 74 13 4 24 11 24 16 0 5 7 7 15 4 13 -5
13 -8 0 -21z m510 7 c-27 -12 -35 -12 -35 0 0 6 12 10 28 9 24 0 25 -1 7 -9z
m-1095 -15 c0 -2 -6 -8 -13 -14 -10 -8 -14 -7 -14 2 0 8 6 14 14 14 7 0 13 -1
13 -2z m105 -5 c3 -5 1 -10 -4 -10 -6 0 -11 5 -11 10 0 6 2 10 4 10 3 0 8 -4
11 -10z m55 -1 c0 -5 -5 -7 -10 -4 -6 4 -20 -4 -31 -17 l-20 -23 17 28 c16 27
44 37 44 16z m160 -37 c0 -7 -4 -10 -10 -7 -5 3 -10 16 -10 28 0 18 2 19 10 7
5 -8 10 -21 10 -28z m56 13 c-3 -23 -12 -26 -13 -5 -1 11 2 20 7 20 4 0 7 -7
6 -15z m-370 -12 c0 -10 3 -30 7 -45 5 -18 3 -28 -3 -28 -6 0 -9 4 -6 9 3 5
-6 12 -22 16 -15 4 -21 10 -14 12 6 3 12 13 12 23 0 10 6 21 13 23 6 3 12 6
12 6 1 1 1 -7 1 -16z m131 -39 c-37 -36 -47 -36 -23 1 9 14 22 23 28 19 7 -4
8 -3 4 4 -4 7 -4 17 0 23 4 8 9 7 15 -2 6 -10 -2 -24 -24 -45z m337 50 c-6 -2
-9 -19 -7 -37 l4 -32 -14 30 c-14 30 -7 46 18 44 6 0 5 -2 -1 -5z m761 -4 c3
-6 -1 -7 -9 -4 -18 7 -21 14 -7 14 6 0 13 -4 16 -10z m-319 -22 c4 -6 3 -8 -4
-4 -6 3 -13 2 -17 -4 -3 -5 -1 -10 6 -10 7 0 10 -3 6 -6 -3 -3 -11 -3 -17 1
-8 5 -8 11 1 21 14 17 16 17 25 2z m300 -23 c18 -14 17 -15 -7 -6 -15 5 -30 7
-35 3 -4 -4 -4 -1 0 6 9 16 18 15 42 -3z m-896 -16 c0 -6 -4 -7 -10 -4 -5 3
-10 11 -10 16 0 6 5 7 10 4 6 -3 10 -11 10 -16z m1480 -27 c0 -21 5 -43 12
-50 9 -9 9 -12 -1 -12 -7 0 -9 -5 -4 -12 14 -23 13 -40 -2 -28 -10 8 -14 7
-18 -7 -2 -10 -4 -3 -4 15 0 17 4 32 9 32 4 0 8 5 8 11 0 5 -3 8 -8 5 -4 -2
-8 16 -9 40 -1 24 2 44 7 44 6 0 10 -17 10 -38z m907 6 c-3 -7 -5 -2 -5 12 0
14 2 19 5 13 2 -7 2 -19 0 -25z m-3137 -20 c0 -9 -3 -19 -7 -21 -5 -3 -8 10
-9 29 0 21 3 30 8 22 4 -7 8 -21 8 -30z m292 -16 c10 -7 18 -25 17 -40 -1 -25
-2 -25 -11 7 l-9 34 -14 -24 c-8 -13 -20 -36 -27 -51 -12 -22 -16 -24 -31 -13
-16 12 -16 13 0 26 11 9 14 10 9 2 -4 -7 -2 -13 3 -13 14 0 14 16 0 42 -8 16
-8 22 2 29 11 6 11 11 1 21 -15 15 -16 28 -2 28 6 0 10 -7 10 -15 0 -8 4 -15
9 -15 5 0 7 10 5 23 -4 20 -4 20 8 -3 7 -14 21 -31 30 -38z m41 18 c6 -34 6
-34 -7 -11 -8 14 -12 31 -9 38 7 18 9 15 16 -27z m1012 22 c-3 -3 -11 0 -18 7
-9 10 -8 11 6 5 10 -3 15 -9 12 -12z m281 6 c3 -4 -1 -5 -10 -4 -8 1 -18 5
-22 8 -3 4 1 5 10 4 8 -1 18 -5 22 -8z m109 -23 c1 -14 -2 -22 -5 -19 -3 3 -5
16 -5 29 -1 14 2 22 5 19 3 -3 5 -16 5 -29z m-1305 -9 c0 -6 -5 -4 -10 4 -9
13 -15 10 -36 -15 -25 -29 -23 -21 6 22 10 16 17 19 27 11 7 -6 13 -16 13 -22z
m150 18 c-8 -8 -23 -20 -34 -25 -13 -7 -9 -1 9 15 34 29 43 33 25 10z m725 6
c-3 -6 5 -14 19 -20 14 -5 26 -12 26 -15 0 -2 -10 -1 -22 4 -13 4 -30 7 -39 6
-9 -2 -16 3 -16 11 0 7 4 11 8 8 4 -2 10 0 14 6 3 5 8 10 11 10 3 0 2 -5 -1
-10z m267 -43 c-26 -27 -28 -39 -7 -31 21 8 19 -3 -3 -15 -14 -7 -18 -6 -19 9
-1 10 5 24 13 30 7 7 11 16 8 21 -9 15 7 32 19 20 8 -8 4 -17 -11 -34z m-324
13 c-7 -10 -14 -17 -17 -15 -4 4 18 35 25 35 2 0 -1 -9 -8 -20z m-668 -5 c-7
-8 -17 -15 -23 -15 -6 0 -2 7 9 15 25 19 30 19 14 0z m1074 3 c-3 -4 -11 -5
-19 -1 -21 7 -19 12 4 10 11 0 18 -5 15 -9z m-1441 -21 c3 -8 -1 -14 -8 -14
-7 0 -11 6 -8 14 3 7 6 13 8 13 2 0 5 -6 8 -13z m217 -8 c0 -5 -7 -9 -15 -9
-8 0 -15 -4 -15 -10 0 -5 -5 -10 -12 -10 -6 0 -20 -8 -31 -17 -18 -17 -18 -17
-6 10 7 15 18 27 24 27 7 0 18 7 25 15 12 15 30 12 30 -6z m850 15 c0 -8 -19
-13 -24 -6 -3 5 1 9 9 9 8 0 15 -2 15 -3z m75 -36 c19 -22 19 -22 -10 2 -48
40 -51 43 -30 32 11 -6 29 -21 40 -34z m-1368 -17 c4 0 16 5 25 10 11 6 19 5
24 -3 4 -7 3 -8 -4 -4 -7 4 -12 3 -12 -3 0 -5 -8 -8 -17 -7 -10 2 -20 -1 -23
-5 -3 -5 -14 6 -24 24 l-17 32 20 -23 c11 -13 24 -22 28 -21z m1344 3 c25 -27
28 -33 12 -25 -13 6 -27 20 -33 31 -9 17 -15 18 -33 10 -21 -11 -21 -11 -3 4
11 9 20 16 21 16 1 0 17 -16 36 -36z m315 28 c16 -10 37 -53 30 -60 -3 -3 -6
0 -6 6 0 6 -17 23 -37 37 -29 19 -33 25 -18 25 11 0 25 -4 31 -8z m81 -14 c2
-17 0 -19 -7 -8 -5 8 -6 18 -4 22 8 12 10 10 11 -14z m-1626 -21 c-10 -9 -11
-8 -5 6 3 10 9 15 12 12 3 -3 0 -11 -7 -18z m59 7 c0 -7 -4 -16 -10 -19 -5 -3
-10 -4 -10 -1 0 2 -2 11 -5 19 -4 8 0 14 10 14 8 0 15 -6 15 -13z m139 -49 l0
-20 -9 20 c-5 11 -9 27 -9 35 -1 13 0 13 9 0 5 -8 9 -24 9 -35z m465 29 c3 -8
2 -12 -4 -9 -6 3 -10 10 -10 16 0 14 7 11 14 -7z m535 12 c-2 -2 -17 -6 -34
-10 -22 -5 -26 -4 -15 4 14 9 59 15 49 6z m330 -9 c6 -8 7 -18 3 -22 -4 -5 0
-6 8 -3 11 4 16 -1 17 -13 2 -17 -1 -16 -24 6 -19 17 -36 23 -60 21 -35 -2
-33 8 2 17 35 8 42 7 54 -6z m1645 -2 c3 -8 1 -15 -4 -15 -6 0 -10 7 -10 15 0
8 2 15 4 15 2 0 6 -7 10 -15z m-3216 -26 c-3 -8 -7 -3 -11 10 -4 17 -3 21 5
13 5 -5 8 -16 6 -23z m272 -4 c0 -5 -5 -3 -10 5 -5 8 -10 20 -10 25 0 6 5 3
10 -5 5 -8 10 -19 10 -25z m98 23 c-2 -6 -17 -16 -34 -21 -16 -5 -40 -19 -52
-31 l-24 -21 13 28 c14 30 52 56 82 57 10 0 17 -5 15 -12z m1069 -10 c-3 -8
-6 -5 -6 6 -1 11 2 17 5 13 3 -3 4 -12 1 -19z m-1201 -42 c9 -3 14 -9 11 -12
-11 -11 -56 27 -50 43 5 14 8 13 14 -4 4 -11 15 -23 25 -27z m1865 27 c13 -16
12 -17 -3 -4 -10 7 -18 15 -18 17 0 8 8 3 21 -13z m506 -5 c-3 -8 -6 -5 -6 6
-1 11 2 17 5 13 3 -3 4 -12 1 -19z m-2427 -14 c0 -20 -7 -17 -20 6 -9 16 -8
18 5 14 8 -4 15 -12 15 -20z m1102 8 c7 -7 -4 -9 -31 -5 -34 5 -48 1 -73 -17
-30 -22 -30 -12 1 23 12 15 25 18 55 14 21 -3 43 -10 48 -15z m140 -16 c2 -19
0 -32 -4 -30 -8 5 -12 64 -4 64 2 0 6 -15 8 -34z m138 -3 c14 -16 13 -16 -4
-2 -18 13 -19 12 -13 -4 6 -16 5 -16 -19 0 -22 14 -31 15 -58 5 l-31 -11 25
20 c28 24 75 20 100 -8z m1278 -4 c-3 -8 -7 -3 -11 10 -4 17 -3 21 5 13 5 -5
8 -16 6 -23z m-2102 9 c4 -7 4 -10 -1 -6 -4 4 -17 2 -29 -4 -19 -10 -20 -10
-7 5 16 20 27 21 37 5z m1547 -8 c-3 -11 -7 -20 -9 -20 -2 0 -4 9 -4 20 0 11
4 20 9 20 5 0 7 -9 4 -20z m-2209 -30 c35 -53 33 -62 -4 -15 -27 34 -37 55
-26 55 2 0 15 -18 30 -40z m131 20 c3 -5 1 -10 -4 -10 -6 0 -11 5 -11 10 0 6
2 10 4 10 3 0 8 -4 11 -10z m129 1 c8 -12 -14 -27 -47 -33 -34 -6 -32 11 4 29
29 15 36 16 43 4z m343 -11 c-6 -24 5 -26 23 -5 7 9 19 14 25 11 7 -2 19 1 26
7 12 10 12 9 2 -2 -15 -18 -17 -35 -3 -26 6 3 10 1 10 -4 0 -14 -13 -14 -27 0
-8 8 -19 6 -41 -5 -35 -18 -49 -7 -30 24 16 25 22 26 15 0z m593 -1 c0 -5 -9
-9 -19 -9 -11 0 -22 4 -25 9 -3 5 6 9 19 9 14 0 25 -4 25 -9z m-1086 -12 c4 4
4 -1 0 -10 -5 -13 -10 -15 -17 -8 -14 14 -27 14 -27 1 0 -5 7 -10 15 -10 8 0
15 -6 15 -12 0 -7 7 -2 16 10 8 12 21 22 29 22 11 0 27 -26 30 -50 0 -3 4 -11
8 -17 5 -9 3 -13 -8 -13 -9 0 -13 5 -10 10 3 6 -2 11 -12 11 -10 1 -27 2 -39
3 -11 0 -32 12 -46 26 l-26 24 21 11 c12 7 27 8 33 3 6 -4 14 -5 18 -1z m943
-34 c-3 -10 -5 -2 -5 17 0 19 2 27 5 18 2 -10 2 -26 0 -35z m78 41 c22 -9 0
-24 -34 -24 -20 0 -21 2 -11 15 14 17 21 18 45 9z m-1162 -24 c3 -11 1 -18 -4
-14 -5 3 -9 12 -9 20 0 20 7 17 13 -6z m1452 10 l-40 -6 35 -6 35 -6 -39 2
c-22 0 -41 7 -44 14 -3 8 10 12 45 11 l48 -2 -40 -7z m-868 -47 c-3 -10 -5 -2
-5 17 0 19 2 27 5 18 2 -10 2 -26 0 -35z m408 17 c16 -32 21 -60 6 -44 -10 11
-32 74 -26 74 3 0 11 -13 20 -30z m-287 -10 c11 -18 12 -21 2 -12 -21 18 -51
15 -78 -10 l-25 -23 19 30 c33 53 56 57 82 15z m-464 -1 c-19 -22 -19 -22 4
-10 13 7 27 10 30 6 3 -3 -4 -8 -16 -12 -12 -3 -19 -9 -16 -14 3 -5 1 -9 -5
-9 -12 0 -24 37 -16 50 3 5 13 10 22 10 14 0 13 -3 -3 -21z m371 11 c3 -5 1
-10 -4 -10 -6 0 -11 5 -11 10 0 6 2 10 4 10 3 0 8 -4 11 -10z m565 0 c-8 -5
-24 -9 -35 -9 -16 1 -16 2 5 9 35 11 48 11 30 0z m281 -36 c-1 -5 -9 -9 -18
-9 -10 0 -17 6 -15 13 1 8 -2 11 -8 7 -14 -9 -13 -18 6 -41 8 -10 13 -13 9 -6
-3 6 -2 12 4 12 5 0 9 -9 8 -20 -1 -15 -6 -18 -20 -14 -15 5 -17 3 -11 -7 12
-19 14 -39 4 -39 -10 0 -20 51 -20 101 l0 38 31 -13 c17 -7 30 -17 30 -22z
m533 11 c-4 -8 -8 -15 -10 -15 -2 0 -4 7 -4 15 0 8 4 15 10 15 5 0 7 -7 4 -15z
m-1414 -52 c0 -17 4 -34 9 -38 12 -7 25 31 15 46 -4 7 -3 9 4 5 5 -3 23 5 40
18 26 23 31 24 49 11 11 -8 23 -11 27 -7 4 3 4 -1 0 -11 -3 -9 -9 -15 -13 -13
-12 8 -90 -32 -102 -53 -12 -18 -14 -18 -27 -3 -12 15 -13 15 -9 -5 3 -14 1
-20 -8 -17 -6 3 -12 19 -12 37 -1 27 0 29 8 12 6 -14 7 -4 4 30 -4 36 -3 46 4
35 6 -8 11 -29 11 -47z m1505 48 c3 -5 2 -12 -3 -15 -5 -3 -9 1 -9 9 0 17 3
19 12 6z m-1990 -19 c-3 -3 -11 0 -18 7 -9 10 -8 11 6 5 10 -3 15 -9 12 -12z
m1886 -17 c5 4 9 1 9 -4 0 -6 -4 -11 -10 -11 -5 0 -10 -4 -10 -8 0 -5 10 -8
21 -8 12 1 24 -6 26 -14 4 -12 3 -12 -5 -2 -11 16 -43 12 -58 -7 -9 -12 -12
-11 -17 3 -4 9 -3 15 2 12 4 -3 7 9 5 27 -3 23 -1 28 6 17 8 -12 10 -10 11 10
2 24 2 24 6 2 2 -12 9 -20 14 -17z m449 8 c-1 -24 -2 -26 -11 -10 -5 9 -7 22
-4 27 10 17 15 11 15 -17z m-2297 5 c-15 -19 -12 -50 4 -44 7 3 13 1 13 -4 0
-6 -4 -10 -9 -10 -17 0 -5 -30 18 -46 15 -11 21 -23 18 -35 -3 -11 -1 -17 4
-13 15 9 10 -6 -10 -27 -11 -12 -18 -15 -18 -7 1 7 -2 13 -8 13 -5 0 -9 -6 -9
-12 1 -7 -2 -10 -7 -7 -5 3 -8 13 -7 21 2 9 -3 18 -11 21 -8 3 -11 0 -7 -6 4
-7 -1 -10 -13 -7 -14 2 -18 -1 -14 -11 3 -7 10 -11 16 -7 6 4 7 1 3 -6 -5 -7
-1 -18 9 -25 15 -10 13 -12 -12 -11 -18 0 -27 6 -25 14 1 7 -2 18 -7 25 -11
14 2 41 16 33 18 -11 41 47 38 93 -2 40 8 70 22 70 3 0 1 -6 -4 -12z m58 -20
c10 -18 9 -20 -6 -14 -15 5 -16 4 -5 -9 17 -20 8 -19 -18 3 -15 13 -18 22 -10
35 11 20 23 15 39 -15z m1199 -29 c0 -5 -7 -9 -15 -9 -9 0 -12 6 -9 15 6 15
24 11 24 -6z m270 -11 c-1 -26 -3 -30 -10 -16 -6 9 -7 23 -4 32 9 25 14 19 14
-16z m266 7 c-3 -13 -8 -30 -12 -36 -5 -8 -3 -9 7 -4 7 5 29 10 47 12 36 4 61
-16 61 -47 0 -8 -7 -3 -15 13 -17 31 -33 34 -77 10 -25 -13 -28 -18 -14 -21
10 -2 25 2 34 9 13 11 19 9 39 -14 13 -16 24 -33 24 -39 0 -6 -9 1 -21 16 -16
21 -26 25 -47 20 -15 -4 -36 -14 -47 -23 -18 -15 -19 -15 -6 2 11 14 11 20 0
34 -12 14 -12 15 0 9 10 -7 12 -4 7 12 -4 11 -1 31 5 46 15 33 21 33 15 1z
m-1226 5 c0 -16 -53 -59 -72 -60 -29 0 -21 27 15 48 36 23 57 27 57 12z m1124
-25 c3 -8 1 -15 -4 -15 -6 0 -10 7 -10 15 0 8 2 15 4 15 2 0 6 -7 10 -15z
m-1124 -18 c0 -8 -11 -20 -25 -27 -13 -7 -22 -17 -19 -22 3 -5 15 -2 25 8 10
9 19 12 19 6 0 -14 -17 -24 -44 -26 -11 -1 -20 -7 -19 -13 3 -13 -22 -11 -34
2 -4 4 -3 5 3 2 7 -4 17 0 24 8 11 13 10 14 -3 10 -8 -4 -18 -2 -22 4 -4 7 3
11 18 11 13 0 34 11 47 25 27 29 30 30 30 12z m1137 -29 c-3 -8 -6 -5 -6 6 -1
11 2 17 5 13 3 -3 4 -12 1 -19z m30 0 c-3 -8 -6 -5 -6 6 -1 11 2 17 5 13 3 -3
4 -12 1 -19z m-1301 4 c-3 -5 1 -19 7 -33 7 -13 10 -37 7 -53 -4 -25 -7 -27
-18 -14 -14 17 -14 108 0 108 5 0 7 -4 4 -8z m362 -27 c-3 -3 -9 2 -12 12 -6
14 -5 15 5 6 7 -7 10 -15 7 -18z m1554 -5 c3 -16 1 -30 -4 -30 -4 0 -8 7 -8
15 0 8 -5 15 -10 15 -8 0 7 27 16 30 1 0 4 -13 6 -30z m-630 -39 c2 -17 1 -28
-4 -25 -8 5 -12 54 -4 54 2 0 6 -13 8 -29z m148 -2 c15 -28 12 -32 -12 -15
-25 18 -88 21 -106 6 -7 -5 -6 -3 2 6 15 17 73 33 94 26 7 -2 17 -13 22 -23z
m-2013 -1 c-3 -8 -6 -5 -6 6 -1 11 2 17 5 13 3 -3 4 -12 1 -19z m293 -37 c-5
-9 -11 -24 -14 -34 -3 -10 -10 -15 -16 -12 -6 4 -7 -1 -3 -12 3 -10 2 -15 -2
-10 -5 4 -14 -5 -21 -20 -8 -19 -13 -22 -13 -10 -1 9 -6 17 -12 17 -6 0 -3 7
5 16 9 8 14 20 10 25 -3 5 0 8 7 7 7 -2 14 6 16 17 2 11 9 33 15 48 l11 29 13
-23 c7 -13 8 -29 4 -38z m1830 -5 c0 -12 -5 -7 -19 24 -11 24 -11 24 3 6 9
-11 16 -24 16 -30z m420 34 c0 -5 -4 -10 -10 -10 -5 0 -10 5 -10 10 0 6 5 10
10 10 6 0 10 -4 10 -10z m57 -12 c-3 -8 -6 -5 -6 6 -1 11 2 17 5 13 3 -3 4
-12 1 -19z m350 0 c-3 -8 -6 -5 -6 6 -1 11 2 17 5 13 3 -3 4 -12 1 -19z
m-1087 -29 c0 -6 -4 -7 -10 -4 -5 3 -10 11 -10 16 0 6 5 7 10 4 6 -3 10 -11
10 -16z m131 10 c16 -9 -55 -21 -85 -13 -14 3 -23 10 -20 15 6 11 87 9 105 -2z
m-1907 -13 c26 -13 26 -14 5 -19 -11 -3 -18 -3 -15 0 3 3 -2 12 -12 19 -22 17
-11 18 22 0z m660 3 c-3 -6 -1 -15 6 -19 8 -5 5 -9 -9 -13 -12 -3 -19 -2 -18
1 2 4 7 15 10 25 4 9 9 17 12 17 4 0 3 -5 -1 -11z m216 -44 c14 -19 14 -19 -2
-6 -10 7 -18 18 -18 24 0 6 1 8 3 6 1 -2 9 -13 17 -24z m792 11 c7 4 8 2 4 -5
-9 -13 -26 -5 -25 12 0 9 2 8 6 -1 2 -6 10 -9 15 -6z m167 3 c37 -13 40 -34 6
-43 -14 -4 -23 -11 -20 -16 3 -5 11 -8 18 -6 7 1 9 1 4 -1 -4 -3 -4 -10 -1
-16 5 -8 2 -8 -7 1 -19 17 -34 15 -19 -3 7 -9 10 -18 6 -22 -9 -9 -18 3 -21
29 -2 13 -7 32 -11 43 -7 18 -6 18 9 7 11 -9 21 -11 33 -4 13 7 11 10 -16 15
-17 4 -29 11 -25 17 8 12 5 12 44 -1z m-1749 -3 c0 -11 -19 -15 -25 -6 -3 5 1
10 9 10 9 0 16 -2 16 -4z m1475 -62 c13 -14 15 -12 16 13 l1 28 7 -30 c7 -28
-9 -90 -17 -66 -3 8 -10 8 -25 0 -12 -7 -19 -8 -14 -4 4 5 0 17 -10 27 -10 12
-12 18 -4 18 7 0 10 4 6 10 -3 5 -3 21 1 36 7 27 7 28 15 5 5 -12 16 -29 24
-37z m-910 25 c10 -30 2 -32 -12 -3 -6 13 -7 24 -3 24 5 0 12 -9 15 -21z m621
-14 c-1 -8 -5 -18 -9 -21 -4 -4 0 -18 8 -31 18 -27 14 -38 -15 -46 -14 -3 -20
-1 -17 6 2 7 12 11 21 11 9 -1 15 3 13 10 -2 6 -11 10 -20 8 -16 -3 -17 14 -2
38 5 8 10 18 11 23 3 14 4 17 8 17 2 0 3 -7 2 -15z m1311 -17 c-3 -7 -5 -2 -5
12 0 14 2 19 5 13 2 -7 2 -19 0 -25z m-1901 -59 c-8 -18 -15 -28 -16 -21 0 7
5 23 11 35 9 16 9 22 -1 25 -9 3 -9 6 1 13 20 12 22 -11 5 -52z m-42 36 c-7
-16 -24 -21 -24 -6 0 8 7 13 27 20 1 1 0 -6 -3 -14z m-550 -17 c-3 -4 -1 -8 4
-8 19 0 20 -26 1 -27 -12 -1 -19 5 -19 17 0 10 -6 20 -12 23 -7 3 -3 4 9 4 12
-1 19 -5 17 -9z m125 -10 c5 -15 4 -26 -2 -30 -7 -4 -7 -12 2 -22 9 -11 10
-16 2 -16 -6 0 -12 6 -13 13 0 6 -2 17 -2 22 -1 6 -5 16 -9 23 -8 11 -2 32 9
32 3 0 8 -10 13 -22z m989 -3 c-3 -3 -9 2 -12 12 -6 14 -5 15 5 6 7 -7 10 -15
7 -18z m-574 -20 c9 -14 13 -25 8 -25 -5 0 -14 11 -20 25 -6 14 -10 25 -8 25
2 0 11 -11 20 -25z m96 -9 c0 -3 -5 -5 -11 -3 -6 1 -14 -4 -17 -12 -3 -8 0
-11 6 -7 6 4 16 -3 22 -15 10 -17 9 -20 -1 -14 -9 6 -11 0 -6 -26 l7 -34 -22
29 c-25 33 -30 61 -15 93 8 18 12 20 23 8 8 -7 14 -16 14 -19z m-331 -3 c0
-11 -3 -13 -6 -5 -2 6 -10 9 -15 6 -7 -4 -8 -2 -4 4 11 18 26 14 25 -5z m788
-25 c-3 -8 -6 -5 -6 6 -1 11 2 17 5 13 3 -3 4 -12 1 -19z m-597 2 c0 -5 -5
-10 -11 -10 -5 0 -7 5 -4 10 3 6 8 10 11 10 2 0 4 -4 4 -10z m624 -6 c3 -8 2
-12 -4 -9 -6 3 -10 10 -10 16 0 14 7 11 14 -7z m64 4 c7 -7 12 -17 12 -22 0
-6 -5 -3 -11 7 -8 14 -14 15 -32 5 -20 -10 -21 -10 -8 5 16 20 23 21 39 5z
m832 -38 c5 0 10 6 13 13 2 6 4 0 4 -15 1 -31 -11 -37 -21 -12 -3 8 -10 13
-14 10 -5 -3 -7 7 -3 22 5 25 6 25 9 5 2 -13 7 -23 12 -23z m-1730 5 c-7 -9
-15 -13 -17 -11 -6 6 20 36 26 30 2 -2 -2 -10 -9 -19z m291 -2 c0 -16 2 -36 4
-45 2 -10 -1 -20 -6 -24 -5 -3 -9 6 -9 20 0 14 -5 28 -10 31 -8 5 -8 11 -1 19
6 7 8 16 4 19 -3 4 -1 7 5 7 7 0 12 -12 13 -27z m496 5 c-3 -8 -6 -5 -6 6 -1
11 2 17 5 13 3 -3 4 -12 1 -19z m-569 -13 c-3 -14 -1 -28 3 -31 5 -3 6 -17 3
-31 -5 -19 -2 -30 10 -39 13 -9 14 -14 5 -20 -7 -4 -14 -3 -16 3 -2 6 -12 10
-21 8 -9 -1 -11 0 -4 2 13 5 17 33 3 33 -8 0 -6 23 5 78 2 12 7 22 10 22 4 0
4 -11 2 -25z m602 15 c0 -5 -2 -10 -4 -10 -3 0 -8 5 -11 10 -3 6 -1 10 4 10 6
0 11 -4 11 -10z m-1030 -10 c-8 -5 -19 -10 -25 -10 -5 0 -3 5 5 10 8 5 20 10
25 10 6 0 3 -5 -5 -10z m57 4 c-3 -3 -12 -4 -19 -1 -8 3 -5 6 6 6 11 1 17 -2
13 -5z m113 -14 c-6 -11 -13 -20 -16 -20 -2 0 0 9 6 20 6 11 13 20 16 20 2 0
0 -9 -6 -20z m2125 10 c3 -5 1 -10 -4 -10 -6 0 -11 5 -11 10 0 6 2 10 4 10 3
0 8 -4 11 -10z m-1716 -40 c0 -10 -3 -8 -9 5 -12 27 -12 43 0 25 5 -8 9 -22 9
-30z m410 -15 l0 -20 -9 20 c-5 11 -9 29 -9 40 l0 20 9 -20 c5 -11 9 -29 9
-40z m125 39 c5 -14 4 -15 -9 -4 -13 11 -20 9 -42 -11 -24 -22 -24 -12 0 19
14 17 44 15 51 -4z m-1176 -48 c-22 -21 -40 -31 -48 -26 -16 10 -4 30 19 30
10 0 26 9 36 20 10 11 21 18 23 15 3 -3 -10 -21 -30 -39z m725 24 c3 -11 1
-18 -4 -14 -5 3 -9 12 -9 20 0 20 7 17 13 -6z m-806 4 c-3 -3 -12 -4 -19 -1
-8 3 -5 6 6 6 11 1 17 -2 13 -5z m620 -9 c0 -8 -4 -15 -9 -15 -10 0 -11 14 -1
23 9 10 10 9 10 -8z m-318 -18 c12 -15 12 -17 -3 -11 -9 3 -16 13 -16 22 0 8
1 13 3 11 1 -2 9 -12 16 -22z m698 1 c-3 -8 -6 -5 -6 6 -1 11 2 17 5 13 3 -3
4 -12 1 -19z m132 -98 c0 -19 -32 61 -35 90 -3 27 0 21 16 -25 11 -33 20 -62
19 -65z m805 104 c3 -8 2 -12 -4 -9 -6 3 -10 10 -10 16 0 14 7 11 14 -7z
m-685 -8 c8 -9 8 -16 2 -20 -5 -4 -11 2 -13 11 -3 14 -12 9 -46 -25 -39 -39
-41 -40 -28 -13 15 27 51 61 67 61 4 0 12 -6 18 -14z m347 -6 c5 1 10 -3 12
-9 2 -6 -3 -8 -11 -5 -10 3 -17 -1 -20 -13 -3 -10 -5 -2 -6 17 0 23 2 30 8 22
4 -8 12 -13 17 -12z m111 -17 c1 -29 -1 -33 -9 -20 -7 14 -3 57 6 57 1 0 3
-17 3 -37z m88 7 c4 -11 9 -18 13 -16 4 2 7 -10 8 -28 0 -18 8 -43 18 -57 10
-13 16 -17 13 -9 -17 50 -18 54 -3 30 8 -14 15 -32 16 -41 0 -9 10 -24 21 -35
12 -10 25 -29 30 -42 5 -14 14 -20 21 -16 6 4 8 3 5 -3 -4 -5 5 -16 19 -23 13
-8 23 -18 21 -24 -2 -6 5 -24 16 -40 24 -34 2 -25 -26 11 -10 13 -24 23 -31
23 -18 0 -87 71 -80 82 3 5 13 7 21 3 13 -4 14 -3 3 10 -7 8 -17 12 -23 8 -6
-3 -7 -1 -3 5 4 7 1 12 -8 12 -9 0 -16 7 -16 16 0 8 -4 12 -10 9 -6 -3 -7 1
-4 10 4 10 2 15 -6 13 -8 -2 -13 10 -15 32 -1 19 -7 47 -13 63 -6 15 -7 27 -2
27 5 0 12 -9 15 -20z m-1285 -5 c0 -9 6 -12 18 -9 14 5 14 4 2 -4 -8 -6 -18
-8 -22 -6 -4 3 -8 0 -8 -5 0 -6 5 -11 12 -11 6 0 9 -3 5 -6 -3 -3 -13 -2 -23
4 -11 6 -13 12 -6 16 6 4 9 13 5 21 -3 8 0 15 6 15 6 0 11 -7 11 -15z m185
-24 c4 -15 3 -21 -3 -17 -5 3 -12 17 -15 32 -5 30 8 20 18 -15z m719 23 c3 -8
2 -12 -4 -9 -6 3 -10 10 -10 16 0 14 7 11 14 -7z m-1129 -3 c3 -5 1 -12 -4
-15 -5 -3 -11 1 -15 9 -6 16 9 21 19 6z m310 -1 c3 -5 1 -10 -4 -10 -6 0 -11
5 -11 10 0 6 2 10 4 10 3 0 8 -4 11 -10z m70 -2 c3 -7 6 -22 8 -33 1 -11 6
-21 11 -22 5 -1 16 -17 24 -35 l14 -33 9 24 c5 14 7 31 4 38 -2 8 -1 11 5 8 5
-3 8 -19 7 -35 -2 -29 -20 -46 -38 -34 -5 3 -9 -1 -9 -8 -1 -7 -9 5 -20 27
-11 22 -20 33 -20 25 -1 -25 -16 8 -24 53 -6 30 -4 37 9 37 9 0 18 -6 20 -12z
m179 -4 c3 -8 2 -12 -4 -9 -6 3 -10 10 -10 16 0 14 7 11 14 -7z m293 -21 c-3
-10 -5 -4 -5 12 0 17 2 24 5 18 2 -7 2 -21 0 -30z m810 22 c0 -8 -4 -12 -9 -9
-5 3 -6 10 -3 15 9 13 12 11 12 -6z m-1900 -31 c2 -10 0 -13 -3 -6 -5 10 -9
10 -20 1 -20 -16 -29 -4 -13 15 18 19 33 15 36 -10z m270 13 c0 -8 -6 -14 -14
-14 -9 0 -10 4 -2 14 6 7 12 13 14 13 1 0 2 -6 2 -13z m309 -42 c-5 -18 -1
-27 14 -35 24 -13 26 -27 5 -27 -8 0 -15 4 -15 9 0 5 -4 7 -9 4 -10 -7 -18 46
-13 84 4 21 5 22 14 6 5 -9 7 -28 4 -41z m-486 20 c0 -8 -2 -15 -4 -15 -2 0
-6 7 -10 15 -3 8 -1 15 4 15 6 0 10 -7 10 -15z m1077 0 c0 -9 -6 -14 -13 -11
-7 3 -15 -2 -18 -10 -3 -8 -12 -14 -21 -14 -12 0 -12 3 4 19 10 10 25 21 32
24 8 3 14 6 15 6 0 1 1 -6 1 -14z m783 -40 c0 -11 -14 7 -31 40 -7 13 -3 12
10 -5 11 -14 21 -29 21 -35z m-890 14 c15 -28 5 -23 -15 7 -9 15 -12 23 -6 20
6 -4 16 -16 21 -27z m-648 9 c-8 -8 -7 -18 2 -37 7 -14 16 -39 20 -56 l7 -30
-20 22 c-23 25 -28 38 -8 27 6 -4 4 2 -6 14 -11 11 -26 18 -35 16 -14 -5 -14
-3 1 6 11 7 16 18 12 29 -3 12 1 17 16 18 16 2 19 -1 11 -9z m138 -9 c0 -5 -4
-9 -8 -9 -5 0 -9 7 -9 15 0 8 4 12 9 9 4 -3 8 -9 8 -15z m-565 0 c11 -17 0
-20 -21 -4 -17 13 -17 14 -2 15 9 0 20 -5 23 -11z m55 1 c0 -5 -2 -10 -4 -10
-3 0 -8 5 -11 10 -3 6 -1 10 4 10 6 0 11 -4 11 -10z m1603 -10 c3 -11 3 -20 1
-20 -2 0 -8 9 -14 20 -6 11 -7 20 -2 20 6 0 12 -9 15 -20z m-1624 -32 c-1 -31
-1 -31 -8 -8 -5 14 -6 28 -4 33 9 15 13 6 12 -25z m178 0 c-3 -8 -6 -5 -6 6
-1 11 2 17 5 13 3 -3 4 -12 1 -19z m353 -47 c-8 -14 -9 -14 -10 2 0 27 -21 20
-49 -16 -11 -14 -12 -18 -1 -15 7 2 17 -8 21 -22 6 -21 7 -22 8 -4 1 11 -4 25
-10 31 -8 8 -7 13 2 18 7 5 10 4 5 -3 -3 -6 -2 -13 4 -17 16 -10 12 -55 -5
-55 -9 0 -15 -9 -14 -22 0 -22 1 -22 9 -3 7 16 9 13 15 -22 4 -24 11 -41 15
-38 8 5 24 -64 17 -72 -3 -2 -8 9 -12 26 -4 17 -11 29 -16 25 -5 -3 -9 3 -10
13 0 17 -1 17 -8 -1 -5 -14 -11 -3 -24 43 -9 33 -17 70 -17 80 0 11 -4 22 -9
25 -4 3 -6 17 -4 31 4 20 9 24 29 19 18 -5 24 -2 24 10 0 10 6 13 15 9 9 -3
15 -2 14 3 -4 25 4 25 11 0 6 -17 5 -36 0 -45z m-370 38 c0 -5 -6 -9 -13 -9
-8 0 -14 6 -14 14 0 8 6 12 14 9 7 -3 13 -9 13 -14z m980 9 c0 -4 -12 -8 -26
-8 -14 0 -23 -4 -19 -10 3 -5 15 -10 26 -10 11 0 17 -5 14 -10 -4 -6 -16 -8
-28 -5 -20 6 -20 5 3 -14 22 -18 23 -21 6 -21 -16 0 -17 -2 -5 -17 10 -11 10
-14 2 -9 -16 9 -17 -6 -1 -22 9 -9 8 -12 -6 -12 -14 0 -17 6 -14 25 3 14 1 28
-4 31 -5 3 -8 26 -7 50 3 42 4 44 31 42 15 -1 28 -6 28 -10z m146 -66 c-7 -7
-24 62 -17 73 3 5 9 -8 13 -29 5 -22 6 -41 4 -44z m430 51 c-7 -7 -26 7 -26
19 0 6 6 6 15 -2 9 -7 13 -15 11 -17z m-1627 -15 c3 1 14 -5 25 -14 14 -12 16
-18 6 -24 -9 -5 -9 -9 -1 -14 6 -4 11 -11 11 -17 0 -5 -17 8 -38 28 -20 21
-36 40 -35 42 2 2 -3 11 -9 20 -7 9 -2 7 11 -4 13 -11 26 -19 30 -17z m516 2
c-3 -11 -2 -20 3 -20 5 0 7 -11 4 -25 -2 -14 -9 -25 -14 -25 -6 0 -7 11 -4 25
4 15 2 25 -4 25 -6 0 -5 8 2 20 7 11 14 20 16 20 2 0 0 -9 -3 -20z m-399 -17
c-2 -16 1 -36 6 -45 5 -12 5 -18 -1 -18 -7 0 -7 -9 0 -27 13 -35 -3 -18 -19
20 -9 20 -9 26 -1 21 8 -4 9 0 4 15 -6 19 1 61 10 61 2 0 2 -12 1 -27z m2444
12 c7 -9 8 -15 2 -15 -5 0 -12 7 -16 15 -3 8 -4 15 -2 15 2 0 9 -7 16 -15z
m-2692 -20 c-3 -3 -9 2 -12 12 -6 14 -5 15 5 6 7 -7 10 -15 7 -18z m382 1 c0
-3 -4 -8 -10 -11 -5 -3 -10 -1 -10 4 0 6 5 11 10 11 6 0 10 -2 10 -4z m226
-30 c-4 -20 -2 -37 4 -41 5 -3 10 -12 10 -18 0 -7 -4 -6 -10 3 -5 8 -10 10
-10 4 0 -15 -24 -24 -39 -15 -8 5 -9 15 -2 32 9 23 16 12 12 -20 -2 -7 2 -10
8 -7 6 4 8 25 4 51 -5 39 -3 45 12 45 14 0 16 -6 11 -34z m984 -56 c30 -54 34
-68 17 -50 -13 14 -36 52 -51 85 -35 78 -18 60 34 -35z m-857 55 c-7 -21 -13
-19 -13 6 0 11 4 18 10 14 5 -3 7 -12 3 -20z m-733 -21 c0 -8 4 -14 9 -14 5 0
13 -10 17 -22 4 -13 11 -26 16 -29 5 -3 2 -9 -7 -12 -9 -4 -13 -3 -10 2 3 5 1
12 -5 16 -6 4 -8 10 -5 15 3 5 1 11 -5 15 -6 4 -10 -5 -10 -19 0 -43 -17 -29
-18 15 -1 22 -4 45 -7 50 -4 5 1 6 9 3 9 -3 16 -12 16 -20z m42 12 c7 4 8 2 4
-4 -11 -18 -26 -14 -25 6 0 10 3 12 6 4 2 -6 10 -9 15 -6z m351 -57 c-11 -11
-23 1 -42 46 l-13 30 33 -33 c21 -22 29 -36 22 -43z m49 62 c-8 -4 -13 -11
-12 -15 1 -4 -1 -17 -5 -29 -4 -12 -6 -30 -5 -39 1 -10 -3 -18 -9 -18 -19 0
-22 19 -6 43 8 13 12 27 9 30 -9 8 15 37 30 37 7 0 6 -4 -2 -9z m2259 -8 c13
-16 12 -17 -3 -4 -17 13 -22 21 -14 21 2 0 10 -8 17 -17z m-2817 -15 c1 -7 5
-20 10 -28 7 -12 6 -13 -4 -3 -8 7 -15 23 -17 35 -2 12 -1 19 3 16 3 -3 6 -12
8 -20z m451 12 c7 -12 -12 -40 -26 -40 -10 0 -12 34 -2 43 9 10 21 9 28 -3z
m339 -6 c3 -8 2 -12 -4 -9 -6 3 -10 10 -10 16 0 14 7 11 14 -7z m863 -6 c-3
-8 -6 -5 -6 6 -1 11 2 17 5 13 3 -3 4 -12 1 -19z m1111 -40 c23 -42 28 -59 19
-64 -6 -4 -9 -4 -5 0 4 5 -7 29 -23 56 -16 26 -29 53 -29 60 0 17 0 17 38 -52z
m-599 15 c10 9 11 8 6 -5 -9 -22 12 -61 28 -52 7 4 9 4 5 -1 -4 -4 -3 -14 3
-22 9 -10 8 -13 0 -13 -7 0 -9 -5 -5 -12 4 -7 -5 -2 -19 11 -15 14 -27 21 -27
16 0 -4 -8 -1 -17 8 -10 8 -21 16 -25 16 -5 1 -8 4 -9 9 0 4 -9 12 -19 17 -13
7 -16 15 -11 24 7 11 12 10 22 -8 8 -11 20 -21 27 -21 7 0 17 -10 22 -22 7
-18 9 -19 9 -5 1 9 -10 27 -24 39 -19 16 -22 24 -13 30 8 4 17 2 24 -7 8 -11
13 -12 23 -2z m-1139 -18 c14 -19 14 -19 -2 -6 -10 7 -18 18 -18 24 0 6 1 8 3
6 1 -2 9 -13 17 -24z m1177 -10 c-16 -17 -30 5 -15 23 9 10 13 10 19 1 4 -7 2
-18 -4 -24z m-1233 9 c3 -8 2 -12 -4 -9 -6 3 -10 10 -10 16 0 14 7 11 14 -7z
m-714 -26 c0 -23 -3 -29 -9 -19 -8 12 -4 51 5 51 2 0 4 -15 4 -32z m221 7 c3
2 6 -8 7 -22 1 -15 8 -30 15 -35 9 -6 9 -8 -1 -8 -7 0 -17 12 -22 26 -9 23
-12 25 -28 13 -15 -13 -16 -12 -4 3 8 10 10 23 6 30 -6 10 -5 11 8 1 8 -7 17
-11 19 -8z m81 -7 c-7 -7 -12 -8 -12 -2 0 14 12 26 19 19 2 -3 -1 -11 -7 -17z
m1483 -8 l20 -25 -22 19 c-13 11 -23 24 -23 29 0 6 1 8 3 6 1 -2 11 -15 22
-29z m-1646 -3 c12 -15 12 -17 -3 -11 -9 3 -16 13 -16 22 0 8 1 13 3 11 1 -2
9 -12 16 -22z m-294 3 c3 -5 -1 -10 -11 -10 -13 0 -14 -3 -5 -14 9 -11 9 -16
1 -21 -7 -4 -10 -18 -7 -31 2 -14 1 -27 -3 -29 -4 -3 -10 9 -12 25 -3 17 -2
30 2 30 4 0 5 14 2 30 -3 22 0 30 11 30 9 0 19 -4 22 -10z m702 -12 c-3 -8 -6
-5 -6 6 -1 11 2 17 5 13 3 -3 4 -12 1 -19z m-209 -65 c17 -32 14 -42 -4 -13
-8 14 -13 17 -10 7 3 -10 6 -25 6 -34 0 -9 6 -13 14 -10 10 4 15 -4 18 -24 4
-22 1 -29 -13 -29 -13 0 -21 16 -32 69 -9 37 -13 79 -9 92 6 23 6 23 12 -6 4
-16 12 -40 18 -52z m1662 23 c0 -12 -5 -7 -19 24 -11 24 -11 24 3 6 9 -11 16
-24 16 -30z m-1716 2 c-9 -14 -23 2 -17 18 4 12 8 13 14 3 4 -7 5 -17 3 -21z
m-267 0 c-3 -8 -6 -5 -6 6 -1 11 2 17 5 13 3 -3 4 -12 1 -19z m157 6 c3 -8 2
-12 -4 -9 -6 3 -10 10 -10 16 0 14 7 11 14 -7z m360 -12 c-8 -2 -14 -10 -14
-17 0 -8 -5 -17 -10 -20 -11 -7 -8 18 4 47 6 14 11 15 21 5 11 -10 11 -13 -1
-15z m223 -7 c2 -42 -13 -38 -19 5 -3 17 0 30 6 30 6 0 12 -16 13 -35z m1108
15 c10 -11 16 -20 13 -20 -3 0 -13 9 -23 20 -10 11 -16 20 -13 20 3 0 13 -9
23 -20z m594 -30 c11 -24 11 -24 -3 -6 -9 11 -16 24 -16 30 0 12 5 7 19 -24z
m-2605 3 c10 -26 19 -89 11 -81 -12 11 -34 98 -26 98 5 0 12 -7 15 -17z m449
-85 c-3 -21 -10 -35 -15 -32 -5 3 -7 11 -5 18 8 20 -11 56 -27 50 -8 -3 -17
-1 -21 5 -4 7 3 11 18 11 15 0 28 -8 35 -22 10 -22 11 -22 11 -3 1 11 -6 30
-14 42 -11 16 -12 22 -2 26 16 5 28 -48 20 -95z m85 73 c-2 -17 0 -27 5 -24 5
3 7 -16 5 -43 -2 -39 0 -49 12 -48 10 1 17 -8 18 -24 2 -25 2 -25 -13 -6 -10
13 -14 15 -15 5 0 -32 -11 1 -23 70 -10 53 -10 78 -3 86 17 18 19 16 14 -16z
m1332 23 c0 -8 -19 -13 -24 -6 -3 5 1 9 9 9 8 0 15 -2 15 -3z m-1163 -46 c-3
-8 -6 -5 -6 6 -1 11 2 17 5 13 3 -3 4 -12 1 -19z m1936 -29 c10 -18 15 -34 13
-37 -3 -2 -11 7 -17 22 -7 14 -16 26 -21 26 -4 0 -8 5 -8 10 0 19 15 9 33 -21z
m-2437 -3 c16 -17 19 -30 3 -21 -13 9 -8 -27 6 -37 6 -5 5 -8 -3 -8 -7 0 -15
7 -18 15 -4 8 -9 13 -13 10 -4 -2 -8 2 -8 10 0 8 5 15 10 15 5 0 7 7 3 15 -7
19 1 19 20 1z m64 4 c0 -5 -7 -10 -15 -10 -8 0 -15 5 -15 10 0 6 7 10 15 10 8
0 15 -4 15 -10z m-372 -25 c-3 -3 -9 2 -12 12 -6 14 -5 15 5 6 7 -7 10 -15 7
-18z m972 -29 c0 -6 -7 -1 -15 10 -8 10 -15 23 -15 28 0 6 7 1 15 -10 8 -10
15 -23 15 -28z m-570 4 c0 -5 -2 -10 -4 -10 -3 0 -8 5 -11 10 -3 6 -1 10 4 10
6 0 11 -4 11 -10z m496 -8 c-3 -3 0 -12 7 -20 8 -11 8 -14 0 -9 -6 4 -14 1
-16 -5 -4 -8 -6 -7 -6 4 -1 9 -4 24 -7 32 -5 12 -2 15 10 10 9 -4 14 -9 12
-12z m2037 -18 c4 -23 3 -24 -10 -11 -9 8 -12 20 -9 26 10 16 13 14 19 -15z
m321 11 c-4 -8 -8 -15 -10 -15 -2 0 -4 7 -4 15 0 8 4 15 10 15 5 0 7 -7 4 -15z
m114 4 c-10 -5 -26 -5 -40 0 -20 7 -17 9 16 9 29 0 36 -2 24 -9z m-3210 -24
c-3 -3 -9 2 -12 12 -6 14 -5 15 5 6 7 -7 10 -15 7 -18z m206 -15 c-6 -6 -10
-2 -11 12 -2 16 1 18 10 9 7 -7 8 -14 1 -21z m-76 -5 c-3 -3 -9 2 -12 12 -6
14 -5 15 5 6 7 -7 10 -15 7 -18z m1073 8 c13 -16 12 -17 -3 -4 -17 13 -22 21
-14 21 2 0 10 -8 17 -17z m1894 -3 c3 -5 1 -10 -4 -10 -6 0 -11 5 -11 10 0 6
2 10 4 10 3 0 8 -4 11 -10z"/>
<path d="M2037 2823 c-4 -3 -7 -11 -7 -17 0 -6 5 -5 12 2 6 6 9 14 7 17 -3 3
-9 2 -12 -2z"/>
<path d="M2076 2568 c3 -5 10 -6 15 -3 13 9 11 12 -6 12 -8 0 -12 -4 -9 -9z"/>
<path d="M1527 2453 c-4 -3 -7 -11 -7 -17 0 -6 5 -5 12 2 6 6 9 14 7 17 -3 3
-9 2 -12 -2z"/>
<path d="M1559 2093 c-13 -16 -12 -17 4 -4 9 7 17 15 17 17 0 8 -8 3 -21 -13z"/>
<path d="M1115 1830 c-4 -6 -3 -16 3 -22 6 -6 12 -6 17 2 4 6 3 16 -3 22 -6 6
-12 6 -17 -2z"/>
<path d="M943 1745 c0 -8 4 -15 9 -15 4 0 8 4 8 9 0 6 -4 12 -8 15 -5 3 -9 -1
-9 -9z"/>
<path d="M161 1614 c0 -11 3 -14 6 -6 3 7 2 16 -1 19 -3 4 -6 -2 -5 -13z"/>
<path d="M1671 1744 c-34 -34 -32 -46 3 -19 10 8 22 12 26 10 11 -7 22 27 13
36 -4 3 -23 -9 -42 -27z"/>
<path d="M1078 1742 c4 -11 1 -13 -7 -7 -10 5 -11 2 -6 -14 3 -11 1 -29 -5
-38 -10 -16 -10 -15 -5 4 3 13 2 30 -3 39 -7 12 -9 6 -7 -22 1 -22 3 -43 4
-47 0 -4 14 6 30 22 l30 31 19 -25 20 -25 -2 29 c-2 35 -19 57 -50 63 -18 4
-23 1 -18 -10z m47 -22 c10 -11 13 -20 7 -20 -6 0 -12 6 -15 13 -3 9 -7 9 -20
-2 -18 -14 -20 -12 -11 13 8 21 17 20 39 -4z"/>
<path d="M346 1394 c-8 -21 -8 -24 3 -24 12 0 22 28 12 35 -5 3 -12 -2 -15
-11z"/>
<path d="M365 1180 c3 -5 10 -10 16 -10 5 0 9 5 9 10 0 6 -7 10 -16 10 -8 0
-12 -4 -9 -10z"/>
<path d="M1638 1153 c7 -3 16 -2 19 1 4 3 -2 6 -13 5 -11 0 -14 -3 -6 -6z"/>
<path d="M848 1132 c-16 -10 -28 -21 -28 -25 0 -5 13 1 30 13 16 12 34 18 40
15 5 -3 10 -1 10 4 0 15 -20 12 -52 -7z"/>
<path d="M2155 1109 c-4 -6 -5 -12 -2 -15 2 -3 7 2 10 11 7 17 1 20 -8 4z"/>
<path d="M335 1020 c3 -5 10 -10 16 -10 5 0 9 5 9 10 0 6 -7 10 -16 10 -8 0
-12 -4 -9 -10z"/>
<path d="M841 1059 c-13 -10 -19 -19 -14 -19 13 0 49 27 43 33 -3 3 -16 -3
-29 -14z"/>
<path d="M1804 807 c3 -10 6 -26 7 -35 0 -11 2 -13 6 -4 4 9 9 10 18 2 9 -8
14 -6 19 5 4 10 2 14 -5 9 -7 -4 -21 4 -31 17 -15 18 -18 19 -14 6z"/>
<path d="M952 530 c0 -14 2 -19 5 -12 2 6 2 18 0 25 -3 6 -5 1 -5 -13z"/>
<path d="M450 411 c0 -6 4 -13 10 -16 6 -3 7 1 4 9 -7 18 -14 21 -14 7z"/>
</g>
</svg>
